<svg width="549" height="563" viewBox="0 0 549 563" fill="none" xmlns="http://www.w3.org/2000/svg">
<path d="M675.163 399.948C662.84 348.007 634.303 247.37 626.52 228.542C613.549 196.728 601.226 168.809 584.363 142.839C524.694 51.9413 424.166 0 307.423 0C303.531 0 299.64 0 295.749 0C153.063 4.54486 0 98.0392 0 292.17C0 366.186 37.6171 427.217 70.6943 481.106C79.7743 496.039 83.0171 509.024 81.0714 523.958C79.7743 534.995 77.18 560.316 57.7229 601.22C54.48 607.713 54.48 614.206 57.0743 620.698C81.0714 687.573 234.134 796 324.934 796C328.177 796 331.42 796 334.014 795.351C342.446 794.701 349.58 790.157 354.12 783.015C385.251 729.775 409.897 683.028 426.76 644.072C453.351 647.967 477.349 650.564 499.4 650.564C564.257 650.564 589.551 632.385 596.037 627.191C601.226 622.646 604.469 616.153 605.117 609.011L615.494 468.77C627.817 466.173 647.923 461.628 659.597 459.68C671.92 457.083 681 446.695 681 433.71C681 428.516 679.054 417.478 675.163 399.948ZM564.257 446.695L553.88 591.481C548.691 592.78 532.477 596.675 518.857 597.974C502.643 599.272 480.591 597.974 447.514 593.429L451.406 584.989C459.837 564.861 474.754 527.853 479.294 516.816C561.014 323.334 533.126 193.481 396.277 132.45C346.986 110.375 292.506 109.077 241.917 129.853C190.031 150.63 146.577 193.481 126.471 244.124C98.5829 312.946 113.5 386.313 167.98 445.396C186.14 465.524 206.894 481.106 228.946 490.196C244.511 524.607 265.266 553.824 289.911 577.197L291.209 578.496C306.774 592.78 323.637 605.116 342.446 614.855C353.471 621.347 365.146 626.542 378.117 631.086C365.146 663.55 332.717 725.23 319.097 747.954C250.997 742.111 137.497 663.55 110.257 613.556C128.417 571.354 131.66 542.137 132.957 531.1C136.2 504.48 130.363 480.457 114.797 455.785C83.6657 403.843 51.2371 351.902 51.2371 292.17C51.2371 181.145 114.797 95.4421 221.811 63.6281C325.583 32.4633 468.269 59.7325 540.909 171.406C557.771 196.728 572.689 229.84 586.957 272.042C598.631 309.7 620.683 399.299 624.574 414.881C605.766 418.777 586.309 422.672 585.66 423.321C573.986 425.269 565.554 435.008 564.257 446.695ZM291.857 447.344C283.426 447.993 274.994 447.993 267.211 446.695C252.943 405.142 255.537 364.887 274.994 336.969C287.317 319.439 304.18 309.051 320.394 309.051C343.743 309.051 363.849 326.581 366.443 348.007C372.929 405.791 332.717 442.15 291.857 447.344ZM293.154 499.285C326.88 496.039 358.66 480.457 382.009 455.785C409.897 425.918 422.869 385.664 418.329 342.812C413.14 294.117 370.983 257.759 321.043 257.759C293.803 257.759 268.509 268.796 248.403 289.573C221.811 316.842 206.246 359.693 207.543 401.246C207.543 404.493 208.191 408.388 208.191 411.635C193.923 396.701 181.6 373.977 181.6 373.977C162.143 337.618 159.549 298.662 174.466 262.303C190.031 224.646 222.46 192.183 261.374 176.6C298.991 161.667 339.203 162.316 375.523 178.548C529.234 247.37 474.106 407.739 398.871 580.444C385.251 575.899 372.28 570.705 361.903 565.511C352.823 560.316 344.391 555.122 337.257 548.63C337.257 548.63 330.771 543.436 327.529 540.189C314.557 528.502 303.531 514.868 293.154 499.285Z" fill="#F5FAFB"/>
</svg>
