<svg width="395" height="432" viewBox="0 0 395 432" fill="none" xmlns="http://www.w3.org/2000/svg">
<g clip-path="url(#clip0_13_3779)">
<path d="M151.363 166.106C150.863 166.506 150.363 167.006 149.863 167.306C149.063 167.706 148.163 168.006 147.363 168.306C147.163 167.406 146.763 166.406 146.863 165.506C147.063 163.906 147.563 162.306 147.963 160.606C151.263 145.306 154.963 130.106 157.663 114.706C159.463 104.406 159.263 93.7055 160.963 83.4055C164.163 64.7055 168.063 46.1055 171.663 27.5055C171.863 26.5055 172.063 25.6055 171.563 24.2055C170.763 25.6055 169.963 27.0055 169.263 28.4055C161.063 44.8055 155.163 62.2055 149.763 79.7055C144.263 97.7055 139.063 115.806 136.963 134.606C134.063 160.006 137.163 184.206 152.463 205.706C164.563 222.706 177.663 238.806 192.563 253.406C195.063 255.806 197.463 258.406 199.663 261.106C200.263 261.906 200.263 263.206 200.563 264.306C199.363 264.606 198.063 265.206 196.963 265.006C195.063 264.606 193.163 263.706 191.463 262.806C179.363 256.706 168.363 248.806 158.563 239.506C157.563 238.606 156.563 237.706 155.563 236.806C155.463 236.706 155.263 236.806 155.663 236.806C158.263 242.106 160.863 247.706 163.863 253.106C164.563 254.406 166.163 255.406 167.563 256.306C170.563 258.306 173.663 260.206 176.763 262.106C176.663 262.506 176.563 262.806 176.463 263.206C175.463 263.306 174.463 263.606 173.563 263.406C171.763 262.906 170.163 262.206 168.463 261.506C164.363 259.906 164.363 259.906 163.663 264.406C161.663 276.206 157.463 287.206 151.063 297.306C145.563 306.106 138.163 313.006 129.463 318.506C120.063 324.406 110.463 330.106 101.063 336.306C94.7628 340.406 88.6628 344.806 82.9628 349.606C69.0628 361.406 54.1628 371.706 38.8628 381.506C32.1628 385.806 25.4628 390.306 19.1628 395.106C6.96285 404.606 1.36285 417.306 2.06285 432.706C2.06285 433.706 1.86285 434.706 1.26285 435.706C-0.637155 430.906 -0.0371546 426.106 0.762845 421.306C2.46285 411.006 7.46285 402.506 15.4628 395.906C20.8628 391.406 26.4628 387.306 32.3628 383.506C50.6628 371.806 68.2628 359.406 85.0628 345.606C94.9628 337.506 106.263 331.206 116.863 324.106C119.663 322.306 122.463 320.606 125.363 318.906C147.063 306.306 157.663 286.606 161.763 262.606C162.263 259.806 161.463 258.506 159.063 257.106C147.763 250.406 136.063 244.206 125.563 236.306C96.6628 214.606 77.3628 186.606 71.1628 150.306C68.1628 132.506 68.5628 114.706 70.7628 97.0055C72.3628 84.3055 74.5628 71.7055 77.2628 59.2055C79.4628 49.2055 83.6628 39.9055 89.9628 31.7055C98.2628 20.8055 109.263 15.8055 123.063 16.8055C125.263 17.0055 127.663 16.4055 129.863 16.1055C133.163 15.7055 136.463 14.7055 139.663 14.8055C146.463 15.0055 150.063 19.3055 149.063 26.1055C148.463 30.2055 147.463 34.3055 146.263 38.2055C141.263 54.4055 135.463 70.4055 131.063 86.8055C124.563 111.106 122.063 135.906 123.463 161.106C124.363 176.406 127.863 191.106 134.963 204.806C147.963 230.006 167.563 248.806 192.863 261.406C194.263 262.106 195.863 262.606 197.863 262.306C195.963 260.306 194.263 258.206 192.263 256.206C178.763 242.806 166.163 228.606 154.663 213.506C137.463 190.706 130.763 164.906 134.363 136.806C139.163 99.7055 150.763 64.5055 165.863 30.4055C167.363 26.9055 169.563 23.7055 171.563 20.4055C171.963 19.8055 172.863 19.6055 173.563 19.2055C173.963 20.0055 174.763 21.0055 174.663 21.7055C174.263 24.7055 173.563 27.6055 172.863 30.5055C166.063 56.5055 162.063 83.0055 160.063 109.806C158.763 127.006 154.263 143.606 149.863 160.206C149.663 161.106 149.463 162.006 150.063 163.306C153.663 155.306 157.363 147.306 160.863 139.206C172.163 112.706 179.463 85.1055 185.963 57.1055C187.463 50.6055 189.063 44.1055 190.963 37.8055C191.963 34.3055 193.463 30.9055 195.363 27.8055C199.163 21.5055 206.363 18.6055 213.463 20.0055C218.163 20.9055 220.963 24.0055 220.463 28.8055C220.063 32.6055 219.063 36.3055 217.763 39.9055C214.963 47.9055 211.563 55.7055 209.063 63.8055C205.663 74.9055 202.363 86.2055 200.263 97.6055C197.363 113.106 191.063 126.706 180.963 138.706C180.263 139.606 179.463 140.506 179.163 141.906C180.363 141.206 181.563 140.506 182.663 139.706C199.163 127.406 212.563 112.506 218.463 92.3055C220.863 84.3055 221.963 76.0055 223.863 67.9055C226.463 56.5055 230.463 45.5055 235.863 35.2055C236.963 33.1055 238.063 31.0055 239.563 29.3055C240.663 28.0055 242.363 27.3055 243.863 26.4055C244.663 27.9055 245.963 29.3055 246.263 30.9055C246.763 33.5055 246.863 36.2055 246.563 38.9055C245.663 48.7055 244.463 58.4055 243.463 68.2055C243.363 69.2055 243.263 70.2055 243.163 72.2055C245.163 70.0055 246.363 68.3055 247.963 67.1055C249.163 66.2055 250.763 65.8055 252.163 65.3055C252.363 66.7055 252.863 68.2055 252.663 69.5055C251.963 72.8055 251.063 76.0055 250.063 79.1055C241.663 105.506 235.063 132.306 231.863 159.906C229.963 176.106 229.263 192.406 230.563 208.806C230.963 214.606 230.963 220.406 231.763 226.106C233.363 238.306 236.663 250.006 243.963 260.206C241.463 253.006 238.363 246.006 236.563 238.706C235.063 232.706 234.363 226.306 234.763 220.106C237.263 187.406 243.963 155.206 249.163 122.906C252.263 103.806 256.263 84.9055 259.463 65.9055C261.363 54.3055 262.663 42.5055 263.963 30.7055C264.463 25.8055 264.063 25.8055 259.263 24.2055C248.963 21.0055 238.363 20.1055 227.663 19.8055C225.863 19.7055 223.963 20.0055 222.163 19.7055C220.563 19.5055 218.963 18.7055 217.463 18.2055C218.963 17.3055 220.263 15.9055 221.863 15.5055C226.363 14.4055 230.863 13.6055 235.463 12.0055C228.463 12.0055 221.463 11.7055 214.563 12.1055C196.263 13.0055 177.963 14.2055 159.663 15.4055C159.363 15.4055 158.963 15.5055 158.663 15.4055C157.463 15.1055 156.263 14.8055 155.063 14.5055C156.063 13.6055 156.963 12.2055 158.063 11.8055C163.263 10.0055 168.463 8.30552 173.763 7.00552C210.163 -1.69448 246.663 -2.29448 283.263 5.50552C304.363 10.0055 321.763 21.1055 335.563 37.6055C349.063 53.8055 352.863 72.1055 346.263 92.3055C345.363 94.9055 344.063 97.6055 342.363 99.8055C340.163 102.806 337.563 102.206 336.763 98.6055C335.963 95.1055 335.663 91.4055 335.363 87.7055C333.163 54.6055 314.863 33.8055 284.963 22.2055C277.763 19.4055 270.063 17.7055 261.763 15.2055C263.463 18.6055 264.463 21.2055 265.863 23.4055C266.563 24.5055 268.163 25.3055 269.463 25.9055C297.263 38.6055 316.563 59.7055 329.763 86.8055C334.263 96.1055 336.063 106.006 334.363 116.406C333.663 120.606 334.763 124.106 337.663 127.406C344.663 135.206 351.563 143.206 358.163 151.306C361.163 155.006 363.763 159.206 365.763 163.506C367.963 168.506 366.863 171.506 362.563 174.906C359.863 177.006 356.763 178.806 353.763 180.606C349.963 182.906 349.463 184.706 352.063 188.206C352.463 188.706 352.863 189.206 353.363 189.706C359.363 197.006 359.363 197.706 354.463 205.906C353.763 207.106 353.363 209.106 353.863 210.306C356.263 215.406 355.163 220.206 352.563 224.606C350.063 228.806 349.163 232.606 350.163 237.706C352.363 248.906 342.363 260.406 330.463 260.606C322.663 260.706 314.763 259.906 307.163 258.206C299.363 256.406 292.963 258.306 287.163 262.806C282.863 266.106 278.663 269.906 275.363 274.206C269.763 281.606 269.163 290.206 271.663 299.006C273.063 304.006 275.563 306.506 280.863 308.406C280.763 307.206 280.863 306.106 280.563 305.106C278.863 299.406 277.063 293.606 275.363 287.906C274.863 286.206 274.163 284.406 273.963 282.606C273.563 278.706 275.563 277.006 279.363 277.806C280.763 278.106 282.263 278.606 283.563 279.306C292.363 284.106 301.963 285.806 311.763 287.506C328.763 290.406 345.163 295.406 360.363 303.706C367.463 307.606 374.163 312.406 380.263 317.806C391.163 327.306 396.663 339.906 397.363 354.406C397.963 369.206 398.363 384.006 398.763 398.906C398.763 399.406 398.563 399.806 397.463 400.506C397.063 398.406 396.463 396.406 396.363 394.306C395.963 384.506 395.863 374.606 395.463 364.806C395.263 359.306 395.063 353.806 394.363 348.406C393.063 337.206 387.663 327.906 379.763 320.106C369.763 310.206 357.563 303.806 344.463 298.906C332.163 294.306 319.463 290.706 306.363 288.806C298.263 287.706 290.463 285.306 283.063 281.606C281.063 280.606 278.463 280.806 276.163 280.506C276.463 282.706 276.563 285.006 277.163 287.106C278.763 292.906 280.763 298.506 282.363 304.306C283.863 309.806 283.763 310.006 289.363 309.206C300.763 307.606 311.963 308.206 322.963 311.706C332.263 314.606 340.963 318.706 348.563 324.906C351.163 327.106 354.663 329.406 353.763 333.306C352.863 337.106 348.963 338.106 345.563 339.006C331.563 343.006 317.563 343.006 303.763 338.306C292.463 334.406 284.563 327.106 282.563 314.706C282.163 312.506 281.463 310.906 278.963 310.006C273.463 308.106 270.563 303.606 269.163 298.206C266.763 288.806 268.263 280.006 274.063 272.106C278.263 266.306 283.763 262.006 289.863 258.506C290.963 257.906 292.063 257.306 294.063 256.206C289.263 255.206 285.463 254.506 281.563 253.606C279.163 253.106 276.663 252.506 274.263 251.906C254.163 246.506 242.263 231.406 241.963 210.506C241.763 195.506 246.063 181.906 254.963 169.806C257.363 166.606 260.163 163.706 263.263 161.206C270.763 155.306 277.563 155.706 284.163 162.506C287.363 165.806 290.363 169.606 292.363 173.706C295.863 180.706 298.763 188.006 301.463 195.306C306.163 208.106 307.263 221.506 307.863 235.006C308.063 239.006 305.163 248.006 301.363 255.706C311.263 256.606 320.863 258.006 330.363 258.206C338.263 258.406 345.063 252.506 347.263 244.906C347.863 242.806 348.263 240.106 347.463 238.106C345.663 233.506 346.863 229.706 349.063 225.806C350.463 223.406 351.763 220.806 352.363 218.106C352.863 215.906 352.263 213.406 352.163 211.006C351.663 211.006 351.063 211.006 350.563 211.006C350.563 212.606 350.363 214.306 350.563 215.906C350.963 218.706 349.863 220.106 346.963 219.806C343.163 219.406 339.363 219.006 335.563 218.506C334.763 218.406 333.563 217.606 333.363 216.906C333.163 216.306 333.963 214.906 334.663 214.606C340.163 212.406 343.663 206.706 350.363 206.306C353.463 206.106 356.363 197.906 354.863 195.006C352.763 190.906 348.163 188.406 347.763 183.206C347.763 183.006 347.263 182.806 346.963 182.606C342.063 178.806 341.663 174.706 345.763 169.106C346.963 171.506 348.063 173.806 349.463 176.006C350.963 178.306 352.963 179.006 355.363 177.106C356.263 176.406 357.363 175.906 358.263 175.206C365.263 170.306 366.163 166.706 361.763 159.306C360.063 156.506 357.963 153.806 355.863 151.306C349.663 143.906 343.463 136.406 336.963 129.306C332.563 124.506 330.963 119.506 332.763 113.306C332.963 112.506 332.963 111.706 333.063 110.406C328.863 113.806 324.863 116.906 321.063 120.106C318.763 122.006 319.763 124.706 319.763 127.106C319.663 130.206 321.263 131.506 324.063 132.106C325.563 132.406 326.863 133.406 328.263 134.106C328.263 134.606 328.163 135.106 328.163 135.506C323.163 136.706 318.163 137.906 313.163 139.106C312.963 138.706 312.763 138.406 312.563 138.006C314.263 136.506 315.863 135.006 318.363 132.606C313.063 131.706 308.663 131.106 304.363 130.206C303.063 129.906 301.963 128.906 300.763 128.206C301.763 127.306 302.663 126.006 303.963 125.406C306.763 124.006 309.863 123.006 312.663 121.606C316.263 119.706 319.063 116.806 320.563 112.906C322.063 109.006 321.063 106.106 317.063 105.106C313.763 104.306 309.963 104.006 306.863 104.906C301.863 106.406 297.163 109.106 292.263 111.306C290.763 112.006 289.063 112.306 287.563 112.706C288.063 111.006 288.263 109.206 289.163 107.706C297.363 94.7055 317.063 87.5055 331.563 100.206C331.463 77.9055 292.563 33.9055 266.963 27.0055C265.563 37.8055 264.363 48.7055 262.563 59.5055C259.263 79.2055 255.363 98.8055 252.063 118.506C247.463 146.106 242.863 173.706 238.663 201.406C236.863 213.406 235.763 225.606 238.763 237.506C240.763 245.506 244.163 253.206 247.063 261.006C247.763 262.906 248.563 264.706 249.163 266.606C249.363 267.106 249.063 268.106 248.663 268.306C248.263 268.506 247.263 268.306 246.963 268.006C245.763 266.806 244.663 265.606 243.763 264.206C236.863 253.506 231.963 242.006 229.963 229.206C226.963 210.006 227.663 190.706 228.863 171.506C230.963 139.106 238.963 107.806 248.563 76.9055C249.463 73.9055 250.263 71.0055 250.663 67.8055C246.463 72.1055 242.463 76.3055 241.163 82.6055C238.063 98.6055 232.263 113.606 222.263 126.706C221.263 128.006 220.663 129.606 220.263 131.206C213.563 156.806 212.663 182.606 218.863 208.306C221.063 217.406 224.663 226.306 228.063 235.106C231.563 244.306 235.563 253.206 239.163 262.406C240.263 265.106 241.863 268.406 238.863 270.706C236.063 272.806 233.063 270.906 230.463 269.506C222.763 265.206 217.263 258.906 212.963 251.406C211.463 248.806 210.263 246.106 208.863 243.406C208.063 244.606 207.163 245.806 206.363 247.006C205.263 246.006 203.963 245.206 203.263 244.006C199.463 237.106 195.763 230.306 192.363 223.206C191.163 220.706 189.763 219.606 187.163 219.506C172.063 218.706 161.963 210.506 154.963 197.706C154.263 196.406 153.563 195.106 152.763 193.806C147.863 184.806 146.363 175.706 151.363 166.106C152.363 165.206 153.263 164.306 154.163 163.306C160.463 156.906 167.363 153.306 176.563 157.506C180.163 159.206 184.163 158.906 187.763 157.406C191.163 155.906 194.363 155.106 196.963 159.106C198.263 157.206 199.163 155.806 200.063 154.406C205.563 146.306 211.163 138.206 216.663 130.006C218.063 127.806 219.463 125.506 220.263 123.006C224.763 108.106 230.663 93.9055 238.463 80.4055C239.463 78.7055 240.263 76.8055 240.563 74.9055C242.163 62.3055 243.563 49.8055 244.863 37.2055C245.163 34.4055 244.463 31.4055 244.263 28.6055C243.863 28.5055 243.363 28.4055 242.963 28.3055C241.563 30.4055 239.963 32.5055 238.763 34.7055C230.763 49.2055 226.263 64.8055 223.563 81.0055C218.363 111.706 199.463 132.106 174.063 147.706C173.063 148.306 171.863 148.406 170.763 148.806C170.563 148.506 170.363 148.106 170.163 147.806C171.363 146.506 172.563 145.206 173.763 144.006C184.863 132.606 194.063 119.906 197.063 104.006C201.163 82.1055 207.563 61.0055 215.863 40.4055C217.163 37.2055 218.163 33.8055 218.863 30.4055C219.863 25.3055 217.763 22.3055 212.563 21.8055C206.563 21.2055 201.263 23.0055 197.863 28.4055C196.163 31.2055 194.663 34.3055 193.763 37.5055C191.563 45.2055 189.563 52.9055 187.763 60.7055C180.263 93.2055 170.863 125.106 156.563 155.406C154.663 158.906 153.063 162.506 151.363 166.106ZM243.963 208.006C244.563 212.106 244.563 216.406 245.763 220.306C249.463 232.406 254.763 243.606 268.163 247.506C277.263 250.106 286.663 251.806 295.863 253.906C298.163 254.406 299.863 253.606 300.963 251.706C302.163 249.506 303.663 247.306 303.963 244.906C304.763 239.206 305.463 233.306 305.263 227.606C305.063 222.006 303.763 216.406 303.063 210.806C301.263 196.906 296.563 184.006 289.463 172.006C287.363 168.506 284.563 165.206 281.563 162.406C276.863 158.106 271.663 157.606 266.463 161.306C262.763 164.006 259.263 167.306 256.563 171.006C248.563 182.006 244.563 194.406 243.963 208.006ZM161.563 255.206C160.363 254.306 159.263 253.406 158.063 252.606C142.763 241.606 129.563 228.606 120.263 212.006C108.963 191.706 99.2628 170.706 93.6628 148.106C87.2628 122.406 87.3628 97.0055 96.9628 72.0055C100.963 61.6055 104.763 51.1055 108.763 40.7055C111.763 32.6055 114.463 24.3055 122.463 19.2055C120.563 18.8055 118.963 18.7055 117.363 18.8055C105.263 19.6055 96.3628 25.7055 89.8628 35.5055C85.1628 42.6055 81.8628 50.5055 79.6628 58.7055C73.3628 81.9055 71.0628 105.506 71.4628 129.406C72.1628 168.206 87.3628 200.306 116.363 226.006C119.963 229.206 124.163 231.606 127.863 234.806C137.963 243.306 149.363 249.706 161.563 255.206ZM132.063 17.3055C131.963 17.7055 131.963 18.0055 131.863 18.4055C132.363 18.8055 132.863 19.2055 133.363 19.6055C139.663 24.1055 141.163 28.4055 138.163 35.5055C136.263 40.1055 133.663 44.4055 131.163 48.7055C127.663 54.8055 123.763 60.6055 120.663 66.8055C109.063 89.9055 104.963 114.706 105.263 140.406C105.363 157.206 107.963 173.506 113.463 189.406C117.263 200.306 123.263 209.906 131.363 217.906C137.663 224.206 145.463 229.006 152.663 234.506C152.063 232.906 151.063 231.606 150.063 230.406C142.963 222.206 136.563 213.606 132.263 203.506C125.963 188.806 122.063 173.606 121.463 157.606C120.363 127.506 124.863 98.2055 133.863 69.5055C137.263 58.5055 141.263 47.7055 144.663 36.8055C145.863 32.9055 146.863 28.7055 147.263 24.6055C147.663 19.6055 145.463 17.1055 140.463 16.6055C137.563 16.5055 134.763 17.1055 132.063 17.3055ZM338.963 98.7055C339.663 98.9055 340.263 99.0055 340.963 99.2055C342.363 96.1055 344.163 93.1055 345.063 89.9055C350.663 70.9055 346.963 53.6055 334.263 38.4055C321.063 22.6055 304.363 11.8055 284.163 7.40552C248.663 -0.394484 213.063 0.105516 177.563 7.90552C173.163 8.90552 168.863 10.2055 164.563 11.4055C166.963 12.2055 169.063 12.0055 171.263 11.9055C188.363 11.2055 205.563 10.4055 222.663 9.90552C238.763 9.40552 254.563 12.0055 270.163 15.3055C287.963 18.9055 303.963 26.6055 317.063 39.5055C329.963 52.1055 335.963 67.8055 337.563 85.5055C337.963 89.9055 338.463 94.3055 338.963 98.7055ZM108.363 180.906C108.263 180.106 108.063 179.306 107.963 178.506C105.063 166.806 103.463 155.006 103.163 143.006C102.363 109.006 109.463 77.2055 128.763 48.7055C131.363 44.9055 133.563 40.7055 135.563 36.5055C136.663 34.2055 137.363 31.4055 137.263 28.8055C137.063 21.9055 128.863 17.8055 123.163 21.4055C118.663 24.3055 115.663 28.5055 113.763 33.4055C109.163 45.3055 104.663 57.4055 100.063 69.3055C92.3628 89.1055 89.8628 109.506 92.5628 130.606C94.8628 148.206 100.263 164.906 108.363 180.906ZM190.263 217.806C189.363 213.006 188.563 208.806 187.963 204.606C186.063 190.606 186.763 177.106 194.163 164.506C195.063 162.906 196.363 161.006 194.463 159.606C193.263 158.806 191.063 158.706 189.663 159.206C184.763 160.906 179.863 161.406 175.063 159.206C169.963 156.806 165.363 157.806 160.863 160.506C152.063 165.906 148.163 175.306 151.763 185.006C153.863 190.806 157.463 196.206 160.763 201.506C167.463 212.206 177.763 216.806 190.263 217.806ZM217.163 134.206C216.863 134.106 216.663 133.906 216.363 133.806C210.563 142.706 204.663 151.506 198.963 160.406C198.263 161.606 198.563 163.606 198.763 165.206C199.263 170.506 200.163 175.806 200.563 181.106C201.663 196.506 203.263 211.906 206.763 227.106C209.063 237.106 211.863 246.806 217.863 255.206C221.563 260.406 226.063 264.906 231.763 267.906C233.463 268.806 235.763 268.706 237.763 269.106C237.663 267.206 237.963 265.106 237.363 263.406C235.463 258.306 233.263 253.206 230.963 248.206C224.163 233.706 218.863 218.706 215.663 203.006C212.463 187.006 212.063 170.906 213.963 154.806C214.763 147.806 216.063 141.006 217.163 134.206ZM300.063 309.806C296.263 310.106 291.963 310.606 287.563 310.806C284.663 310.906 284.363 312.206 284.963 314.706C286.563 322.506 290.463 328.806 297.463 332.506C313.863 341.206 331.063 341.206 348.263 335.406C352.963 333.806 353.263 331.706 349.963 328.106C348.863 326.906 347.563 325.706 346.263 324.806C332.563 315.006 317.363 309.906 300.063 309.806ZM203.063 225.906C201.163 207.106 198.963 186.506 196.863 166.006C195.363 166.706 194.863 167.406 194.563 168.106C188.163 180.506 188.063 193.706 190.563 207.006C191.363 211.006 192.363 215.306 194.663 218.606C197.063 221.906 200.963 224.206 203.063 225.906ZM322.563 116.806C324.663 115.006 326.863 113.206 328.863 111.306C333.663 106.506 333.463 104.206 328.063 100.106C320.663 94.5055 312.463 94.9055 304.363 97.9055C299.063 99.8055 294.663 103.206 292.063 108.606C293.663 108.206 295.063 107.306 296.563 106.806C301.263 105.206 305.863 102.906 310.663 102.306C320.763 100.906 325.063 106.506 322.563 116.806ZM129.363 220.306C137.663 232.806 147.763 243.306 160.563 251.106C155.263 235.606 140.063 230.106 129.363 220.306ZM263.563 23.0055C260.963 17.0055 257.363 14.3055 250.963 14.5055C242.863 14.7055 234.763 15.6055 226.663 16.3055C225.563 16.4055 224.463 16.9055 223.263 17.3055C236.863 17.3055 249.963 18.6055 263.563 23.0055ZM237.963 86.6055C231.863 97.3055 226.963 108.406 223.963 120.306C231.063 110.106 235.463 98.8055 237.963 86.6055ZM303.963 128.106C307.063 128.606 309.163 128.806 311.263 129.206C317.963 130.706 318.863 131.606 317.563 122.906C317.463 122.506 317.163 122.106 316.963 121.906C312.763 123.906 308.763 125.806 303.963 128.106ZM348.663 209.206C345.263 211.406 342.063 213.506 338.763 215.606C342.163 216.406 345.263 217.206 348.663 218.006C348.663 214.906 348.663 212.306 348.663 209.206ZM204.963 243.006C204.363 233.606 201.363 227.606 196.263 225.706C199.163 231.506 202.063 237.306 204.963 243.006Z" fill="url(#paint0_linear_13_3779)"/>
</g>
<g style="mix-blend-mode:multiply">
<path d="M268.291 159.105C257.891 164.705 250.957 179.772 248.791 186.605L243.291 201.605C243.291 208.105 244.391 223.505 248.791 233.105C253.191 242.705 266.291 248.105 272.291 249.605L299.291 255.105C301.457 251.939 305.791 244.605 305.791 240.605C305.791 235.605 306.791 230.605 305.791 216.605C304.991 205.405 299.457 190.272 296.791 184.105L349.791 182.105C363.291 177.605 368.291 169.605 366.291 164.105C366.291 161.705 358.624 151.772 354.791 147.105C351.791 143.439 344.191 134.505 337.791 128.105C331.391 123.305 333.124 114.105 334.791 110.105C336.291 106.772 336.291 99.2053 324.291 95.6053C312.291 92.0053 297.957 100.439 292.291 105.105C288.624 120.772 278.691 153.505 268.291 159.105Z" fill="white"/>
</g>
<g style="mix-blend-mode:multiply">
<path d="M74.2907 155.105C75.8907 179.905 100.624 211.105 112.791 223.605C116.073 227.105 167.291 262.105 170.791 262.105C174.291 262.105 196.291 263.605 200.291 262.105C203.491 260.905 207.957 247.938 209.791 241.605C214.624 249.938 225.591 267.205 230.791 269.605C235.991 272.005 244.957 268.605 248.791 266.605C244.457 252.272 235.791 237.105 235.791 220.105C235.791 203.105 246.291 148.105 251.791 122.605C314.791 74.1052 335.791 107.605 340.291 100.105C340.291 100.105 352.291 89.6052 349.291 70.1052C346.291 50.6052 335.791 39.1052 335.791 39.1052C317.291 9.10516 269.191 3.00516 248.791 0.605165C223.291 -2.39484 178.291 6.60516 167.291 9.10516C156.291 11.6052 169.291 13.1052 117.791 17.6052C66.2907 22.1052 72.2907 124.105 74.2907 155.105Z" fill="#CEE7ED"/>
</g>
<circle cx="280" cy="153" r="25" fill="#E7F3F6"/>
<circle cx="280.625" cy="152.375" r="6.875" fill="#0B85A6"/>
<circle cx="280.625" cy="152.375" r="10.125" stroke="#0B85A6"/>
<circle cx="312" cy="226" r="25" fill="#E7F3F6"/>
<circle cx="312.625" cy="225.375" r="6.875" fill="#0B85A6"/>
<circle cx="312.625" cy="225.375" r="10.125" stroke="#0B85A6"/>
<g style="mix-blend-mode:multiply">
<path d="M357.791 198.105L353.791 208.105L355.291 217.105L351.791 224.605C350.957 226.439 349.191 230.505 348.791 232.105C348.391 233.705 349.291 239.439 349.791 242.105L347.291 249.605C344.624 252.605 337.991 258.805 332.791 259.605C327.591 260.405 313.624 258.272 307.291 257.105C306.124 257.105 303.191 256.805 300.791 255.605C302.791 254.105 305.791 243.605 306.791 238.605C307.791 233.605 305.791 221.105 305.791 214.105C305.791 208.505 300.124 191.772 297.291 184.105L348.791 182.105L349.291 183.105L355.291 191.105L357.791 198.105Z" fill="white"/>
</g>
<circle cx="195" cy="92" r="25" fill="#E7F3F6"/>
<circle cx="195.625" cy="91.375" r="6.875" fill="#0B85A6"/>
<circle cx="195.625" cy="91.375" r="10.125" stroke="#0B85A6"/>
<defs>
<linearGradient id="paint0_linear_13_3779" x1="0" y1="217.911" x2="398.678" y2="217.911" gradientUnits="userSpaceOnUse">
<stop stop-color="#003067"/>
<stop offset="0.0983319" stop-color="#023C70"/>
<stop offset="0.4492" stop-color="#07648D"/>
<stop offset="0.7286" stop-color="#0A7C9F"/>
<stop offset="0.9" stop-color="#0B85A6"/>
</linearGradient>
<clipPath id="clip0_13_3779">
<rect width="395" height="432" fill="white"/>
</clipPath>
</defs>
</svg>
