<svg width="100" height="100" viewBox="0 0 100 100" fill="none" xmlns="http://www.w3.org/2000/svg">
<rect width="100" height="100" rx="50" fill="url(#paint0_linear_49_3039)"/>
<path d="M80.4771 50.1762C79.3733 45.478 76.8171 36.3752 76.12 34.6721C74.9581 31.7945 73.8543 29.2692 72.3438 26.9201C66.999 18.6982 57.9943 14 47.5371 14C47.1886 14 46.84 14 46.4914 14C33.7105 14.4111 20 22.8679 20 40.4274C20 47.1223 23.3695 52.6427 26.3324 57.5171C27.1457 58.8679 27.4362 60.0424 27.2619 61.3931C27.1457 62.3915 26.9133 64.6819 25.1705 68.3817C24.88 68.969 24.88 69.5563 25.1124 70.1436C27.2619 76.1925 40.9724 86 49.1057 86C49.3962 86 49.6867 86 49.919 85.9413C50.6743 85.8825 51.3133 85.4714 51.72 84.8254C54.5086 80.0098 56.7162 75.7814 58.2267 72.2577C60.6086 72.6101 62.7581 72.845 64.7333 72.845C70.5429 72.845 72.8086 71.2007 73.3895 70.7308C73.8543 70.3197 74.1448 69.7325 74.2029 69.0865L75.1324 56.4013C76.2362 56.1664 78.0371 55.7553 79.0829 55.5791C80.1867 55.3442 81 54.4046 81 53.23C81 52.7602 80.8257 51.7618 80.4771 50.1762ZM70.5429 54.4046L69.6133 67.5008C69.1486 67.6183 67.6962 67.9706 66.4762 68.0881C65.0238 68.2055 63.0486 68.0881 60.0857 67.677L60.4343 66.9135C61.1895 65.093 62.5257 61.7455 62.9324 60.7471C70.2524 43.2463 67.7543 31.5008 55.4962 25.9804C51.081 23.9837 46.201 23.8662 41.6695 25.7455C37.0219 27.6248 33.1295 31.5008 31.3286 36.0816C28.8305 42.3067 30.1667 48.9429 35.0467 54.2871C36.6733 56.1077 38.5324 57.5171 40.5076 58.3393C41.9019 61.4519 43.761 64.0946 45.9686 66.2088L46.0848 66.3263C47.479 67.6183 48.9895 68.7341 50.6743 69.615C51.6619 70.2023 52.7076 70.6721 53.8695 71.0832C52.7076 74.0196 49.8029 79.5987 48.5829 81.6542C42.4829 81.1256 32.3162 74.0196 29.8762 69.4976C31.5029 65.6803 31.7933 63.0375 31.9095 62.0392C32.2 59.6313 31.6771 57.4584 30.2829 55.2268C27.4943 50.5285 24.5895 45.8303 24.5895 40.4274C24.5895 30.385 30.2829 22.633 39.8686 19.7553C49.1638 16.9364 61.9448 19.4029 68.4514 29.5041C69.9619 31.7945 71.2981 34.7896 72.5762 38.6069C73.6219 42.0131 75.5971 50.1175 75.9457 51.5269C74.261 51.8793 72.5181 52.2316 72.46 52.2904C71.4143 52.4666 70.659 53.3475 70.5429 54.4046ZM46.1429 54.4633C45.3876 54.522 44.6324 54.522 43.9352 54.4046C42.6571 50.646 42.8895 47.0049 44.6324 44.4796C45.7362 42.894 47.2467 41.9543 48.699 41.9543C50.7905 41.9543 52.5914 43.54 52.8238 45.478C53.4048 50.7047 49.8029 53.9935 46.1429 54.4633ZM46.259 59.1615C49.28 58.8679 52.1267 57.4584 54.2181 55.2268C56.7162 52.5253 57.8781 48.8842 57.4714 45.0082C57.0067 40.6036 53.2305 37.3148 48.7571 37.3148C46.3171 37.3148 44.0514 38.3132 42.2505 40.1925C39.8686 42.6591 38.4743 46.5351 38.5905 50.2936C38.5905 50.5873 38.6486 50.9396 38.6486 51.2333C37.3705 49.8825 36.2667 47.8271 36.2667 47.8271C34.5238 44.5383 34.2914 41.0147 35.6276 37.7259C37.0219 34.3197 39.9267 31.3834 43.4124 29.9739C46.7819 28.6232 50.3838 28.6819 53.6371 30.1501C67.4057 36.3752 62.4676 50.8809 55.7286 66.5024C54.5086 66.0914 53.3467 65.6215 52.4171 65.1517C51.6038 64.6819 50.8486 64.2121 50.2095 63.6248C50.2095 63.6248 49.6286 63.155 49.3381 62.8613C48.1762 61.8042 47.1886 60.571 46.259 59.1615Z" fill="#F5FAFB"/>
<defs>
<linearGradient id="paint0_linear_49_3039" x1="0" y1="50.0084" x2="99.9786" y2="50.0084" gradientUnits="userSpaceOnUse">
<stop stop-color="#003067"/>
<stop offset="0.0983319" stop-color="#023C70"/>
<stop offset="0.4492" stop-color="#07648D"/>
<stop offset="0.7286" stop-color="#0A7C9F"/>
<stop offset="0.9" stop-color="#0B85A6"/>
</linearGradient>
</defs>
</svg>
