<?xml version="1.0" standalone="no"?>
<!DOCTYPE svg PUBLIC "-//W3C//DTD SVG 20010904//EN"
 "http://www.w3.org/TR/2001/REC-SVG-20010904/DTD/svg10.dtd">
<svg version="1.0" xmlns="http://www.w3.org/2000/svg"
 width="304.000000pt" height="304.000000pt" viewBox="0 0 304.000000 304.000000"
 preserveAspectRatio="xMidYMid meet">
<metadata>
Created by potrace 1.14, written by Peter Selinger 2001-2017
</metadata>
<g transform="translate(0.000000,304.000000) scale(0.100000,-0.100000)"
fill="#000000" stroke="none">
<path d="M1280 3025 c-618 -98 -1113 -568 -1251 -1188 -29 -130 -37 -407 -16
-543 30 -185 97 -380 184 -529 221 -381 577 -641 1011 -738 134 -29 473 -32
602 -3 514 111 911 435 1113 906 90 211 121 387 114 640 -8 248 -48 410 -153
625 -216 440 -650 757 -1134 830 -117 18 -355 18 -470 0z m405 -444 c110 -29
246 -97 332 -165 185 -149 281 -339 398 -791 18 -71 36 -150 40 -175 10 -65
-11 -87 -100 -106 -38 -8 -70 -16 -72 -17 -1 -2 -9 -92 -18 -201 -8 -109 -20
-206 -25 -217 -29 -53 -168 -85 -330 -76 -59 4 -114 9 -122 12 -13 5 -35 -31
-103 -164 -48 -94 -100 -189 -116 -211 -27 -37 -33 -40 -75 -40 -164 0 -448
152 -619 331 -41 44 -85 99 -97 123 l-21 44 20 49 c35 80 53 154 53 212 0 48
-6 67 -41 126 -69 118 -126 237 -150 316 -30 95 -32 275 -5 384 31 121 96 242
177 329 130 139 268 214 464 252 100 19 307 12 410 -15z"/>
<path d="M1335 2470 c-155 -22 -308 -94 -405 -191 -104 -102 -159 -219 -180
-382 -20 -151 11 -266 130 -472 86 -152 97 -191 81 -298 -7 -44 -22 -105 -33
-134 -11 -31 -17 -64 -14 -78 10 -38 133 -152 245 -226 105 -69 227 -124 291
-131 l35 -3 77 154 c43 85 78 158 78 162 0 4 -37 27 -82 50 -107 55 -237 182
-288 280 -27 53 -43 71 -80 92 -64 36 -173 154 -210 227 -107 212 -69 430 105
606 109 111 233 164 379 164 106 -1 153 -12 256 -63 63 -31 103 -60 155 -112
123 -122 161 -232 152 -440 -6 -164 -32 -264 -131 -512 l-74 -182 31 -5 c84
-13 142 -14 199 -5 34 6 64 11 65 13 2 1 10 97 18 212 15 200 16 210 40 231
14 12 44 25 68 28 75 12 74 4 23 204 -55 215 -84 298 -142 411 -81 156 -180
255 -329 326 -132 63 -321 94 -460 74z"/>
<path d="M1334 2137 c-267 -102 -360 -393 -196 -612 l37 -50 6 81 c14 192 144
344 295 344 179 0 291 -142 263 -334 -21 -151 -149 -290 -288 -312 -25 -4 -41
-12 -41 -20 0 -8 30 -45 66 -84 67 -70 174 -136 210 -128 31 6 160 351 194
518 58 286 -16 475 -229 577 -65 32 -86 36 -165 40 -77 3 -100 0 -152 -20z"/>
<path d="M1415 1747 c-61 -35 -97 -101 -103 -191 -2 -42 1 -96 8 -125 l12 -51
44 0 c129 0 234 108 234 240 0 68 -26 115 -75 136 -47 19 -73 18 -120 -9z"/>
</g>
</svg>
