<svg width="14" height="18" viewBox="0 0 14 18" fill="none" xmlns="http://www.w3.org/2000/svg">
<path d="M12.9023 4.431L9.569 1.09766C9.5065 1.03516 9.42187 1 9.33331 1H2.33331C1.59797 1 1 1.59797 1 2.33334V15.6667C1 16.402 1.59797 17 2.33334 17H11.6667C12.402 17 13 16.402 13 15.6667V4.66666C13 4.57813 12.9648 4.4935 12.9023 4.431ZM9.66666 2.13803L11.862 4.33334H10.3333C9.96581 4.33334 9.66666 4.03419 9.66666 3.66669V2.13803V2.13803ZM12.3333 15.6667C12.3333 16.0342 12.0342 16.3333 11.6667 16.3333H2.33334C1.96584 16.3333 1.66669 16.0342 1.66669 15.6667V2.33334C1.66669 1.96584 1.96584 1.66669 2.33334 1.66669H9V3.66669C9 4.40203 9.59797 5 10.3333 5H12.3333V15.6667Z" fill="#003067" stroke="#003067" stroke-width="0.125"/>
<path d="M8.69953 10.7857C8.39094 10.5428 8.09766 10.2932 7.90234 10.0978C7.64844 9.84393 7.42219 9.59784 7.22559 9.36346C7.53225 8.41587 7.66669 7.92728 7.66669 7.66684C7.66669 6.5604 7.26694 6.3335 6.66669 6.3335C6.21062 6.3335 5.66669 6.57046 5.66669 7.69875C5.66669 8.19615 5.93916 8.8 6.47919 9.50181C6.34703 9.90512 6.19175 10.3703 6.01728 10.8947C5.93328 11.1463 5.84216 11.3794 5.74578 11.5949C5.66734 11.6297 5.59116 11.6652 5.51759 11.702C5.25263 11.8345 5.001 11.9536 4.76759 12.0643C3.70313 12.5682 3 12.9016 3 13.5597C3 14.0376 3.51922 14.3335 4 14.3335C4.61978 14.3335 5.55566 13.5057 6.23925 12.1112C6.94888 11.8312 7.83106 11.6238 8.52734 11.494C9.08528 11.923 9.7015 12.3335 10 12.3335C10.8265 12.3335 11 11.8556 11 11.4549C11 10.6668 10.0996 10.6668 9.66666 10.6668C9.53222 10.6668 9.17156 10.7066 8.69953 10.7857ZM4 13.6668C3.80956 13.6668 3.68066 13.577 3.66666 13.5597C3.66666 13.3234 4.37141 12.9894 5.05306 12.6665C5.09634 12.646 5.14031 12.6255 5.18491 12.6043C4.68425 13.3303 4.18913 13.6668 4 13.6668ZM6.33334 7.69875C6.33334 7.00018 6.55016 7.00018 6.66669 7.00018C6.90237 7.00018 7.00003 7.00018 7.00003 7.66684C7.00003 7.80746 6.90628 8.15903 6.73472 8.70787C6.47297 8.30487 6.33334 7.9595 6.33334 7.69875ZM6.58887 11.2814C6.60972 11.2235 6.62991 11.1649 6.64944 11.1057C6.77312 10.7346 6.88447 10.4012 6.98375 10.1011C7.12209 10.2534 7.27119 10.4094 7.43103 10.5692C7.49353 10.6317 7.64847 10.7723 7.85487 10.9484C7.444 11.0379 7.00684 11.1489 6.58887 11.2814ZM10.3333 11.4549C10.3333 11.6047 10.3333 11.6668 10.0241 11.6688C9.93328 11.6493 9.72331 11.5256 9.46419 11.3492C9.55825 11.3387 9.62759 11.3335 9.66666 11.3335C10.1592 11.3335 10.2988 11.3817 10.3333 11.4549Z" fill="#003067" stroke="#003067" stroke-width="0.125"/>
</svg>
