<svg width="88" height="88" viewBox="0 0 88 88" fill="none" xmlns="http://www.w3.org/2000/svg">
<path d="M59.1359 54.5212C58.1959 54.5212 57.4268 55.2903 57.4268 56.2303V68.0233C57.4268 72.7405 53.5983 76.5689 48.8811 76.5689H30.4225C29.4825 76.5689 28.7134 77.338 28.7134 78.2781V81.6792L24.6286 77.5944C24.3722 76.9962 23.7569 76.5689 23.0562 76.5689H11.9639C7.24671 76.5689 3.41826 72.7405 3.41826 68.0233V41.7027C3.41826 36.9855 7.24671 33.157 11.9639 33.157H29.2261C30.1661 33.157 30.9353 32.3879 30.9353 31.4479C30.9353 30.5079 30.1661 29.7388 29.2261 29.7388H11.9639C5.36667 29.7388 0 35.1054 0 41.7027V68.0233C0 74.6205 5.36667 79.9872 11.9639 79.9872H22.2016L29.2261 87.0117C29.5509 87.3365 29.9952 87.5074 30.4396 87.5074C30.6618 87.5074 30.884 87.4732 31.0891 87.3706C31.7215 87.1143 32.1487 86.4819 32.1487 85.7982V79.9872H48.8982C55.4955 79.9872 60.8621 74.6205 60.8621 68.0233V56.2303C60.845 55.2903 60.0759 54.5212 59.1359 54.5212Z" fill="url(#paint0_linear_1_1464)"/>
<path d="M62.6729 0H58.3488C44.6416 0 33.498 11.1435 33.498 24.8337C33.498 38.5238 44.6416 49.6673 58.3317 49.6673H62.6558C64.7922 49.6673 66.9115 49.3939 68.9625 48.864L75.3546 55.2562C75.6794 55.5809 76.1238 55.7518 76.5681 55.7518C76.7903 55.7518 77.0125 55.7176 77.2176 55.6151C77.85 55.3587 78.2773 54.7264 78.2773 54.0427V44.1468C80.9777 41.9591 83.2337 39.1904 84.8061 36.0968C86.6007 32.5931 87.5066 28.7988 87.5066 24.8166C87.5066 11.1435 76.363 0 62.6729 0ZM75.5426 41.9591C75.1154 42.2839 74.859 42.7795 74.859 43.3265V49.9237L70.6716 45.7363C70.3469 45.4116 69.9025 45.2407 69.4581 45.2407C69.2872 45.2407 69.1163 45.2578 68.9625 45.309C66.9286 45.9414 64.8093 46.2491 62.6558 46.2491H58.3317C46.5216 46.2491 36.9163 36.6438 36.9163 24.8337C36.9163 13.0236 46.5216 3.41826 58.3317 3.41826H62.6558C74.483 3.41826 84.0883 13.0236 84.0883 24.8337C84.0883 31.636 80.9777 37.8743 75.5426 41.9591Z" fill="url(#paint1_linear_1_1464)"/>
<path d="M68.1951 18.6979C67.9558 15.1258 65.0674 12.2374 61.4782 11.981C59.4443 11.8443 57.513 12.528 56.0261 13.9123C54.5733 15.2797 53.7188 17.211 53.7188 19.2107C53.7188 20.1507 54.4879 20.9198 55.4279 20.9198C56.3679 20.9198 57.137 20.1507 57.137 19.2107C57.137 18.1339 57.5643 17.1426 58.3505 16.4248C59.1367 15.6898 60.1622 15.3309 61.2218 15.4164C63.1019 15.5531 64.623 17.0571 64.7597 18.9543C64.8965 20.8514 63.6488 22.5435 61.7858 22.9536C60.2818 23.2955 59.2392 24.5944 59.2392 26.1155V30.2175C59.2392 31.1575 60.0084 31.9266 60.9484 31.9266C61.8884 31.9266 62.6575 31.1575 62.6575 30.2175V26.2523C66.127 25.4148 68.4515 22.2529 68.1951 18.6979Z" fill="url(#paint2_linear_1_1464)"/>
<path d="M62.1961 35.7723C61.8713 35.4475 61.444 35.2766 60.9826 35.2766C60.5211 35.2766 60.0938 35.4646 59.7691 35.7723C59.4444 36.097 59.2734 36.5243 59.2734 36.9857C59.2734 37.4301 59.4614 37.8745 59.7691 38.1992C60.0938 38.524 60.5211 38.6949 60.9826 38.6949C61.444 38.6949 61.8713 38.5069 62.1961 38.1992C62.5208 37.8745 62.6917 37.4472 62.6917 36.9857C62.6917 36.5243 62.5037 36.0799 62.1961 35.7723Z" fill="url(#paint3_linear_1_1464)"/>
<path d="M47.0003 52.9829H10.9376C9.99762 52.9829 9.22852 53.752 9.22852 54.692C9.22852 55.6321 9.99762 56.4012 10.9376 56.4012H47.0003C47.9403 56.4012 48.7094 55.6321 48.7094 54.692C48.7094 53.752 47.9403 52.9829 47.0003 52.9829Z" fill="url(#paint4_linear_1_1464)"/>
<path d="M48.2136 63.0498C47.8889 62.7251 47.4616 62.5542 47.0001 62.5542C46.5387 62.5542 46.1114 62.7422 45.7867 63.0498C45.4619 63.3746 45.291 63.8019 45.291 64.2633C45.291 64.7248 45.479 65.1521 45.7867 65.4768C46.1114 65.8015 46.5387 65.9725 47.0001 65.9725C47.4616 65.9725 47.8889 65.7845 48.2136 65.4768C48.5384 65.1521 48.7093 64.7248 48.7093 64.2633C48.7093 63.819 48.5213 63.3746 48.2136 63.0498Z" fill="url(#paint5_linear_1_1464)"/>
<path d="M40.2834 62.5542H10.9376C9.99762 62.5542 9.22852 63.3233 9.22852 64.2633C9.22852 65.2034 9.99762 65.9725 10.9376 65.9725H40.2834C41.2234 65.9725 41.9925 65.2034 41.9925 64.2633C41.9925 63.3233 41.2234 62.5542 40.2834 62.5542Z" fill="url(#paint6_linear_1_1464)"/>
<path d="M35.8909 43.4119H10.9376C9.99762 43.4119 9.22852 44.181 9.22852 45.121C9.22852 46.061 9.99762 46.8301 10.9376 46.8301H35.8909C36.831 46.8301 37.6001 46.061 37.6001 45.121C37.6001 44.181 36.831 43.4119 35.8909 43.4119Z" fill="url(#paint7_linear_1_1464)"/>
<defs>
<linearGradient id="paint0_linear_1_1464" x1="0" y1="58.6279" x2="60.8491" y2="58.6279" gradientUnits="userSpaceOnUse">
<stop stop-color="#003067"/>
<stop offset="0.0983319" stop-color="#023C70"/>
<stop offset="0.4492" stop-color="#07648D"/>
<stop offset="0.7286" stop-color="#0A7C9F"/>
<stop offset="0.9" stop-color="#0B85A6"/>
</linearGradient>
<linearGradient id="paint1_linear_1_1464" x1="33.498" y1="27.8806" x2="87.495" y2="27.8806" gradientUnits="userSpaceOnUse">
<stop stop-color="#003067"/>
<stop offset="0.0983319" stop-color="#023C70"/>
<stop offset="0.4492" stop-color="#07648D"/>
<stop offset="0.7286" stop-color="#0A7C9F"/>
<stop offset="0.9" stop-color="#0B85A6"/>
</linearGradient>
<linearGradient id="paint2_linear_1_1464" x1="53.7188" y1="21.9469" x2="68.2113" y2="21.9469" gradientUnits="userSpaceOnUse">
<stop stop-color="#003067"/>
<stop offset="0.0983319" stop-color="#023C70"/>
<stop offset="0.4492" stop-color="#07648D"/>
<stop offset="0.7286" stop-color="#0A7C9F"/>
<stop offset="0.9" stop-color="#0B85A6"/>
</linearGradient>
<linearGradient id="paint3_linear_1_1464" x1="59.2734" y1="36.986" x2="62.691" y2="36.986" gradientUnits="userSpaceOnUse">
<stop stop-color="#003067"/>
<stop offset="0.0983319" stop-color="#023C70"/>
<stop offset="0.4492" stop-color="#07648D"/>
<stop offset="0.7286" stop-color="#0A7C9F"/>
<stop offset="0.9" stop-color="#0B85A6"/>
</linearGradient>
<linearGradient id="paint4_linear_1_1464" x1="9.22852" y1="54.6923" x2="48.701" y2="54.6923" gradientUnits="userSpaceOnUse">
<stop stop-color="#003067"/>
<stop offset="0.0983319" stop-color="#023C70"/>
<stop offset="0.4492" stop-color="#07648D"/>
<stop offset="0.7286" stop-color="#0A7C9F"/>
<stop offset="0.9" stop-color="#0B85A6"/>
</linearGradient>
<linearGradient id="paint5_linear_1_1464" x1="45.291" y1="64.2636" x2="48.7085" y2="64.2636" gradientUnits="userSpaceOnUse">
<stop stop-color="#003067"/>
<stop offset="0.0983319" stop-color="#023C70"/>
<stop offset="0.4492" stop-color="#07648D"/>
<stop offset="0.7286" stop-color="#0A7C9F"/>
<stop offset="0.9" stop-color="#0B85A6"/>
</linearGradient>
<linearGradient id="paint6_linear_1_1464" x1="9.22852" y1="64.2636" x2="41.9855" y2="64.2636" gradientUnits="userSpaceOnUse">
<stop stop-color="#003067"/>
<stop offset="0.0983319" stop-color="#023C70"/>
<stop offset="0.4492" stop-color="#07648D"/>
<stop offset="0.7286" stop-color="#0A7C9F"/>
<stop offset="0.9" stop-color="#0B85A6"/>
</linearGradient>
<linearGradient id="paint7_linear_1_1464" x1="9.22852" y1="45.1213" x2="37.594" y2="45.1213" gradientUnits="userSpaceOnUse">
<stop stop-color="#003067"/>
<stop offset="0.0983319" stop-color="#023C70"/>
<stop offset="0.4492" stop-color="#07648D"/>
<stop offset="0.7286" stop-color="#0A7C9F"/>
<stop offset="0.9" stop-color="#0B85A6"/>
</linearGradient>
</defs>
</svg>
