<svg width="14" height="18" viewBox="0 0 14 18" fill="none" xmlns="http://www.w3.org/2000/svg">
<path d="M12.9023 4.431L9.569 1.09766C9.5065 1.03516 9.42188 1 9.33331 1H2.33331C1.59797 1 1 1.59797 1 2.33334V15.6667C1 16.402 1.59797 17 2.33334 17H11.6667C12.402 17 13 16.402 13 15.6667V4.66666C13 4.57812 12.9648 4.4935 12.9023 4.431ZM9.66666 2.13803L11.862 4.33334H10.3333C9.96581 4.33334 9.66666 4.03419 9.66666 3.66669V2.13803ZM12.3333 15.6667C12.3333 16.0342 12.0342 16.3333 11.6667 16.3333H2.33334C1.96584 16.3333 1.66669 16.0342 1.66669 15.6667V2.33334C1.66669 1.96584 1.96584 1.66669 2.33334 1.66669H9V3.66669C9 4.40203 9.59797 5 10.3333 5H12.3333V15.6667Z" fill="#003067"/>
<path d="M8.69953 10.7855C8.39094 10.5426 8.09766 10.293 7.90234 10.0977C7.64844 9.84375 7.42219 9.59766 7.22559 9.36328C7.53225 8.41569 7.66669 7.92709 7.66669 7.66666C7.66669 6.56022 7.26694 6.33331 6.66669 6.33331C6.21062 6.33331 5.66669 6.57028 5.66669 7.69856C5.66669 8.19597 5.93916 8.79981 6.47919 9.50163C6.34703 9.90494 6.19175 10.3701 6.01728 10.8945C5.93328 11.1462 5.84216 11.3792 5.74578 11.5947C5.66734 11.6296 5.59116 11.665 5.51759 11.7018C5.25262 11.8343 5.001 11.9534 4.76759 12.0641C3.70313 12.568 3 12.9014 3 13.5596C3 14.0374 3.51922 14.3333 4 14.3333C4.61978 14.3333 5.55566 13.5055 6.23925 12.111C6.94888 11.831 7.83106 11.6237 8.52734 11.4938C9.08528 11.9228 9.7015 12.3333 10 12.3333C10.8265 12.3333 11 11.8554 11 11.4547C11 10.6666 10.0996 10.6666 9.66666 10.6666C9.53222 10.6667 9.17156 10.7064 8.69953 10.7855ZM4 13.6667C3.80956 13.6667 3.68066 13.5768 3.66666 13.5596C3.66666 13.3232 4.37141 12.9892 5.05306 12.6663C5.09634 12.6458 5.14031 12.6253 5.18491 12.6042C4.68425 13.3301 4.18913 13.6667 4 13.6667ZM6.33334 7.69856C6.33334 7 6.55016 7 6.66669 7C6.90237 7 7.00003 7 7.00003 7.66666C7.00003 7.80728 6.90628 8.15884 6.73472 8.70769C6.47297 8.30469 6.33334 7.95931 6.33334 7.69856ZM6.58887 11.2812C6.60972 11.2233 6.62991 11.1647 6.64944 11.1055C6.77312 10.7344 6.88447 10.401 6.98375 10.1009C7.12209 10.2533 7.27119 10.4092 7.43103 10.569C7.49353 10.6315 7.64847 10.7721 7.85487 10.9482C7.444 11.0378 7.00684 11.1487 6.58887 11.2812ZM10.3333 11.4548C10.3333 11.6045 10.3333 11.6667 10.0241 11.6686C9.93328 11.6491 9.72331 11.5254 9.46419 11.349C9.55825 11.3386 9.62759 11.3333 9.66666 11.3333C10.1592 11.3333 10.2988 11.3815 10.3333 11.4548Z" fill="#003067"/>
</svg>
