<svg width="81" height="83" viewBox="0 0 81 83" fill="none" xmlns="http://www.w3.org/2000/svg">
<path d="M43.2692 51.6802L37.8424 48.9668C37.1641 48.6276 36.35 48.899 36.0278 49.5773L33.3145 55.0041L35.7395 56.2251L36.9266 53.8679C37.9102 56.8017 39.3009 59.6847 41.5564 61.7706C44.3715 64.3822 47.9158 65.7559 51.3415 67.0956C52.0029 67.35 52.6643 67.6044 53.3087 67.8757C56.7682 69.2833 60.3635 70.623 63.9587 71.8271L64.8236 69.2494C61.2623 68.0453 57.7349 66.7395 54.3262 65.3489C53.6648 65.0775 53.0034 64.8232 52.3251 64.5518C49.1369 63.3138 45.8299 62.025 43.4048 59.7695C41.5224 58.0227 40.3184 55.4281 39.4365 52.7825L42.0821 54.1053L43.2692 51.6802Z" fill="url(#paint0_linear_1_1489)"/>
<path d="M78.3724 38.9951C77.7958 38.3677 77.1175 37.6893 76.3883 36.9601C73.217 33.8058 69.2656 29.8883 70.8937 26.2931C71.0972 25.8183 71.4024 25.3604 71.7246 24.8686C72.1147 24.2581 72.5047 23.6476 72.81 22.9183C74.5906 18.6448 71.5042 13.218 69.2656 9.24967C68.9434 8.69003 68.6551 8.16432 68.3838 7.67252C66.9593 5.04393 65.5856 2.72059 64.1611 0.600764C63.8728 0.176798 63.381 -0.0436646 62.8553 0.00721133C62.3465 0.0750459 61.9225 0.414219 61.753 0.906019C61.6512 1.21127 51.2216 30.3632 27.4626 35.4508C26.8351 33.704 24.9866 29.8375 20.9844 29.8375C18.0675 29.8375 15.6763 32.2625 14.8114 34.6707C14.6079 35.2473 14.4723 35.8408 14.4044 36.4344C14.0992 39.2325 15.3372 45.5242 18.271 48.5937C19.2885 49.9334 24.1217 56.8865 21.8832 64.7383C19.2885 73.8451 14.0483 80.476 13.9805 80.5438L16.1003 82.2397C16.3208 81.9514 21.7306 75.134 24.4779 65.4845C26.2246 59.3964 24.3761 53.9187 22.5955 50.4422C23.3925 50.4253 24.1048 50.2217 24.6983 49.7808C26.3603 48.5937 26.4112 46.3552 26.4112 46.1178H23.6978C23.6978 46.2873 23.596 47.237 23.1212 47.5932C22.6802 47.8984 21.8662 47.6949 21.4084 47.5592C21.0183 47.4236 20.6452 47.1522 20.2891 46.7791C20.2212 46.6943 20.1704 46.6435 20.1534 46.6096L20.1365 46.6265C18.2032 44.4558 16.8126 39.3682 17.1009 36.7396C17.1348 36.3496 17.2365 35.9595 17.3722 35.5864C17.8979 34.0941 19.4072 32.5508 20.9844 32.5508C23.6299 32.5508 24.834 36.0613 25.0545 36.8075V37.0449C25.0545 37.4519 25.224 37.825 25.5293 38.0794C25.8346 38.3337 26.2416 38.4524 26.6316 38.3846C48.7966 34.518 60.074 11.997 63.3131 4.31471C64.195 5.75619 65.0768 7.28247 65.9757 8.96137C66.247 9.45317 66.5522 9.99585 66.8745 10.5894C68.7399 13.8794 71.555 18.8313 70.2831 21.8839C70.0796 22.3926 69.7574 22.8844 69.4183 23.4271C69.0621 23.9867 68.689 24.5633 68.4007 25.2077C66.0265 30.5158 70.9106 35.366 74.4719 38.9103C75.1672 39.6056 75.8117 40.2501 76.3713 40.8436C76.9479 41.488 77.321 42.2512 77.4058 42.9974C77.6093 44.8289 76.5578 46.5248 74.8111 47.1014C73.5053 47.5423 72.6065 48.7124 72.5217 50.0691L71.0633 54.7158C71.0633 54.7327 71.0633 54.7497 71.0633 54.7667L65.2464 57.09C64.7716 57.2765 64.4494 57.7005 64.3985 58.2093C64.3476 58.718 64.585 59.1929 64.9921 59.4812L70.6902 63.2629C70.0288 64.45 69.7235 65.8237 69.8592 67.1804C69.8761 67.3161 69.9101 67.4348 69.944 67.5535C70.6902 69.385 70.8089 69.6903 70.8258 69.7242C71.589 71.6066 71.1141 74.0147 69.7066 75.3544C67.6206 77.3386 64.1441 76.8129 60.7015 75.965C51.7474 73.7434 35.8232 68.4014 29.8538 57.7005L27.4795 59.0233C30.9052 65.1623 37.1799 69.6055 43.7259 72.8106L41.3687 81.0526L43.9803 81.7987L46.2188 73.9638C51.2556 76.1685 56.2414 77.6608 60.0401 78.6105C61.3629 78.9327 63.4149 79.4584 65.5686 79.4584C67.6715 79.4584 69.8761 78.9666 71.572 77.3386C73.7766 75.2357 74.5059 71.6236 73.3357 68.7067L72.5387 66.7395C72.4878 65.8746 72.7252 65.0266 73.2 64.2974L74.2854 62.6694C74.9807 61.6179 74.845 60.2104 73.9801 59.5151L74.5398 58.4128C75.0485 57.4122 74.845 56.2081 74.048 55.4111L73.7766 55.1737L75.1842 50.7135C75.2181 50.5779 75.252 50.4422 75.252 50.3065C75.252 50.0182 75.4386 49.7808 75.693 49.6791C78.6438 48.6955 80.4753 45.8295 80.1192 42.6921C79.9496 41.3354 79.356 40.0635 78.3724 38.9951ZM71.5381 58.2771C71.182 59.0063 71.182 59.8373 71.5211 60.5496L68.6382 58.6332L72.0468 57.2765L71.5381 58.2771Z" fill="url(#paint1_linear_1_1489)"/>
<path d="M23.6987 2.58496L22.6303 0.092041C21.8333 0.431214 2.92438 8.72399 0.126203 25.53C-0.518225 29.3457 1.41506 36.5192 3.43314 44.0997C4.95942 49.7809 6.51961 55.6485 6.8927 59.7865C8.18156 74.1843 4.41674 80.5947 4.38282 80.6625L6.6892 82.0871C6.85878 81.7988 10.9797 74.9644 9.60608 59.549C9.21603 55.1737 7.62192 49.1873 6.06173 43.4044C4.19628 36.4344 2.26299 29.21 2.80567 25.9709C5.34946 10.6403 23.5122 2.66975 23.6987 2.58496Z" fill="url(#paint2_linear_1_1489)"/>
<defs>
<linearGradient id="paint0_linear_1_1489" x1="33.3145" y1="60.3259" x2="64.8169" y2="60.3259" gradientUnits="userSpaceOnUse">
<stop stop-color="#003067"/>
<stop offset="0.0983319" stop-color="#023C70"/>
<stop offset="0.4492" stop-color="#07648D"/>
<stop offset="0.7286" stop-color="#0A7C9F"/>
<stop offset="0.9" stop-color="#0B85A6"/>
</linearGradient>
<linearGradient id="paint1_linear_1_1489" x1="13.9805" y1="41.1267" x2="80.1491" y2="41.1267" gradientUnits="userSpaceOnUse">
<stop stop-color="#003067"/>
<stop offset="0.0983319" stop-color="#023C70"/>
<stop offset="0.4492" stop-color="#07648D"/>
<stop offset="0.7286" stop-color="#0A7C9F"/>
<stop offset="0.9" stop-color="#0B85A6"/>
</linearGradient>
<linearGradient id="paint2_linear_1_1489" x1="0" y1="41.0964" x2="23.6936" y2="41.0964" gradientUnits="userSpaceOnUse">
<stop stop-color="#003067"/>
<stop offset="0.0983319" stop-color="#023C70"/>
<stop offset="0.4492" stop-color="#07648D"/>
<stop offset="0.7286" stop-color="#0A7C9F"/>
<stop offset="0.9" stop-color="#0B85A6"/>
</linearGradient>
</defs>
</svg>
