<svg width="70" height="87" viewBox="0 0 70 87" fill="none" xmlns="http://www.w3.org/2000/svg">
<path d="M70 82.65C70 85.0425 68.0312 87 65.625 87H4.375C1.96875 87 0 85.0425 0 82.65V10.15C0 7.7575 1.96875 5.8 4.375 5.8H27.4714C27.4714 2.59187 30.0781 0 33.3047 0H36.6771C39.9036 0 42.5104 2.59187 42.5104 5.8H65.625C68.0312 5.8 70 7.7575 70 10.15V82.65ZM38.9922 4.02375C38.4453 3.31688 37.5885 2.9 36.6953 2.9H33.3229C31.7188 2.9 30.4062 4.205 30.4062 5.8C30.4062 6.03562 30.4427 6.27125 30.4974 6.50688L32.0469 12.7056C32.2474 13.485 31.7734 14.2644 30.9896 14.4638C30.8802 14.5 30.7526 14.5 30.6432 14.5H18.9766C16.5703 14.5 14.6016 16.4575 14.6016 18.85V20.3H55.4167V18.85C55.4167 16.4575 53.4479 14.5 51.0417 14.5H39.375C38.5729 14.5 37.9167 13.8475 37.9167 13.05C37.9167 12.9231 37.9349 12.8144 37.9531 12.7056L39.5026 6.50688C39.7396 5.63688 39.5391 4.7125 38.9922 4.02375ZM13.125 23.2C12.3229 23.2 11.6667 22.5475 11.6667 21.75V18.85C11.6667 18.3606 11.7214 17.8713 11.8125 17.4H8.75V78.3H61.25V17.4H58.1875C58.2786 17.8713 58.3333 18.3606 58.3333 18.85V21.75C58.3333 22.5475 57.6771 23.2 56.875 23.2H13.125ZM67.0833 10.15C67.0833 9.3525 66.4271 8.7 65.625 8.7H41.9635L41.2344 11.6H51.0417C53.3385 11.6 55.4896 12.6694 56.875 14.5H62.7083C63.5104 14.5 64.1667 15.1525 64.1667 15.95V79.75C64.1667 80.5475 63.5104 81.2 62.7083 81.2H7.29166C6.48958 81.2 5.83333 80.5475 5.83333 79.75V15.95C5.83333 15.1525 6.48958 14.5 7.29166 14.5H13.125C14.4922 12.6694 16.6615 11.6 18.9583 11.6H28.7656L28.0365 8.7H4.375C3.57291 8.7 2.91666 9.3525 2.91666 10.15V82.65C2.91666 83.4475 3.57291 84.1 4.375 84.1H65.625C66.4271 84.1 67.0833 83.4475 67.0833 82.65V10.15ZM36.4583 7.25C36.4583 6.4525 35.8021 5.8 35 5.8C34.1979 5.8 33.5417 6.4525 33.5417 7.25C33.5417 8.0475 34.1979 8.7 35 8.7C35.8021 8.7 36.4583 8.0475 36.4583 7.25ZM55.4167 33.35C55.4167 32.5525 54.7604 31.9 53.9583 31.9C53.1562 31.9 52.5 32.5525 52.5 33.35C52.5 34.1475 53.1562 34.8 53.9583 34.8C54.7604 34.8 55.4167 34.1475 55.4167 33.35ZM49.5833 33.35C49.5833 32.5525 48.9271 31.9 48.125 31.9H16.0417C15.2396 31.9 14.5833 32.5525 14.5833 33.35C14.5833 34.1475 15.2396 34.8 16.0417 34.8H48.125C48.9271 34.8 49.5833 34.1475 49.5833 33.35ZM55.4167 42.05C55.4167 41.2525 54.7604 40.6 53.9583 40.6C53.1562 40.6 52.5 41.2525 52.5 42.05C52.5 42.8475 53.1562 43.5 53.9583 43.5C54.7604 43.5 55.4167 42.8475 55.4167 42.05ZM49.5833 42.05C49.5833 41.2525 48.9271 40.6 48.125 40.6H16.0417C15.2396 40.6 14.5833 41.2525 14.5833 42.05C14.5833 42.8475 15.2396 43.5 16.0417 43.5H48.125C48.9271 43.5 49.5833 42.8475 49.5833 42.05ZM55.4167 50.75C55.4167 49.9525 54.7604 49.3 53.9583 49.3C53.1562 49.3 52.5 49.9525 52.5 50.75C52.5 51.5475 53.1562 52.2 53.9583 52.2C54.7604 52.2 55.4167 51.5475 55.4167 50.75ZM49.5833 50.75C49.5833 49.9525 48.9271 49.3 48.125 49.3H16.0417C15.2396 49.3 14.5833 49.9525 14.5833 50.75C14.5833 51.5475 15.2396 52.2 16.0417 52.2H48.125C48.9271 52.2 49.5833 51.5475 49.5833 50.75ZM55.4167 59.45C55.4167 58.6525 54.7604 58 53.9583 58C53.1562 58 52.5 58.6525 52.5 59.45C52.5 60.2475 53.1562 60.9 53.9583 60.9C54.7604 60.9 55.4167 60.2475 55.4167 59.45ZM49.5833 59.45C49.5833 58.6525 48.9271 58 48.125 58H16.0417C15.2396 58 14.5833 58.6525 14.5833 59.45C14.5833 60.2475 15.2396 60.9 16.0417 60.9H48.125C48.9271 60.9 49.5833 60.2475 49.5833 59.45ZM55.4167 68.15C55.4167 67.3525 54.7604 66.7 53.9583 66.7C53.1562 66.7 52.5 67.3525 52.5 68.15C52.5 68.9475 53.1562 69.6 53.9583 69.6C54.7604 69.6 55.4167 68.9475 55.4167 68.15ZM49.5833 68.15C49.5833 67.3525 48.9271 66.7 48.125 66.7H16.0417C15.2396 66.7 14.5833 67.3525 14.5833 68.15C14.5833 68.9475 15.2396 69.6 16.0417 69.6H48.125C48.9271 69.6 49.5833 68.9475 49.5833 68.15Z" fill="url(#paint0_linear_1_1463)"/>
<defs>
<linearGradient id="paint0_linear_1_1463" x1="70" y1="43.5073" x2="0.0149754" y2="43.5073" gradientUnits="userSpaceOnUse">
<stop stop-color="#003067"/>
<stop offset="0.0983319" stop-color="#023C70"/>
<stop offset="0.4492" stop-color="#07648D"/>
<stop offset="0.7286" stop-color="#0A7C9F"/>
<stop offset="0.9" stop-color="#0B85A6"/>
</linearGradient>
</defs>
</svg>
