<svg width="9" height="12" viewBox="0 0 9 12" fill="none" xmlns="http://www.w3.org/2000/svg">
<path d="M3.6487 9.85312C3.66042 9.86484 3.67214 9.87656 3.6862 9.88594C3.69089 9.89062 3.69792 9.89531 3.70495 9.9C3.71199 9.90469 3.71902 9.91172 3.72605 9.91641C3.73308 9.92109 3.74011 9.92578 3.74714 9.93047C3.75418 9.93516 3.76121 9.93984 3.76824 9.94219C3.77527 9.94688 3.7823 9.94922 3.79168 9.95391C3.79871 9.95625 3.80574 9.96094 3.81278 9.96328C3.81981 9.96563 3.82684 9.96797 3.83622 9.97266C3.84325 9.975 3.85262 9.97734 3.85966 9.98203C3.86669 9.98437 3.87372 9.98672 3.8831 9.98672C3.89247 9.98906 3.8995 9.99141 3.90888 9.99375C3.91826 9.99609 3.92763 9.99609 3.93466 9.99844C3.9417 9.99844 3.94873 10.0008 3.95576 10.0008C3.98857 10.0031 4.02139 10.0031 4.05421 10.0008C4.06124 10.0008 4.06827 9.99844 4.0753 9.99844C4.08468 9.99609 4.09405 9.99609 4.10109 9.99375C4.11046 9.99141 4.11749 9.98906 4.12687 9.98672C4.1339 9.98438 4.14093 9.98203 4.15031 9.98203C4.15734 9.97969 4.16672 9.97734 4.17375 9.97266C4.18078 9.97031 4.18781 9.96797 4.19719 9.96328C4.20422 9.96094 4.21125 9.95625 4.21828 9.95391C4.22532 9.94922 4.23469 9.94688 4.24172 9.94219C4.24876 9.9375 4.25579 9.93516 4.26282 9.93047C4.26985 9.92578 4.27688 9.92109 4.28392 9.91641C4.29095 9.91172 4.29798 9.90703 4.30501 9.9C4.31204 9.89531 4.31673 9.89062 4.32376 9.88594C4.33548 9.87656 4.34955 9.86484 4.36127 9.85312L7.86083 6.35391C8.05538 6.15938 8.05538 5.84297 7.86083 5.64609C7.66628 5.44922 7.34984 5.45156 7.15295 5.64609L4.50191 8.29219V0.499219C4.50191 0.225 4.27688 0 4.00264 0C3.72839 0 3.50337 0.225 3.50337 0.499219V8.29219L0.854675 5.64609C0.660124 5.45156 0.343687 5.45156 0.146793 5.64609C-0.0501012 5.84062 -0.0477573 6.15703 0.146793 6.35391L3.6487 9.85312Z" fill="#003067"/>
<path d="M7.50073 10.999H0.499267C0.225022 10.999 0 11.224 0 11.5006C0 11.7771 0.225022 11.9998 0.499267 11.9998H7.50073C7.77732 11.9998 8 11.7748 8 11.5006C8 11.2264 7.77732 10.999 7.50073 10.999Z" fill="#003067"/>
</svg>
