<svg width="123" height="123" viewBox="0 0 123 123" fill="none" xmlns="http://www.w3.org/2000/svg">
<circle cx="61.5" cy="61.5" r="61.5" fill="#CEE7ED"/>
<path d="M74 90.65C74 93.0425 72.0312 95 69.625 95H8.375C5.96875 95 4 93.0425 4 90.65V18.15C4 15.7575 5.96875 13.8 8.375 13.8H31.4714C31.4714 10.5919 34.0781 8 37.3047 8H40.6771C43.9036 8 46.5104 10.5919 46.5104 13.8H69.625C72.0312 13.8 74 15.7575 74 18.15V90.65ZM42.9922 12.0238C42.4453 11.3169 41.5885 10.9 40.6953 10.9H37.3229C35.7188 10.9 34.4062 12.205 34.4062 13.8C34.4062 14.0356 34.4427 14.2713 34.4974 14.5069L36.0469 20.7056C36.2474 21.485 35.7734 22.2644 34.9896 22.4638C34.8802 22.5 34.7526 22.5 34.6432 22.5H22.9766C20.5703 22.5 18.6016 24.4575 18.6016 26.85V28.3H59.4167V26.85C59.4167 24.4575 57.4479 22.5 55.0417 22.5H43.375C42.5729 22.5 41.9167 21.8475 41.9167 21.05C41.9167 20.9231 41.9349 20.8144 41.9531 20.7056L43.5026 14.5069C43.7396 13.6369 43.5391 12.7125 42.9922 12.0238ZM17.125 31.2C16.3229 31.2 15.6667 30.5475 15.6667 29.75V26.85C15.6667 26.3606 15.7214 25.8713 15.8125 25.4H12.75V86.3H65.25V25.4H62.1875C62.2786 25.8713 62.3333 26.3606 62.3333 26.85V29.75C62.3333 30.5475 61.6771 31.2 60.875 31.2H17.125ZM71.0833 18.15C71.0833 17.3525 70.4271 16.7 69.625 16.7H45.9635L45.2344 19.6H55.0417C57.3385 19.6 59.4896 20.6694 60.875 22.5H66.7083C67.5104 22.5 68.1667 23.1525 68.1667 23.95V87.75C68.1667 88.5475 67.5104 89.2 66.7083 89.2H11.2917C10.4896 89.2 9.83333 88.5475 9.83333 87.75V23.95C9.83333 23.1525 10.4896 22.5 11.2917 22.5H17.125C18.4922 20.6694 20.6615 19.6 22.9583 19.6H32.7656L32.0365 16.7H8.375C7.57291 16.7 6.91666 17.3525 6.91666 18.15V90.65C6.91666 91.4475 7.57291 92.1 8.375 92.1H69.625C70.4271 92.1 71.0833 91.4475 71.0833 90.65V18.15ZM40.4583 15.25C40.4583 14.4525 39.8021 13.8 39 13.8C38.1979 13.8 37.5417 14.4525 37.5417 15.25C37.5417 16.0475 38.1979 16.7 39 16.7C39.8021 16.7 40.4583 16.0475 40.4583 15.25ZM59.4167 41.35C59.4167 40.5525 58.7604 39.9 57.9583 39.9C57.1562 39.9 56.5 40.5525 56.5 41.35C56.5 42.1475 57.1562 42.8 57.9583 42.8C58.7604 42.8 59.4167 42.1475 59.4167 41.35ZM53.5833 41.35C53.5833 40.5525 52.9271 39.9 52.125 39.9H20.0417C19.2396 39.9 18.5833 40.5525 18.5833 41.35C18.5833 42.1475 19.2396 42.8 20.0417 42.8H52.125C52.9271 42.8 53.5833 42.1475 53.5833 41.35ZM59.4167 50.05C59.4167 49.2525 58.7604 48.6 57.9583 48.6C57.1562 48.6 56.5 49.2525 56.5 50.05C56.5 50.8475 57.1562 51.5 57.9583 51.5C58.7604 51.5 59.4167 50.8475 59.4167 50.05ZM53.5833 50.05C53.5833 49.2525 52.9271 48.6 52.125 48.6H20.0417C19.2396 48.6 18.5833 49.2525 18.5833 50.05C18.5833 50.8475 19.2396 51.5 20.0417 51.5H52.125C52.9271 51.5 53.5833 50.8475 53.5833 50.05ZM59.4167 58.75C59.4167 57.9525 58.7604 57.3 57.9583 57.3C57.1562 57.3 56.5 57.9525 56.5 58.75C56.5 59.5475 57.1562 60.2 57.9583 60.2C58.7604 60.2 59.4167 59.5475 59.4167 58.75ZM53.5833 58.75C53.5833 57.9525 52.9271 57.3 52.125 57.3H20.0417C19.2396 57.3 18.5833 57.9525 18.5833 58.75C18.5833 59.5475 19.2396 60.2 20.0417 60.2H52.125C52.9271 60.2 53.5833 59.5475 53.5833 58.75ZM59.4167 67.45C59.4167 66.6525 58.7604 66 57.9583 66C57.1562 66 56.5 66.6525 56.5 67.45C56.5 68.2475 57.1562 68.9 57.9583 68.9C58.7604 68.9 59.4167 68.2475 59.4167 67.45ZM53.5833 67.45C53.5833 66.6525 52.9271 66 52.125 66H20.0417C19.2396 66 18.5833 66.6525 18.5833 67.45C18.5833 68.2475 19.2396 68.9 20.0417 68.9H52.125C52.9271 68.9 53.5833 68.2475 53.5833 67.45ZM59.4167 76.15C59.4167 75.3525 58.7604 74.7 57.9583 74.7C57.1562 74.7 56.5 75.3525 56.5 76.15C56.5 76.9475 57.1562 77.6 57.9583 77.6C58.7604 77.6 59.4167 76.9475 59.4167 76.15ZM53.5833 76.15C53.5833 75.3525 52.9271 74.7 52.125 74.7H20.0417C19.2396 74.7 18.5833 75.3525 18.5833 76.15C18.5833 76.9475 19.2396 77.6 20.0417 77.6H52.125C52.9271 77.6 53.5833 76.9475 53.5833 76.15Z" fill="url(#paint0_linear_51_3041)"/>
<defs>
<linearGradient id="paint0_linear_51_3041" x1="74" y1="51.5073" x2="4.01498" y2="51.5073" gradientUnits="userSpaceOnUse">
<stop stop-color="#003067"/>
<stop offset="0.0983319" stop-color="#023C70"/>
<stop offset="0.4492" stop-color="#07648D"/>
<stop offset="0.7286" stop-color="#0A7C9F"/>
<stop offset="0.9" stop-color="#0B85A6"/>
</linearGradient>
</defs>
</svg>
