<svg width="24" height="24" viewBox="0 0 24 24" fill="none" xmlns="http://www.w3.org/2000/svg">
<rect x="2.5" y="4.5" width="19" height="15" rx="4.5" stroke="#003067" strokeWidth="1" />
<path d="M16.2185 11.6644L10.6151 8.0638C10.4951 7.98504 10.3338 7.98129 10.21 8.0488C10.0788 8.12006 10 8.25508 10 8.40135V15.6025C10 15.7488 10.0788 15.8838 10.21 15.955C10.27 15.9888 10.3376 16.0038 10.4013 16.0038C10.4763 16.0038 10.5513 15.9813 10.6188 15.94L16.2185 12.3395C16.331 12.2645 16.4023 12.1407 16.4023 12.0019C16.4023 11.8632 16.331 11.7394 16.2185 11.6644ZM10.7989 14.8674V9.13272L15.2583 12.0019L10.7989 14.8674Z" fill="#003067"/>
</svg>
