<svg width="127" height="123" viewBox="0 0 127 123" fill="none" xmlns="http://www.w3.org/2000/svg">
<circle cx="65.5" cy="61.5" r="61.5" fill="#CEE7ED"/>
<path d="M43.2692 70.8189L37.8424 68.1055C37.1641 67.7663 36.35 68.0377 36.0278 68.716L33.3145 74.1428L35.7395 75.3638L36.9266 73.0065C37.9102 75.9404 39.3009 78.8234 41.5564 80.9093C44.3715 83.5209 47.9158 84.8945 51.3415 86.2343C52.0029 86.4887 52.6643 86.743 53.3087 87.0144C56.7682 88.4219 60.3635 89.7617 63.9587 90.9657L64.8236 88.388C61.2623 87.184 57.7349 85.8781 54.3262 84.4875C53.6648 84.2162 53.0034 83.9618 52.3251 83.6905C49.1369 82.4525 45.8299 81.1636 43.4048 78.9081C41.5224 77.1614 40.3184 74.5667 39.4365 71.9212L42.0821 73.244L43.2692 70.8189Z" fill="url(#paint0_linear_51_3043)"/>
<path d="M78.3734 58.1338C77.7968 57.5063 77.1185 56.828 76.3892 56.0988C73.218 52.9445 69.2666 49.027 70.8946 45.4318C71.0981 44.9569 71.4034 44.499 71.7256 44.0072C72.1157 43.3967 72.5057 42.7862 72.811 42.057C74.5916 37.7834 71.5051 32.3567 69.2666 28.3883C68.9444 27.8287 68.6561 27.303 68.3848 26.8112C66.9602 24.1826 65.5866 21.8593 64.1621 19.7394C63.8738 19.3155 63.382 19.095 62.8562 19.1459C62.3475 19.2137 61.9235 19.5529 61.7539 20.0447C61.6522 20.3499 51.2226 49.5018 27.4636 54.5894C26.8361 52.8427 24.9876 48.9761 20.9854 48.9761C18.0685 48.9761 15.6773 51.4012 14.8124 53.8093C14.6089 54.3859 14.4732 54.9795 14.4054 55.573C14.1002 58.3712 15.3381 64.6629 18.272 67.7324C19.2895 69.0721 24.1227 76.0252 21.8842 83.877C19.2895 92.9838 14.0493 99.6146 13.9814 99.6825L16.1013 101.378C16.3217 101.09 21.7315 94.2727 24.4788 84.6232C26.2256 78.535 24.3771 73.0574 22.5964 69.5809C23.3935 69.5639 24.1058 69.3604 24.6993 68.9195C26.3613 67.7324 26.4121 65.4938 26.4121 65.2564H23.6987C23.6987 65.426 23.597 66.3757 23.1222 66.7318C22.6812 67.0371 21.8672 66.8336 21.4093 66.6979C21.0193 66.5622 20.6462 66.2909 20.2901 65.9178C20.2222 65.833 20.1713 65.7821 20.1544 65.7482L20.1374 65.7652C18.2041 63.5945 16.8135 58.5069 17.1018 55.8783C17.1358 55.4882 17.2375 55.0982 17.3732 54.7251C17.8989 53.2327 19.4082 51.6895 20.9854 51.6895C23.6309 51.6895 24.835 55.2 25.0554 55.9461V56.1835C25.0554 56.5906 25.225 56.9636 25.5303 57.218C25.8355 57.4724 26.2425 57.5911 26.6326 57.5233C48.7975 53.6567 60.075 31.1356 63.3141 23.4534C64.196 24.8949 65.0778 26.4211 65.9766 28.1C66.248 28.5918 66.5532 29.1345 66.8754 29.7281C68.7409 33.0181 71.556 37.97 70.2841 41.0225C70.0806 41.5313 69.7584 42.0231 69.4192 42.5658C69.0631 43.1254 68.69 43.702 68.4017 44.3464C66.0275 49.6545 70.9116 54.5046 74.4729 58.049C75.1682 58.7443 75.8126 59.3887 76.3723 59.9823C76.9489 60.6267 77.322 61.3899 77.4068 62.136C77.6103 63.9676 76.5588 65.6634 74.8121 66.24C73.5063 66.6809 72.6075 67.8511 72.5227 69.2078L71.0642 73.8545C71.0642 73.8714 71.0642 73.8884 71.0642 73.9053L65.2474 76.2287C64.7726 76.4152 64.4504 76.8392 64.3995 77.3479C64.3486 77.8567 64.586 78.3315 64.993 78.6198L70.6911 82.4016C70.0297 83.5887 69.7245 84.9624 69.8602 86.3191C69.8771 86.4547 69.911 86.5734 69.945 86.6921C70.6911 88.5237 70.8098 88.8289 70.8268 88.8629C71.5899 90.7453 71.1151 93.1534 69.7075 94.4931C67.6216 96.4773 64.1451 95.9516 60.7025 95.1036C51.7483 92.882 35.8242 87.5401 29.8547 76.8392L27.4805 78.162C30.9062 84.301 37.1809 88.7441 43.7269 91.9493L41.3696 100.191L43.9813 100.937L46.2198 93.1025C51.2565 95.3071 56.2424 96.7995 60.0411 97.7492C61.3639 98.0714 63.4159 98.5971 65.5696 98.5971C67.6725 98.5971 69.8771 98.1053 71.573 96.4773C73.7776 94.3744 74.5068 90.7622 73.3367 87.8453L72.5396 85.8781C72.4888 85.0132 72.7262 84.1653 73.201 83.4361L74.2864 81.8081C74.9817 80.7566 74.846 79.3491 73.9811 78.6538L74.5407 77.5514C75.0495 76.5509 74.846 75.3468 74.049 74.5498L73.7776 74.3123L75.1852 69.8522C75.2191 69.7165 75.253 69.5809 75.253 69.4452C75.253 69.1569 75.4396 68.9195 75.6939 68.8177C78.6447 67.8341 80.4763 64.9681 80.1201 61.8308C79.9506 60.4741 79.357 59.2022 78.3734 58.1338ZM71.5391 77.4158C71.1829 78.145 71.1829 78.976 71.5221 79.6882L68.6391 77.7719L72.0478 76.4152L71.5391 77.4158Z" fill="url(#paint1_linear_51_3043)"/>
<path d="M23.6987 21.7236L22.6303 19.2307C21.8333 19.5699 2.92438 27.8627 0.126203 44.6687C-0.518225 48.4844 1.41506 55.6579 3.43314 63.2384C4.95942 68.9195 6.51961 74.7872 6.8927 78.9251C8.18156 93.323 4.41674 99.7334 4.38282 99.8012L6.6892 101.226C6.85878 100.937 10.9797 94.1031 9.60608 78.6877C9.21603 74.3124 7.62192 68.326 6.06173 62.5431C4.19628 55.5731 2.26299 48.3487 2.80567 45.1096C5.34946 29.779 23.5122 21.8084 23.6987 21.7236Z" fill="url(#paint2_linear_51_3043)"/>
<defs>
<linearGradient id="paint0_linear_51_3043" x1="33.3145" y1="79.4645" x2="64.8169" y2="79.4645" gradientUnits="userSpaceOnUse">
<stop stop-color="#003067"/>
<stop offset="0.0983319" stop-color="#023C70"/>
<stop offset="0.4492" stop-color="#07648D"/>
<stop offset="0.7286" stop-color="#0A7C9F"/>
<stop offset="0.9" stop-color="#0B85A6"/>
</linearGradient>
<linearGradient id="paint1_linear_51_3043" x1="13.9814" y1="60.2654" x2="80.1501" y2="60.2654" gradientUnits="userSpaceOnUse">
<stop stop-color="#003067"/>
<stop offset="0.0983319" stop-color="#023C70"/>
<stop offset="0.4492" stop-color="#07648D"/>
<stop offset="0.7286" stop-color="#0A7C9F"/>
<stop offset="0.9" stop-color="#0B85A6"/>
</linearGradient>
<linearGradient id="paint2_linear_51_3043" x1="0" y1="60.2351" x2="23.6936" y2="60.2351" gradientUnits="userSpaceOnUse">
<stop stop-color="#003067"/>
<stop offset="0.0983319" stop-color="#023C70"/>
<stop offset="0.4492" stop-color="#07648D"/>
<stop offset="0.7286" stop-color="#0A7C9F"/>
<stop offset="0.9" stop-color="#0B85A6"/>
</linearGradient>
</defs>
</svg>
