<svg width="14" height="14" viewBox="0 0 14 14" fill="none" xmlns="http://www.w3.org/2000/svg">
<path d="M9.3499 1.83966H11.5653L6.50045 6.90698C6.33644 7.07099 6.33644 7.33782 6.50045 7.50184C6.58124 7.58262 6.68895 7.62423 6.79666 7.62423C6.90437 7.62423 7.01208 7.58262 7.09286 7.50184L12.1602 2.43452V4.64994C12.1602 4.8825 12.3487 5.07099 12.5788 5.07099C12.8113 5.07099 12.9998 4.8825 12.9998 4.64994V1.42105C12.9998 1.18849 12.8113 1 12.5788 1H9.3499C9.11734 1 8.92885 1.18849 8.92885 1.42105C8.9313 1.65116 9.11734 1.83966 9.3499 1.83966Z" fill="#003067"/>
<path d="M3.51897 13H10.4786C11.869 13 12.9976 11.869 12.9976 10.481V7.20318C12.9976 6.97062 12.8091 6.78458 12.5765 6.78458C12.3439 6.78458 12.1579 6.97307 12.1579 7.20318V10.4786C12.1579 11.4039 11.4039 12.1579 10.4786 12.1579H3.51897C2.59364 12.1579 1.83966 11.4039 1.83966 10.4786V3.52142C1.83966 2.59608 2.59364 1.84211 3.51897 1.84211H6.76744C7 1.84211 7.18605 1.65361 7.18605 1.42105C7.18605 1.18849 6.99755 1 6.76744 1H3.51897C2.12852 1 1 2.13097 1 3.51897V10.4786C1 11.869 2.13097 13 3.51897 13Z" fill="#003067"/>
</svg>
