<svg width="80" height="80" viewBox="0 0 80 80" fill="none" xmlns="http://www.w3.org/2000/svg">
<circle cx="40" cy="40" r="40" fill="#003067"/>
<path d="M57.3918 39.5421L32.5601 23.3948C31.7422 22.8684 30.4314 22.8684 29.6135 23.3948C28.806 23.928 28.806 24.7826 29.6135 25.3158V40.4991V55.6825C28.7955 56.2089 28.7955 57.0703 29.6135 57.6035C30.0224 57.8701 30.5572 58 31.092 58C31.6268 58 32.1511 57.8701 32.5601 57.6035L57.3918 41.4562C57.7798 41.2033 58 40.8546 58 40.4991C58 40.1368 57.7798 39.795 57.3918 39.5421Z" fill="#E7F3F6"/>
<rect x="29" y="23" width="4.14286" height="35" rx="2.07143" fill="#E7F3F6"/>
</svg>
