<svg width="20" height="16" viewBox="0 0 20 16" fill="none" xmlns="http://www.w3.org/2000/svg">
<rect x="0.5" y="0.5" width="19" height="15" rx="4.5" stroke="#003067"/>
<path d="M14.2185 7.66413L8.6151 4.06356C8.49508 3.98479 8.3338 3.98104 8.21003 4.04855C8.07876 4.11981 8 4.25484 8 4.40111V11.6022C8 11.7485 8.07876 11.8835 8.21003 11.9548C8.27004 11.9886 8.33755 12.0036 8.40131 12.0036C8.47632 12.0036 8.55134 11.9811 8.61885 11.9398L14.2185 8.33923C14.331 8.26422 14.4023 8.14045 14.4023 8.00168C14.4023 7.86291 14.331 7.73914 14.2185 7.66413ZM8.79887 10.8671V5.13247L13.2583 8.00168L8.79887 10.8671Z" fill="#003067"/>
</svg>
