<svg width="124" height="123" viewBox="0 0 124 123" fill="none" xmlns="http://www.w3.org/2000/svg">
<circle cx="62.5" cy="61.5" r="61.5" fill="#CEE7ED"/>
<path d="M59.1359 71.0436C58.1959 71.0436 57.4268 71.8127 57.4268 72.7527V84.5457C57.4268 89.2629 53.5983 93.0914 48.8811 93.0914H30.4225C29.4825 93.0914 28.7134 93.8605 28.7134 94.8005V98.2017L24.6286 94.1169C24.3722 93.5187 23.7569 93.0914 23.0562 93.0914H11.9639C7.24671 93.0914 3.41826 89.2629 3.41826 84.5457V58.2251C3.41826 53.5079 7.24671 49.6795 11.9639 49.6795H29.2261C30.1661 49.6795 30.9353 48.9104 30.9353 47.9704C30.9353 47.0303 30.1661 46.2612 29.2261 46.2612H11.9639C5.36667 46.2612 0 51.6279 0 58.2251V84.5457C0 91.143 5.36667 96.5097 11.9639 96.5097H22.2016L29.2261 103.534C29.5509 103.859 29.9952 104.03 30.4396 104.03C30.6618 104.03 30.884 103.996 31.0891 103.893C31.7215 103.637 32.1487 103.004 32.1487 102.321V96.5097H48.8982C55.4955 96.5097 60.8621 91.143 60.8621 84.5457V72.7527C60.845 71.8127 60.0759 71.0436 59.1359 71.0436Z" fill="url(#paint0_linear_51_3044)"/>
<path d="M62.6739 16.5225H58.3498C44.6426 16.5225 33.499 27.666 33.499 41.3561C33.499 55.0463 44.6425 66.1898 58.3327 66.1898H62.6568C64.7932 66.1898 66.9125 65.9163 68.9635 65.3865L75.3556 71.7786C75.6804 72.1034 76.1247 72.2743 76.5691 72.2743C76.7913 72.2743 77.0135 72.2401 77.2186 72.1376C77.8509 71.8812 78.2782 71.2488 78.2782 70.5652V60.6693C80.9787 58.4816 83.2347 55.7128 84.8071 52.6193C86.6017 49.1156 87.5075 45.3213 87.5075 41.339C87.5075 27.666 76.364 16.5225 62.6739 16.5225ZM75.5436 58.4816C75.1163 58.8063 74.86 59.302 74.86 59.8489V66.4462L70.6726 62.2588C70.3479 61.9341 69.9035 61.7631 69.4591 61.7631C69.2882 61.7631 69.1173 61.7802 68.9635 61.8315C66.9296 62.4639 64.8103 62.7715 62.6568 62.7715H58.3327C46.5226 62.7715 36.9173 53.1662 36.9173 41.3561C36.9173 29.546 46.5226 19.9407 58.3327 19.9407H62.6568C74.484 19.9407 84.0893 29.546 84.0893 41.3561C84.0893 48.1585 80.9787 54.3968 75.5436 58.4816Z" fill="url(#paint1_linear_51_3044)"/>
<path d="M68.1941 35.2204C67.9548 31.6483 65.0664 28.7599 61.4772 28.5035C59.4434 28.3668 57.512 29.0504 56.0251 30.4348C54.5723 31.8021 53.7178 33.7334 53.7178 35.7331C53.7178 36.6731 54.4869 37.4422 55.4269 37.4422C56.3669 37.4422 57.136 36.6731 57.136 35.7331C57.136 34.6564 57.5633 33.6651 58.3495 32.9472C59.1357 32.2123 60.1612 31.8534 61.2209 31.9388C63.1009 32.0756 64.622 33.5796 64.7588 35.4767C64.8955 37.3739 63.6478 39.0659 61.7849 39.4761C60.2808 39.8179 59.2383 41.1169 59.2383 42.638V46.7399C59.2383 47.6799 60.0074 48.449 60.9474 48.449C61.8874 48.449 62.6565 47.6799 62.6565 46.7399V42.7747C66.1261 41.9373 68.4505 38.7754 68.1941 35.2204Z" fill="url(#paint2_linear_51_3044)"/>
<path d="M62.1951 52.2947C61.8703 51.97 61.4431 51.7991 60.9816 51.7991C60.5201 51.7991 60.0928 51.9871 59.7681 52.2947C59.4434 52.6195 59.2725 53.0467 59.2725 53.5082C59.2725 53.9526 59.4605 54.397 59.7681 54.7217C60.0928 55.0464 60.5201 55.2173 60.9816 55.2173C61.4431 55.2173 61.8703 55.0293 62.1951 54.7217C62.5198 54.397 62.6907 53.9697 62.6907 53.5082C62.6907 53.0467 62.5027 52.6024 62.1951 52.2947Z" fill="url(#paint3_linear_51_3044)"/>
<path d="M47.0013 69.5054H10.9386C9.9986 69.5054 9.22949 70.2745 9.22949 71.2145C9.22949 72.1545 9.9986 72.9236 10.9386 72.9236H47.0013C47.9413 72.9236 48.7104 72.1545 48.7104 71.2145C48.7104 70.2745 47.9413 69.5054 47.0013 69.5054Z" fill="url(#paint4_linear_51_3044)"/>
<path d="M48.2146 79.5723C47.8899 79.2476 47.4626 79.0767 47.0011 79.0767C46.5397 79.0767 46.1124 79.2647 45.7876 79.5723C45.4629 79.897 45.292 80.3243 45.292 80.7858C45.292 81.2473 45.48 81.6745 45.7876 81.9993C46.1124 82.324 46.5397 82.4949 47.0011 82.4949C47.4626 82.4949 47.8899 82.3069 48.2146 81.9993C48.5393 81.6745 48.7103 81.2473 48.7103 80.7858C48.7103 80.3414 48.5222 79.897 48.2146 79.5723Z" fill="url(#paint5_linear_51_3044)"/>
<path d="M40.2844 79.0767H10.9386C9.9986 79.0767 9.22949 79.8458 9.22949 80.7858C9.22949 81.7258 9.9986 82.4949 10.9386 82.4949H40.2844C41.2244 82.4949 41.9935 81.7258 41.9935 80.7858C41.9935 79.8458 41.2244 79.0767 40.2844 79.0767Z" fill="url(#paint6_linear_51_3044)"/>
<path d="M35.8919 59.9343H10.9386C9.9986 59.9343 9.22949 60.7034 9.22949 61.6435C9.22949 62.5835 9.9986 63.3526 10.9386 63.3526H35.8919C36.8319 63.3526 37.6011 62.5835 37.6011 61.6435C37.6011 60.7034 36.8319 59.9343 35.8919 59.9343Z" fill="url(#paint7_linear_51_3044)"/>
<defs>
<linearGradient id="paint0_linear_51_3044" x1="0" y1="75.1504" x2="60.8491" y2="75.1504" gradientUnits="userSpaceOnUse">
<stop stop-color="#003067"/>
<stop offset="0.0983319" stop-color="#023C70"/>
<stop offset="0.4492" stop-color="#07648D"/>
<stop offset="0.7286" stop-color="#0A7C9F"/>
<stop offset="0.9" stop-color="#0B85A6"/>
</linearGradient>
<linearGradient id="paint1_linear_51_3044" x1="33.499" y1="44.4031" x2="87.496" y2="44.4031" gradientUnits="userSpaceOnUse">
<stop stop-color="#003067"/>
<stop offset="0.0983319" stop-color="#023C70"/>
<stop offset="0.4492" stop-color="#07648D"/>
<stop offset="0.7286" stop-color="#0A7C9F"/>
<stop offset="0.9" stop-color="#0B85A6"/>
</linearGradient>
<linearGradient id="paint2_linear_51_3044" x1="53.7178" y1="38.4694" x2="68.2103" y2="38.4694" gradientUnits="userSpaceOnUse">
<stop stop-color="#003067"/>
<stop offset="0.0983319" stop-color="#023C70"/>
<stop offset="0.4492" stop-color="#07648D"/>
<stop offset="0.7286" stop-color="#0A7C9F"/>
<stop offset="0.9" stop-color="#0B85A6"/>
</linearGradient>
<linearGradient id="paint3_linear_51_3044" x1="59.2725" y1="53.5085" x2="62.69" y2="53.5085" gradientUnits="userSpaceOnUse">
<stop stop-color="#003067"/>
<stop offset="0.0983319" stop-color="#023C70"/>
<stop offset="0.4492" stop-color="#07648D"/>
<stop offset="0.7286" stop-color="#0A7C9F"/>
<stop offset="0.9" stop-color="#0B85A6"/>
</linearGradient>
<linearGradient id="paint4_linear_51_3044" x1="9.22949" y1="71.2148" x2="48.702" y2="71.2148" gradientUnits="userSpaceOnUse">
<stop stop-color="#003067"/>
<stop offset="0.0983319" stop-color="#023C70"/>
<stop offset="0.4492" stop-color="#07648D"/>
<stop offset="0.7286" stop-color="#0A7C9F"/>
<stop offset="0.9" stop-color="#0B85A6"/>
</linearGradient>
<linearGradient id="paint5_linear_51_3044" x1="45.292" y1="80.7861" x2="48.7095" y2="80.7861" gradientUnits="userSpaceOnUse">
<stop stop-color="#003067"/>
<stop offset="0.0983319" stop-color="#023C70"/>
<stop offset="0.4492" stop-color="#07648D"/>
<stop offset="0.7286" stop-color="#0A7C9F"/>
<stop offset="0.9" stop-color="#0B85A6"/>
</linearGradient>
<linearGradient id="paint6_linear_51_3044" x1="9.22949" y1="80.7861" x2="41.9865" y2="80.7861" gradientUnits="userSpaceOnUse">
<stop stop-color="#003067"/>
<stop offset="0.0983319" stop-color="#023C70"/>
<stop offset="0.4492" stop-color="#07648D"/>
<stop offset="0.7286" stop-color="#0A7C9F"/>
<stop offset="0.9" stop-color="#0B85A6"/>
</linearGradient>
<linearGradient id="paint7_linear_51_3044" x1="9.22949" y1="61.6437" x2="37.595" y2="61.6437" gradientUnits="userSpaceOnUse">
<stop stop-color="#003067"/>
<stop offset="0.0983319" stop-color="#023C70"/>
<stop offset="0.4492" stop-color="#07648D"/>
<stop offset="0.7286" stop-color="#0A7C9F"/>
<stop offset="0.9" stop-color="#0B85A6"/>
</linearGradient>
</defs>
</svg>
