<svg width="24" height="24" viewBox="0 0 24 24" fill="none" xmlns="http://www.w3.org/2000/svg">
<path d="M19.1781 2.9731C17.2609 1.05586 14.7118 0 12.0004 0C9.28906 0 6.7399 1.05586 4.82271 2.9731C2.90547 4.89038 1.84961 7.43945 1.84961 10.1508C1.84961 15.6357 7.03578 20.1978 9.82198 22.6487C10.2092 22.9893 10.5435 23.2835 10.8099 23.5323C11.1437 23.844 11.5721 24 12.0004 24C12.4288 24 12.8571 23.844 13.1909 23.5323C13.4572 23.2834 13.7916 22.9893 14.1788 22.6487C16.965 20.1978 22.1512 15.6357 22.1512 10.1508C22.1511 7.43945 21.0953 4.89038 19.1781 2.9731ZM13.2502 21.5932C12.8545 21.9412 12.5128 22.2419 12.2311 22.505C12.1017 22.6258 11.899 22.6258 11.7696 22.505C11.4879 22.2418 11.1462 21.9412 10.7505 21.5932C8.13111 19.289 3.25539 15 3.25539 10.1508C3.25539 5.32885 7.17832 1.40592 12.0003 1.40592C16.8223 1.40592 20.7452 5.32885 20.7452 10.1508C20.7452 15 15.8696 19.289 13.2502 21.5932Z" fill="url(#paint0_linear_1_1513)"/>
<path d="M12.0007 5.29395C9.53407 5.29395 7.52734 7.30062 7.52734 9.76724C7.52734 12.2339 9.53407 14.2405 12.0007 14.2405C14.4673 14.2405 16.474 12.2339 16.474 9.76724C16.474 7.30062 14.4673 5.29395 12.0007 5.29395ZM12.0007 12.8346C10.3093 12.8346 8.93322 11.4585 8.93322 9.76719C8.93322 8.07584 10.3093 6.69978 12.0007 6.69978C13.6921 6.69978 15.0681 8.07584 15.0681 9.76719C15.0681 11.4585 13.6921 12.8346 12.0007 12.8346Z" fill="url(#paint1_linear_1_1513)"/>
<defs>
<linearGradient id="paint0_linear_1_1513" x1="1.84961" y1="12.002" x2="22.1468" y2="12.002" gradientUnits="userSpaceOnUse">
<stop stop-color="#003067"/>
<stop offset="0.0983319" stop-color="#023C70"/>
<stop offset="0.4492" stop-color="#07648D"/>
<stop offset="0.7286" stop-color="#0A7C9F"/>
<stop offset="0.9" stop-color="#0B85A6"/>
</linearGradient>
<linearGradient id="paint1_linear_1_1513" x1="7.52734" y1="9.76799" x2="16.4721" y2="9.76799" gradientUnits="userSpaceOnUse">
<stop stop-color="#003067"/>
<stop offset="0.0983319" stop-color="#023C70"/>
<stop offset="0.4492" stop-color="#07648D"/>
<stop offset="0.7286" stop-color="#0A7C9F"/>
<stop offset="0.9" stop-color="#0B85A6"/>
</linearGradient>
</defs>
</svg>
