<svg width="79" height="79" viewBox="0 0 79 79" fill="none" xmlns="http://www.w3.org/2000/svg">
<circle cx="39.5" cy="39.5" r="39.5" fill="white"/>
<rect x="29.5" y="16.5" width="19" height="31" rx="9.5" stroke="#003067"/>
<line x1="39" y1="23" x2="39" y2="32" stroke="#0B85A6"/>
<path d="M28.9629 58.3184C28.9629 58.0254 28.8516 57.7988 28.6289 57.6387C28.4102 57.4746 28.0254 57.334 27.4746 57.2168C26.9277 57.0996 26.4922 56.959 26.168 56.7949C25.8477 56.6309 25.6094 56.4355 25.4531 56.209C25.3008 55.9824 25.2246 55.7129 25.2246 55.4004C25.2246 54.8809 25.4434 54.4414 25.8809 54.082C26.3223 53.7227 26.8848 53.543 27.5684 53.543C28.2871 53.543 28.8691 53.7285 29.3145 54.0996C29.7637 54.4707 29.9883 54.9453 29.9883 55.5234H28.8984C28.8984 55.2266 28.7715 54.9707 28.5176 54.7559C28.2676 54.541 27.9512 54.4336 27.5684 54.4336C27.1738 54.4336 26.8652 54.5195 26.6426 54.6914C26.4199 54.8633 26.3086 55.0879 26.3086 55.3652C26.3086 55.627 26.4121 55.8242 26.6191 55.957C26.8262 56.0898 27.1992 56.2168 27.7383 56.3379C28.2812 56.459 28.7207 56.6035 29.0566 56.7715C29.3926 56.9395 29.6406 57.1426 29.8008 57.3809C29.9648 57.6152 30.0469 57.9023 30.0469 58.2422C30.0469 58.8086 29.8203 59.2637 29.3672 59.6074C28.9141 59.9473 28.3262 60.1172 27.6035 60.1172C27.0957 60.1172 26.6465 60.0273 26.2559 59.8477C25.8652 59.668 25.5586 59.418 25.3359 59.0977C25.1172 58.7734 25.0078 58.4238 25.0078 58.0488H26.0918C26.1113 58.4121 26.2559 58.7012 26.5254 58.916C26.7988 59.127 27.1582 59.2324 27.6035 59.2324C28.0137 59.2324 28.3418 59.1504 28.5879 58.9863C28.8379 58.8184 28.9629 58.5957 28.9629 58.3184ZM34.002 59.2324C34.3887 59.2324 34.7266 59.1152 35.0156 58.8809C35.3047 58.6465 35.4648 58.3535 35.4961 58.002H36.5215C36.502 58.3652 36.377 58.7109 36.1465 59.0391C35.916 59.3672 35.6074 59.6289 35.2207 59.8242C34.8379 60.0195 34.4316 60.1172 34.002 60.1172C33.1387 60.1172 32.4512 59.8301 31.9395 59.2559C31.4316 58.6777 31.1777 57.8887 31.1777 56.8887V56.707C31.1777 56.0898 31.291 55.541 31.5176 55.0605C31.7441 54.5801 32.0684 54.207 32.4902 53.9414C32.916 53.6758 33.418 53.543 33.9961 53.543C34.707 53.543 35.2969 53.7559 35.7656 54.1816C36.2383 54.6074 36.4902 55.1602 36.5215 55.8398H35.4961C35.4648 55.4297 35.3086 55.0938 35.0273 54.832C34.75 54.5664 34.4062 54.4336 33.9961 54.4336C33.4453 54.4336 33.0176 54.6328 32.7129 55.0312C32.4121 55.4258 32.2617 55.998 32.2617 56.748V56.9531C32.2617 57.6836 32.4121 58.2461 32.7129 58.6406C33.0137 59.0352 33.4434 59.2324 34.002 59.2324ZM40.8047 54.6328C40.6406 54.6055 40.4629 54.5918 40.2715 54.5918C39.5605 54.5918 39.0781 54.8945 38.8242 55.5V60H37.7402V53.6602H38.7949L38.8125 54.3926C39.168 53.8262 39.6719 53.543 40.3242 53.543C40.5352 53.543 40.6953 53.5703 40.8047 53.625V54.6328ZM41.4023 56.7715C41.4023 56.1504 41.5234 55.5918 41.7656 55.0957C42.0117 54.5996 42.3516 54.2168 42.7852 53.9473C43.2227 53.6777 43.7207 53.543 44.2793 53.543C45.1426 53.543 45.8398 53.8418 46.3711 54.4395C46.9062 55.0371 47.1738 55.832 47.1738 56.8242V56.9004C47.1738 57.5176 47.0547 58.0723 46.8164 58.5645C46.582 59.0527 46.2441 59.4336 45.8027 59.707C45.3652 59.9805 44.8613 60.1172 44.291 60.1172C43.4316 60.1172 42.7344 59.8184 42.1992 59.2207C41.668 58.623 41.4023 57.832 41.4023 56.8477V56.7715ZM42.4922 56.9004C42.4922 57.6035 42.6543 58.168 42.9785 58.5938C43.3066 59.0195 43.7441 59.2324 44.291 59.2324C44.8418 59.2324 45.2793 59.0176 45.6035 58.5879C45.9277 58.1543 46.0898 57.5488 46.0898 56.7715C46.0898 56.0762 45.9238 55.5137 45.5918 55.084C45.2637 54.6504 44.8262 54.4336 44.2793 54.4336C43.7441 54.4336 43.3125 54.6465 42.9844 55.0723C42.6562 55.498 42.4922 56.1074 42.4922 56.9004ZM49.7109 60H48.627V51H49.7109V60ZM52.6289 60H51.5449V51H52.6289V60Z" fill="#0B85A6"/>
</svg>
