<?xml version="1.0" encoding="UTF-8"?>
<svg id="Ebene_1" data-name="Ebene 1" xmlns="http://www.w3.org/2000/svg" width="233.03mm" height="46.24mm" xmlns:xlink="http://www.w3.org/1999/xlink" viewBox="0 0 660.55 131.08">
  <defs>
    <style>
      .cls-1 {
        fill: #004982;
      }

      .cls-2 {
        fill: #3299bb;
      }

      .cls-3 {
        fill: url(#Unbenannter_Verlauf_3);
      }
    </style>
    <linearGradient id="Unbenannter_Verlauf_3" data-name="Unbenannter Verlauf 3" x1="4.25" y1="65.54" x2="109.3" y2="65.54" gradientUnits="userSpaceOnUse">
      <stop offset="0" stop-color="#004982"/>
      <stop offset=".12" stop-color="#09588c"/>
      <stop offset=".45" stop-color="#1f7ba5"/>
      <stop offset=".72" stop-color="#2d91b5"/>
      <stop offset=".9" stop-color="#3299bb"/>
    </linearGradient>
  </defs>
  <g>
    <path class="cls-2" d="m134.31,45.51c-.45,0-.75-.3-.75-.75V11.26c0-.45.3-.75.75-.75h10.55c8.3,0,12.3,4.65,12.3,11.35s-4,11.4-12.3,11.4h-4.15v11.5c0,.45-.3.75-.75.75h-5.65Zm6.4-18.6h3.9c3.05,0,5.7-1.05,5.7-5.05s-2.65-5-5.7-5h-3.9v10.05Z"/>
    <path class="cls-2" d="m162.57,45.51c-.45,0-.75-.3-.75-.75v-23c0-.45.3-.75.75-.75h5.2c.45,0,.75.2.75.8l.2,3.15c.85-2.6,2.4-4.55,5.3-4.55,1.15,0,1.85.3,2.25.6.35.25.45.55.45,1v4.3c0,.6-.35.75-1,.6-.55-.15-1.1-.25-1.8-.25-3.4,0-5.2,2.35-5.2,5.85v12.25c0,.45-.3.75-.75.75h-5.4Z"/>
    <path class="cls-2" d="m179.63,33.26c0-7.25,4.75-12.85,11.65-12.85,3.7,0,6.35,1.5,8,4.05l.1-2.7c0-.45.3-.75.75-.75h4.9c.45,0,.75.3.75.75v23c0,.45-.35.75-.8.75h-4.85c-.45,0-.75-.3-.75-.75l-.1-2.7c-1.7,2.5-4.35,4.05-8,4.05-6.9,0-11.65-5.55-11.65-12.85Zm19.3,0c0-3.95-2.55-6.55-6.2-6.55s-6.35,2.65-6.35,6.55,2.7,6.55,6.35,6.55,6.2-2.6,6.2-6.55Z"/>
    <path class="cls-2" d="m210.54,45.51c-.6,0-.8-.4-.5-.9l7.4-11.65-7.1-11.05c-.3-.5-.1-.9.5-.9h5.9c.4,0,.7.15.9.5l3.95,6.55,3.9-6.55c.2-.35.5-.5.9-.5h5.9c.6,0,.85.4.5.9l-7.05,11.05,7.35,11.65c.35.5.1.9-.5.9h-5.9c-.4,0-.7-.15-.9-.5l-4.2-7.15-4.25,7.15c-.2.35-.5.5-.9.5h-5.9Z"/>
    <path class="cls-2" d="m237.02,12.81c0-2.1,1.65-3.8,3.85-3.8s3.8,1.7,3.8,3.8-1.6,3.85-3.8,3.85-3.85-1.7-3.85-3.85Zm1.1,32.7c-.45,0-.75-.3-.75-.75v-23c0-.45.3-.75.75-.75h5.45c.45,0,.75.3.75.75v23c0,.45-.3.75-.75.75h-5.45Z"/>
    <path class="cls-2" d="m249.42,42.06c-.3-.35-.25-.9.1-1.45l1.75-2.45c.4-.6.85-.5,1.25-.2,2.05,1.55,3.75,2.4,5.65,2.4,1.65,0,2.75-.65,2.75-2.05,0-1.2-.75-1.8-2.55-2.55l-3.1-1.25c-3.15-1.25-5.35-3.3-5.35-6.7,0-4.7,4-7.4,8.55-7.4,3.2,0,6.15,1.3,8.2,3.75.3.35.2.75-.05,1.05l-2.2,2.65c-.35.4-.7.35-1.15,0-1.6-1.35-3-2.05-4.45-2.05-1.6,0-2.35.9-2.35,1.95,0,1.2,1,1.9,2.35,2.4l3.45,1.35c3.1,1.25,5.55,3.35,5.5,7.1-.05,4.95-4.3,7.5-9.2,7.5-4.1,0-7.2-1.75-9.15-4.05Z"/>
    <path class="cls-2" d="m282.67,33.26c0-7.25,4.75-12.85,11.65-12.85,3.7,0,6.35,1.5,8,4.05l.1-2.7c0-.45.3-.75.75-.75h4.9c.45,0,.75.3.75.75v23c0,.45-.35.75-.8.75h-4.85c-.45,0-.75-.3-.75-.75l-.1-2.7c-1.7,2.5-4.35,4.05-8,4.05-6.9,0-11.65-5.55-11.65-12.85Zm19.3,0c0-3.95-2.55-6.55-6.2-6.55s-6.35,2.65-6.35,6.55,2.7,6.55,6.35,6.55,6.2-2.6,6.2-6.55Z"/>
    <path class="cls-2" d="m315.79,45.51c-.45,0-.75-.3-.75-.75v-23c0-.45.3-.75.75-.75h5.2c.45,0,.75.2.75.8l.15,2.6c1.35-2.3,3.55-4,6.9-4,3.15,0,5.6,1.5,6.95,4.35,1.35-2.5,3.75-4.35,7.55-4.35,5.25,0,8.45,3.6,8.45,10v14.35c0,.45-.3.75-.75.75h-5.4c-.45,0-.75-.3-.75-.75v-12.85c0-3.35-1.2-5.15-3.9-5.15s-4.1,1.8-4.1,5.15v12.85c0,.45-.3.75-.75.75h-5.35c-.5,0-.8-.3-.8-.75v-12.85c0-3.35-1.25-5.15-3.9-5.15s-4.1,1.8-4.1,5.15v12.85c0,.45-.3.75-.75.75h-5.4Z"/>
    <path class="cls-2" d="m370.13,45.51c-.45,0-.75-.3-.75-.75V11.26c0-.45.3-.75.75-.75h10.3c11.7,0,17.85,7.65,17.85,17.5s-6.15,17.5-17.85,17.5h-10.3Zm6.4-6.35h3.8c7.1,0,10.7-3.95,10.7-11.15s-3.6-11.15-10.7-11.15h-3.8v22.3Z"/>
    <path class="cls-2" d="m403.81,12.81c0-2.1,1.65-3.8,3.85-3.8s3.8,1.7,3.8,3.8-1.6,3.85-3.8,3.85-3.85-1.7-3.85-3.85Zm1.1,32.7c-.45,0-.75-.3-.75-.75v-23c0-.45.3-.75.75-.75h5.45c.45,0,.75.3.75.75v23c0,.45-.3.75-.75.75h-5.45Z"/>
    <path class="cls-2" d="m415.94,33.16c0-7.2,5.05-12.75,12.6-12.75s11.75,5.5,11.75,11.7c0,2.4-.55,3.75-2.7,3.75h-14.9c.75,3.1,3.3,4.8,7.25,4.8,1.9,0,3.7-.35,5.7-1.5.35-.2.6-.15.85.2l1.85,2.55c.25.35.2.7-.25,1.1-2.1,2.1-5.25,3.1-8.7,3.1-8.05,0-13.45-5.55-13.45-12.95Zm18.2-2.15c-.4-3.25-2.6-4.9-5.55-4.9s-5.4,1.65-6,4.9h11.55Z"/>
    <path class="cls-2" d="m447,38.96v-12.6h-3.1c-.45,0-.75-.3-.75-.75v-3.85c0-.45.3-.75.75-.75h3.1v-5.75c0-.45.3-.75.75-.75h5.45c.45,0,.75.3.75.75v5.75h3.85c.45,0,.75.3.75.75v3.85c0,.45-.3.75-.75.75h-3.85v11.85c0,1.45.85,2.15,2.15,2.15.45,0,.95,0,1.55-.05.55-.05.9.2.9.7v3.65c0,1.15-2.5,1.45-4.15,1.45-3.9,0-7.4-1.8-7.4-7.15Z"/>
    <path class="cls-2" d="m462.34,42.06c-.3-.35-.25-.9.1-1.45l1.75-2.45c.4-.6.85-.5,1.25-.2,2.05,1.55,3.75,2.4,5.65,2.4,1.65,0,2.75-.65,2.75-2.05,0-1.2-.75-1.8-2.55-2.55l-3.1-1.25c-3.15-1.25-5.35-3.3-5.35-6.7,0-4.7,4-7.4,8.55-7.4,3.2,0,6.15,1.3,8.2,3.75.3.35.2.75-.05,1.05l-2.2,2.65c-.35.4-.7.35-1.15,0-1.6-1.35-3-2.05-4.45-2.05-1.6,0-2.35.9-2.35,1.95,0,1.2,1,1.9,2.35,2.4l3.45,1.35c3.1,1.25,5.55,3.35,5.5,7.1-.05,4.95-4.3,7.5-9.2,7.5-4.1,0-7.2-1.75-9.15-4.05Z"/>
    <path class="cls-2" d="m484.18,33.16c0-7.25,5.45-12.75,12.8-12.75,4.05,0,7.4,1.7,9.5,4.4.3.35.2.75-.1,1.05l-3,2.95c-.4.4-.95.35-1.3,0-1.35-1.35-2.8-2.05-4.8-2.05-3.9,0-6.45,2.8-6.45,6.4s2.55,6.6,6.6,6.6c1.9,0,3.35-.7,4.7-2.05.35-.35.9-.4,1.3,0l3,2.95c.3.3.4.7.1,1.05-2.1,2.7-5.45,4.4-9.4,4.4-7.45,0-12.95-5.6-12.95-12.95Z"/>
    <path class="cls-2" d="m534.37,30.51v14.25c0,.45-.35.75-.8.75h-5.35c-.45,0-.75-.3-.75-.75v-12.7c0-3.45-1.6-5.3-4.55-5.3s-4.8,1.85-4.8,5.3v12.7c0,.45-.3.75-.75.75h-5.4c-.45,0-.75-.3-.75-.75V10.51c0-.45.3-.75.75-.75h5.4c.45,0,.75.3.75.75v14.2c1.4-2.5,3.75-4.3,7.4-4.3,5.1,0,8.85,3.7,8.85,10.1Z"/>
    <path class="cls-2" d="m540.11,12.81c0-2.1,1.65-3.8,3.85-3.8s3.8,1.7,3.8,3.8-1.6,3.85-3.8,3.85-3.85-1.7-3.85-3.85Zm1.1,32.7c-.45,0-.75-.3-.75-.75v-23c0-.45.3-.75.75-.75h5.45c.45,0,.75.3.75.75v23c0,.45-.3.75-.75.75h-5.45Z"/>
    <path class="cls-2" d="m560.16,42.06l-.1,2.7c0,.45-.3.75-.75.75h-4.9c-.45,0-.8-.3-.8-.75V10.51c0-.45.3-.75.75-.75h5.45c.45,0,.75.3.75.75v13.35c1.65-2.2,4.2-3.45,7.6-3.45,6.85,0,11.6,5.6,11.6,12.85s-4.75,12.85-11.6,12.85c-3.7,0-6.3-1.55-8-4.05Zm12.85-8.8c0-3.9-2.7-6.55-6.3-6.55s-6.25,2.6-6.25,6.55,2.55,6.55,6.25,6.55,6.3-2.6,6.3-6.55Z"/>
    <path class="cls-2" d="m583.43,33.16c0-7.2,5.05-12.75,12.6-12.75s11.75,5.5,11.75,11.7c0,2.4-.55,3.75-2.7,3.75h-14.9c.75,3.1,3.3,4.8,7.25,4.8,1.9,0,3.7-.35,5.7-1.5.35-.2.6-.15.85.2l1.85,2.55c.25.35.2.7-.25,1.1-2.1,2.1-5.25,3.1-8.7,3.1-8.05,0-13.45-5.55-13.45-12.95Zm18.2-2.15c-.4-3.25-2.6-4.9-5.55-4.9s-5.4,1.65-6,4.9h11.55Z"/>
    <path class="cls-2" d="m613.37,45.51c-.45,0-.75-.3-.75-.75v-23c0-.45.3-.75.75-.75h5.2c.45,0,.75.2.75.8l.2,3.15c.85-2.6,2.4-4.55,5.3-4.55,1.15,0,1.85.3,2.25.6.35.25.45.55.45,1v4.3c0,.6-.35.75-1,.6-.55-.15-1.1-.25-1.8-.25-3.4,0-5.2,2.35-5.2,5.85v12.25c0,.45-.3.75-.75.75h-5.4Z"/>
    <path class="cls-2" d="m633.79,52.96c-.5-.35-.55-1-.3-1.45l1.45-2.75c.25-.5.7-.7,1.25-.4,2.15,1.2,4.35,1.8,6.5,1.8,3.45,0,7-1.5,7-6.05v-2.65c-1.55,2.2-4.1,3.55-7.6,3.55-6.9,0-11.55-5.05-11.55-12.3s4.65-12.3,11.55-12.3c3.6,0,6.1,1.3,7.65,3.6l.1-2.25c0-.45.35-.75.8-.75h4.9c.45,0,.75.3.75.75v22.4c0,8.8-6.9,11.6-12.95,11.6-3.65,0-7.15-1-9.55-2.8Zm15.65-20.25c0-3.75-2.5-6.1-6-6.1s-6.15,2.4-6.15,6.1,2.6,6.1,6.15,6.1,6-2.35,6-6.1Z"/>
  </g>
  <g>
    <path class="cls-1" d="m134,88.25c-.24,0-.37-.16-.37-.4v-1.99c0-.19.05-.32.16-.48l8.51-13.09h-8.03c-.24,0-.37-.16-.37-.4v-1.86c0-.24.13-.4.37-.4h10.69c.24,0,.4.16.4.4v2c0,.19-.05.32-.16.48l-8.54,13.09h8.56c.24,0,.4.16.4.4v1.86c0,.24-.16.4-.4.4h-11.22Z"/>
    <path class="cls-1" d="m148.05,81.73c0-3.86,2.55-6.84,6.28-6.84,2.15,0,3.7.96,4.6,2.47l.05-1.75c0-.24.13-.4.37-.4h1.94c.24,0,.37.16.37.4v12.23c0,.24-.13.4-.37.4h-1.94c-.24,0-.37-.16-.37-.4l-.05-1.73c-.93,1.52-2.47,2.45-4.6,2.45-3.72,0-6.28-2.95-6.28-6.83Zm10.77.03c0-2.53-1.62-4.23-3.94-4.23s-4.04,1.7-4.04,4.2,1.7,4.2,4.04,4.2,3.94-1.68,3.94-4.18Z"/>
    <path class="cls-1" d="m177.22,80.24v7.61c0,.24-.16.4-.4.4h-2.1c-.24,0-.37-.16-.37-.4v-7.07c0-2.05-1.01-3.22-2.85-3.22s-3.11,1.17-3.11,3.22v7.07c0,.24-.13.4-.37.4h-2.13c-.24,0-.37-.16-.37-.4v-18.22c0-.24.13-.4.37-.4h2.13c.24,0,.37.16.37.4v7.61c.75-1.33,2.05-2.34,4.1-2.34,2.77,0,4.73,1.92,4.73,5.35Z"/>
    <path class="cls-1" d="m181.42,88.25c-.24,0-.37-.16-.37-.4v-12.23c0-.24.13-.4.37-.4h2.02c.24,0,.37.11.37.43l.11,1.6c.75-1.33,2.05-2.34,4.1-2.34,2.77,0,4.73,1.92,4.73,5.35v7.61c0,.24-.16.4-.4.4h-2.1c-.24,0-.37-.16-.37-.4v-7.07c0-2.05-1.01-3.22-2.85-3.22s-3.11,1.17-3.11,3.22v7.07c0,.24-.13.4-.37.4h-2.13Z"/>
    <path class="cls-1" d="m195.87,81.73c0-3.86,2.55-6.84,6.28-6.84,2.15,0,3.7.96,4.6,2.47l.05-1.75c0-.24.13-.4.37-.4h1.94c.24,0,.37.16.37.4v12.23c0,.24-.13.4-.37.4h-1.94c-.24,0-.37-.16-.37-.4l-.05-1.73c-.93,1.52-2.47,2.45-4.6,2.45-3.72,0-6.28-2.95-6.28-6.83Zm10.77.03c0-2.53-1.62-4.23-3.94-4.23s-4.04,1.7-4.04,4.2,1.7,4.2,4.04,4.2,3.94-1.68,3.94-4.18Zm-7.93-10.75c0-.85.69-1.52,1.52-1.52s1.52.67,1.52,1.52-.69,1.52-1.52,1.52-1.52-.66-1.52-1.52Zm5.37,0c0-.85.69-1.52,1.52-1.52s1.54.67,1.54,1.52-.69,1.52-1.54,1.52-1.52-.66-1.52-1.52Z"/>
    <path class="cls-1" d="m213.72,88.25c-.24,0-.37-.16-.37-.4v-12.23c0-.24.13-.4.37-.4h2.02c.24,0,.37.11.37.43l.08,1.57c.48-1.3,1.33-2.31,2.9-2.31.58,0,.98.13,1.2.29.19.13.24.27.24.5v1.65c0,.32-.19.37-.5.29-.32-.08-.61-.13-.96-.13-2.05,0-2.85,1.65-2.85,3.33v7.02c0,.24-.13.4-.37.4h-2.13Z"/>
    <path class="cls-1" d="m223.3,88.25c-.24,0-.37-.16-.37-.4v-1.7c0-.19.05-.35.19-.48l6.7-8.08h-6.44c-.24,0-.37-.13-.37-.37v-1.6c0-.24.13-.4.37-.4h9.26c.24,0,.4.16.4.4v1.7c0,.19-.08.35-.19.48l-6.73,8.08h6.54c.24,0,.4.13.4.37v1.6c0,.24-.16.4-.4.4h-9.36Z"/>
    <path class="cls-1" d="m237.58,85.22v-7.71h-1.68c-.24,0-.37-.16-.37-.4v-1.49c0-.24.13-.4.37-.4h1.68v-3.06c0-.24.13-.4.37-.4h2.15c.24,0,.37.16.37.4v3.06h2.1c.24,0,.4.16.4.4v1.49c0,.24-.16.4-.4.4h-2.1v7.39c0,.88.43,1.25,1.17,1.25.21,0,.53-.03.82-.05.32-.03.48.11.48.37v1.41c0,.53-1.17.69-1.97.69-1.94,0-3.4-.93-3.4-3.35Z"/>
    <path class="cls-1" d="m246.31,88.25c-.24,0-.37-.16-.37-.4v-18.22c0-.24.13-.4.37-.4h2.13c.24,0,.37.16.37.4v18.22c0,.24-.13.4-.37.4h-2.13Z"/>
    <path class="cls-1" d="m252.43,70.75c0-.9.72-1.65,1.68-1.65s1.65.75,1.65,1.65-.72,1.68-1.65,1.68-1.68-.75-1.68-1.68Zm.58,17.5c-.24,0-.37-.16-.37-.4v-12.23c0-.24.13-.4.37-.4h2.15c.24,0,.37.16.37.4v12.23c0,.24-.13.4-.37.4h-2.15Z"/>
    <path class="cls-1" d="m258.61,81.71c0-3.88,2.9-6.81,6.78-6.81,2.13,0,3.86.88,4.97,2.26.16.21.16.4,0,.56l-1.2,1.14c-.21.21-.48.16-.64-.03-.77-.77-1.65-1.28-3-1.28-2.45,0-4.15,1.75-4.15,4.15s1.7,4.2,4.2,4.2c1.33,0,2.21-.5,2.95-1.28.19-.19.45-.24.67-.03l1.2,1.14c.16.16.16.35,0,.56-1.12,1.38-2.85,2.26-4.95,2.26-3.91,0-6.83-2.95-6.83-6.86Z"/>
    <path class="cls-1" d="m285.15,80.24v7.61c0,.24-.16.4-.4.4h-2.1c-.24,0-.37-.16-.37-.4v-7.07c0-2.05-1.01-3.22-2.85-3.22s-3.11,1.17-3.11,3.22v7.07c0,.24-.13.4-.37.4h-2.13c-.24,0-.37-.16-.37-.4v-18.22c0-.24.13-.4.37-.4h2.13c.24,0,.37.16.37.4v7.61c.75-1.33,2.05-2.34,4.1-2.34,2.77,0,4.73,1.92,4.73,5.35Z"/>
    <path class="cls-1" d="m288.23,81.68c0-3.83,2.66-6.78,6.62-6.78s6.17,2.95,6.17,6.2c0,1.14-.24,1.7-1.22,1.7h-8.78c.35,2.07,1.89,3.46,4.47,3.46,1.28,0,2.31-.32,3.35-1.01.16-.11.32-.08.43.08l.75,1.01c.16.21.11.37-.11.58-1.14,1.12-2.82,1.65-4.65,1.65-4.26,0-7.02-3.01-7.02-6.89Zm10.24-.96c-.16-2.13-1.57-3.4-3.62-3.4s-3.56,1.25-3.86,3.4h7.47Z"/>
    <path class="cls-1" d="m309.56,85.72c-.13-.19-.13-.37.05-.58l1.12-1.28c.21-.24.43-.21.61-.03,1.09,1.25,2.23,2,3.99,2,1.94,0,3.14-.93,3.14-2.55s-1.17-2.23-2.74-2.98l-2.26-1.06c-1.97-.93-3.54-2.34-3.54-4.84,0-3.14,2.45-4.97,5.48-4.97,2.18,0,3.88.88,5.24,2.42.21.21.19.4,0,.61l-1.09,1.3c-.19.24-.4.24-.61.05-1.09-1.09-2.1-1.65-3.43-1.65-1.57,0-2.69.8-2.69,2.23,0,1.22.75,1.83,2.29,2.58l2.05.96c2.1,1.01,4.2,2.29,4.2,5.35,0,3.48-2.77,5.29-6.01,5.29-2.79,0-4.73-1.33-5.8-2.85Z"/>
    <path class="cls-1" d="m324.13,81.71c0-3.88,2.9-6.81,6.78-6.81,2.13,0,3.86.88,4.97,2.26.16.21.16.4,0,.56l-1.2,1.14c-.21.21-.48.16-.64-.03-.77-.77-1.65-1.28-3-1.28-2.45,0-4.15,1.75-4.15,4.15s1.7,4.2,4.2,4.2c1.33,0,2.21-.5,2.95-1.28.19-.19.45-.24.67-.03l1.2,1.14c.16.16.16.35,0,.56-1.12,1.38-2.85,2.26-4.95,2.26-3.91,0-6.83-2.95-6.83-6.86Z"/>
    <path class="cls-1" d="m350.68,80.24v7.61c0,.24-.16.4-.4.4h-2.1c-.24,0-.37-.16-.37-.4v-7.07c0-2.05-1.01-3.22-2.85-3.22s-3.11,1.17-3.11,3.22v7.07c0,.24-.13.4-.37.4h-2.13c-.24,0-.37-.16-.37-.4v-18.22c0-.24.13-.4.37-.4h2.13c.24,0,.37.16.37.4v7.61c.75-1.33,2.05-2.34,4.1-2.34,2.77,0,4.73,1.92,4.73,5.35Z"/>
    <path class="cls-1" d="m354.87,88.25c-.24,0-.37-.16-.37-.4v-12.23c0-.24.13-.4.37-.4h2.02c.24,0,.37.11.37.43l.08,1.41c.67-1.22,1.83-2.15,3.67-2.15,1.73,0,3.06.83,3.75,2.42.72-1.36,1.97-2.42,4.07-2.42,2.74,0,4.42,1.84,4.42,5.27v7.69c0,.24-.13.4-.37.4h-2.13c-.24,0-.37-.16-.37-.4v-7.15c0-2.02-.77-3.14-2.42-3.14s-2.66,1.14-2.66,3.14v7.15c0,.24-.13.4-.37.4h-2.1c-.27,0-.4-.16-.4-.4v-7.15c0-2.02-.85-3.14-2.47-3.14s-2.58,1.14-2.58,3.14v7.15c0,.24-.13.4-.37.4h-2.13Z"/>
    <path class="cls-1" d="m376.4,81.68c0-3.83,2.66-6.78,6.62-6.78s6.17,2.95,6.17,6.2c0,1.14-.24,1.7-1.22,1.7h-8.78c.35,2.07,1.89,3.46,4.47,3.46,1.28,0,2.31-.32,3.35-1.01.16-.11.32-.08.43.08l.75,1.01c.16.21.11.37-.11.58-1.14,1.12-2.82,1.65-4.65,1.65-4.26,0-7.02-3.01-7.02-6.89Zm10.24-.96c-.16-2.13-1.57-3.4-3.62-3.4s-3.56,1.25-3.86,3.4h7.47Z"/>
    <path class="cls-1" d="m392.7,88.25c-.24,0-.37-.16-.37-.4v-12.23c0-.24.13-.4.37-.4h2.02c.24,0,.37.11.37.43l.08,1.57c.48-1.3,1.33-2.31,2.9-2.31.58,0,.98.13,1.2.29.19.13.24.27.24.5v1.65c0,.32-.19.37-.5.29-.32-.08-.61-.13-.96-.13-2.05,0-2.85,1.65-2.85,3.33v7.02c0,.24-.13.4-.37.4h-2.13Z"/>
    <path class="cls-1" d="m402.29,88.25c-.24,0-.37-.16-.37-.4v-1.7c0-.19.05-.35.19-.48l6.7-8.08h-6.44c-.24,0-.37-.13-.37-.37v-1.6c0-.24.13-.4.37-.4h9.26c.24,0,.4.16.4.4v1.7c0,.19-.08.35-.19.48l-6.73,8.08h6.54c.24,0,.4.13.4.37v1.6c0,.24-.16.4-.4.4h-9.36Z"/>
    <path class="cls-1" d="m414.51,82c-.24,0-.37-.13-.37-.37v-1.62c0-.24.13-.37.37-.37h7.98c.24,0,.37.13.37.37v1.62c0,.24-.13.37-.37.37h-7.98Z"/>
    <path class="cls-1" d="m432.01,83.22v-7.61c0-.24.13-.4.37-.4h2.13c.24,0,.37.16.37.4v7.07c0,2.05,1.01,3.22,2.85,3.22s3.11-1.17,3.11-3.22v-7.07c0-.24.13-.4.37-.4h2.1c.24,0,.4.16.4.4v12.23c0,.24-.16.4-.4.4h-1.99c-.27,0-.4-.11-.4-.43l-.08-1.6c-.75,1.33-2.08,2.34-4.12,2.34-2.77,0-4.71-1.92-4.71-5.35Z"/>
    <path class="cls-1" d="m447.93,88.25c-.24,0-.37-.16-.37-.4v-12.23c0-.24.13-.4.37-.4h2.02c.24,0,.37.11.37.43l.11,1.6c.75-1.33,2.05-2.34,4.1-2.34,2.77,0,4.73,1.92,4.73,5.35v7.61c0,.24-.16.4-.4.4h-2.1c-.24,0-.37-.16-.37-.4v-7.07c0-2.05-1.01-3.22-2.85-3.22s-3.11,1.17-3.11,3.22v7.07c0,.24-.13.4-.37.4h-2.13Z"/>
    <path class="cls-1" d="m462.38,81.73c0-3.86,2.55-6.84,6.28-6.84,2.05,0,3.54.85,4.47,2.26v-7.53c0-.24.13-.4.37-.4h2.13c.24,0,.37.16.37.4v18.22c0,.24-.13.4-.37.4h-1.94c-.24,0-.37-.16-.37-.4l-.05-1.73c-.93,1.52-2.47,2.45-4.6,2.45-3.72,0-6.28-2.95-6.28-6.83Zm10.77.03c0-2.53-1.62-4.23-3.94-4.23s-4.04,1.7-4.04,4.2,1.7,4.2,4.04,4.2,3.94-1.68,3.94-4.18Z"/>
    <path class="cls-1" d="m485.2,85.72c-.13-.19-.13-.37.05-.58l1.12-1.28c.21-.24.43-.21.61-.03,1.09,1.25,2.23,2,3.99,2,1.94,0,3.14-.93,3.14-2.55s-1.17-2.23-2.74-2.98l-2.26-1.06c-1.97-.93-3.54-2.34-3.54-4.84,0-3.14,2.45-4.97,5.48-4.97,2.18,0,3.88.88,5.24,2.42.21.21.19.4,0,.61l-1.09,1.3c-.19.24-.4.24-.61.05-1.09-1.09-2.1-1.65-3.43-1.65-1.57,0-2.69.8-2.69,2.23,0,1.22.75,1.83,2.29,2.58l2.05.96c2.1,1.01,4.2,2.29,4.2,5.35,0,3.48-2.77,5.29-6.01,5.29-2.79,0-4.73-1.33-5.8-2.85Z"/>
    <path class="cls-1" d="m499.77,81.71c0-3.88,2.9-6.81,6.78-6.81,2.13,0,3.86.88,4.97,2.26.16.21.16.4,0,.56l-1.2,1.14c-.21.21-.48.16-.64-.03-.77-.77-1.65-1.28-3-1.28-2.45,0-4.15,1.75-4.15,4.15s1.7,4.2,4.2,4.2c1.33,0,2.21-.5,2.95-1.28.19-.19.45-.24.67-.03l1.2,1.14c.16.16.16.35,0,.56-1.12,1.38-2.85,2.26-4.95,2.26-3.91,0-6.83-2.95-6.83-6.86Z"/>
    <path class="cls-1" d="m526.32,80.24v7.61c0,.24-.16.4-.4.4h-2.1c-.24,0-.37-.16-.37-.4v-7.07c0-2.05-1.01-3.22-2.85-3.22s-3.11,1.17-3.11,3.22v7.07c0,.24-.13.4-.37.4h-2.13c-.24,0-.37-.16-.37-.4v-18.22c0-.24.13-.4.37-.4h2.13c.24,0,.37.16.37.4v7.61c.75-1.33,2.05-2.34,4.1-2.34,2.77,0,4.73,1.92,4.73,5.35Z"/>
    <path class="cls-1" d="m530.51,88.25c-.24,0-.37-.16-.37-.4v-18.22c0-.24.13-.4.37-.4h2.13c.24,0,.37.16.37.4v18.22c0,.24-.13.4-.37.4h-2.13Z"/>
    <path class="cls-1" d="m536.17,81.73c0-3.86,2.55-6.84,6.28-6.84,2.15,0,3.7.96,4.6,2.47l.05-1.75c0-.24.13-.4.37-.4h1.94c.24,0,.37.16.37.4v12.23c0,.24-.13.4-.37.4h-1.94c-.24,0-.37-.16-.37-.4l-.05-1.73c-.93,1.52-2.47,2.45-4.6,2.45-3.72,0-6.28-2.95-6.28-6.83Zm10.77.03c0-2.53-1.62-4.23-3.94-4.23s-4.04,1.7-4.04,4.2,1.7,4.2,4.04,4.2,3.94-1.68,3.94-4.18Z"/>
    <path class="cls-1" d="m554.9,88.25c-.24,0-.37-.16-.37-.4v-10.35h-1.57c-.24,0-.37-.16-.37-.4v-1.49c0-.24.13-.4.37-.4h1.57v-2.45c0-2.66,1.44-3.96,3.99-3.96.61,0,1.12.05,1.65.32.19.08.24.19.24.37v1.81c0,.19-.16.21-.32.19-.4-.05-.72-.11-1.01-.11-1.38,0-1.68.8-1.68,1.86v1.97h2.63c.24,0,.37.16.37.4v1.49c0,.24-.13.4-.37.4h-2.63v10.35c0,.24-.13.4-.37.4h-2.13Z"/>
    <path class="cls-1" d="m563.51,88.25c-.24,0-.37-.16-.37-.4v-12.23c0-.24.13-.4.37-.4h2.02c.24,0,.37.11.37.43l.08,1.41c.67-1.22,1.83-2.15,3.67-2.15,1.73,0,3.06.83,3.75,2.42.72-1.36,1.97-2.42,4.07-2.42,2.74,0,4.42,1.84,4.42,5.27v7.69c0,.24-.13.4-.37.4h-2.13c-.24,0-.37-.16-.37-.4v-7.15c0-2.02-.77-3.14-2.42-3.14s-2.66,1.14-2.66,3.14v7.15c0,.24-.13.4-.37.4h-2.1c-.27,0-.4-.16-.4-.4v-7.15c0-2.02-.85-3.14-2.47-3.14s-2.58,1.14-2.58,3.14v7.15c0,.24-.13.4-.37.4h-2.13Z"/>
    <path class="cls-1" d="m585.04,81.68c0-3.83,2.66-6.78,6.62-6.78s6.17,2.95,6.17,6.2c0,1.14-.24,1.7-1.22,1.7h-8.78c.35,2.07,1.89,3.46,4.47,3.46,1.28,0,2.31-.32,3.35-1.01.16-.11.32-.08.43.08l.75,1.01c.16.21.11.37-.11.58-1.14,1.12-2.82,1.65-4.65,1.65-4.26,0-7.02-3.01-7.02-6.89Zm10.24-.96c-.16-2.13-1.57-3.4-3.62-3.4s-3.56,1.25-3.86,3.4h7.47Z"/>
    <path class="cls-1" d="m600.32,81.73c0-3.86,2.55-6.84,6.28-6.84,2.05,0,3.54.85,4.47,2.26v-7.53c0-.24.13-.4.37-.4h2.13c.24,0,.37.16.37.4v18.22c0,.24-.13.4-.37.4h-1.94c-.24,0-.37-.16-.37-.4l-.05-1.73c-.93,1.52-2.47,2.45-4.6,2.45-3.72,0-6.28-2.95-6.28-6.83Zm10.77.03c0-2.53-1.62-4.23-3.94-4.23s-4.04,1.7-4.04,4.2,1.7,4.2,4.04,4.2,3.94-1.68,3.94-4.18Z"/>
    <path class="cls-1" d="m617.58,70.75c0-.9.72-1.65,1.68-1.65s1.65.75,1.65,1.65-.72,1.68-1.65,1.68-1.68-.75-1.68-1.68Zm.58,17.5c-.24,0-.37-.16-.37-.4v-12.23c0-.24.13-.4.37-.4h2.15c.24,0,.37.16.37.4v12.23c0,.24-.13.4-.37.4h-2.15Z"/>
    <path class="cls-1" d="m623.95,88.25c-.24,0-.37-.16-.37-.4v-1.7c0-.19.05-.35.19-.48l6.7-8.08h-6.44c-.24,0-.37-.13-.37-.37v-1.6c0-.24.13-.4.37-.4h9.26c.24,0,.4.16.4.4v1.7c0,.19-.08.35-.19.48l-6.73,8.08h6.54c.24,0,.4.13.4.37v1.6c0,.24-.16.4-.4.4h-9.36Z"/>
    <path class="cls-1" d="m636.42,70.75c0-.9.72-1.65,1.68-1.65s1.65.75,1.65,1.65-.72,1.68-1.65,1.68-1.68-.75-1.68-1.68Zm.58,17.5c-.24,0-.37-.16-.37-.4v-12.23c0-.24.13-.4.37-.4h2.15c.24,0,.37.16.37.4v12.23c0,.24-.13.4-.37.4h-2.15Z"/>
    <path class="cls-1" d="m643.72,88.25c-.24,0-.37-.16-.37-.4v-12.23c0-.24.13-.4.37-.4h2.02c.24,0,.37.11.37.43l.11,1.6c.75-1.33,2.05-2.34,4.1-2.34,2.77,0,4.73,1.92,4.73,5.35v7.61c0,.24-.16.4-.4.4h-2.1c-.24,0-.37-.16-.37-.4v-7.07c0-2.05-1.01-3.22-2.85-3.22s-3.11,1.17-3.11,3.22v7.07c0,.24-.13.4-.37.4h-2.13Z"/>
    <path class="cls-1" d="m134.66,121.25c-.24,0-.37-.16-.37-.4v-17.82c0-.24.13-.4.37-.4h4.84c6.33,0,9.47,4.04,9.47,9.31s-3.14,9.31-9.47,9.31h-4.84Zm2.61-2.66h2.18c4.41,0,6.52-2.45,6.52-6.65s-2.1-6.65-6.52-6.65h-2.18v13.3Z"/>
    <path class="cls-1" d="m153.09,121.25c-.24,0-.37-.16-.37-.4v-12.23c0-.24.13-.4.37-.4h2.02c.24,0,.37.11.37.43l.08,1.57c.48-1.3,1.33-2.31,2.9-2.31.58,0,.98.13,1.2.29.19.13.24.27.24.5v1.65c0,.32-.19.37-.5.29-.32-.08-.61-.13-.96-.13-2.05,0-2.85,1.65-2.85,3.33v7.02c0,.24-.13.4-.37.4h-2.13Z"/>
    <path class="cls-1" d="m160.81,119.79c0-1.01.82-1.83,1.83-1.83s1.81.82,1.81,1.83-.82,1.81-1.81,1.81-1.83-.8-1.83-1.81Z"/>
    <path class="cls-1" d="m173.76,121.25c-.24,0-.37-.16-.37-.4v-12.23c0-.24.13-.4.37-.4h2.02c.24,0,.37.11.37.43l.08,1.41c.67-1.22,1.83-2.15,3.67-2.15,1.73,0,3.06.83,3.75,2.42.72-1.36,1.97-2.42,4.07-2.42,2.74,0,4.42,1.84,4.42,5.27v7.69c0,.24-.13.4-.37.4h-2.13c-.24,0-.37-.16-.37-.4v-7.15c0-2.02-.77-3.14-2.42-3.14s-2.66,1.14-2.66,3.14v7.15c0,.24-.13.4-.37.4h-2.1c-.27,0-.4-.16-.4-.4v-7.15c0-2.02-.85-3.14-2.47-3.14s-2.58,1.14-2.58,3.14v7.15c0,.24-.13.4-.37.4h-2.13Z"/>
    <path class="cls-1" d="m195.32,114.68c0-3.83,2.66-6.78,6.62-6.78s6.17,2.95,6.17,6.2c0,1.14-.24,1.7-1.22,1.7h-8.78c.35,2.07,1.89,3.46,4.47,3.46,1.28,0,2.31-.32,3.35-1.01.16-.11.32-.08.43.08l.75,1.01c.16.21.11.37-.11.58-1.14,1.12-2.82,1.65-4.65,1.65-4.26,0-7.02-3.01-7.02-6.89Zm10.24-.96c-.16-2.13-1.57-3.4-3.62-3.4s-3.56,1.25-3.86,3.4h7.47Z"/>
    <path class="cls-1" d="m210.62,114.73c0-3.86,2.55-6.84,6.28-6.84,2.05,0,3.54.85,4.47,2.26v-7.53c0-.24.13-.4.37-.4h2.13c.24,0,.37.16.37.4v18.22c0,.24-.13.4-.37.4h-1.94c-.24,0-.37-.16-.37-.4l-.05-1.73c-.93,1.52-2.47,2.45-4.6,2.45-3.72,0-6.28-2.95-6.28-6.83Zm10.77.03c0-2.53-1.62-4.23-3.94-4.23s-4.04,1.7-4.04,4.2,1.7,4.2,4.04,4.2,3.94-1.68,3.94-4.18Z"/>
    <path class="cls-1" d="m227.81,119.79c0-1.01.82-1.83,1.83-1.83s1.81.82,1.81,1.83-.82,1.81-1.81,1.81-1.83-.8-1.83-1.81Z"/>
    <path class="cls-1" d="m239.73,114.73c0-3.86,2.55-6.84,6.28-6.84,2.05,0,3.54.85,4.47,2.26v-7.53c0-.24.13-.4.37-.4h2.13c.24,0,.37.16.37.4v18.22c0,.24-.13.4-.37.4h-1.94c-.24,0-.37-.16-.37-.4l-.05-1.73c-.93,1.52-2.47,2.45-4.6,2.45-3.72,0-6.28-2.95-6.28-6.83Zm10.77.03c0-2.53-1.62-4.23-3.94-4.23s-4.04,1.7-4.04,4.2,1.7,4.2,4.04,4.2,3.94-1.68,3.94-4.18Z"/>
    <path class="cls-1" d="m256.56,114.68c0-3.83,2.66-6.78,6.62-6.78s6.17,2.95,6.17,6.2c0,1.14-.24,1.7-1.22,1.7h-8.78c.35,2.07,1.89,3.46,4.47,3.46,1.28,0,2.31-.32,3.35-1.01.16-.11.32-.08.43.08l.75,1.01c.16.21.11.37-.11.58-1.14,1.12-2.82,1.65-4.65,1.65-4.26,0-7.02-3.01-7.02-6.89Zm10.24-.96c-.16-2.13-1.57-3.4-3.62-3.4s-3.56,1.25-3.86,3.4h7.47Z"/>
    <path class="cls-1" d="m272.89,121.25c-.24,0-.37-.16-.37-.4v-12.23c0-.24.13-.4.37-.4h2.02c.24,0,.37.11.37.43l.11,1.6c.75-1.33,2.05-2.34,4.1-2.34,2.77,0,4.73,1.92,4.73,5.35v7.61c0,.24-.16.4-.4.4h-2.1c-.24,0-.37-.16-.37-.4v-7.07c0-2.05-1.01-3.22-2.85-3.22s-3.11,1.17-3.11,3.22v7.07c0,.24-.13.4-.37.4h-2.13Z"/>
    <path class="cls-1" d="m288.79,118.22v-7.71h-1.68c-.24,0-.37-.16-.37-.4v-1.49c0-.24.13-.4.37-.4h1.68v-3.06c0-.24.13-.4.37-.4h2.15c.24,0,.37.16.37.4v3.06h2.1c.24,0,.4.16.4.4v1.49c0,.24-.16.4-.4.4h-2.1v7.39c0,.88.43,1.25,1.17,1.25.21,0,.53-.03.82-.05.32-.03.48.11.48.37v1.41c0,.53-1.17.69-1.97.69-1.94,0-3.4-.93-3.4-3.35Z"/>
    <path class="cls-1" d="m297.03,119.79c0-1.01.82-1.83,1.83-1.83s1.81.82,1.81,1.83-.82,1.81-1.81,1.81-1.83-.8-1.83-1.81Z"/>
    <path class="cls-1" d="m310.25,121.25c-.24,0-.37-.16-.37-.4v-17.82c0-.24.13-.4.37-.4h4.84c6.33,0,9.47,4.04,9.47,9.31s-3.14,9.31-9.47,9.31h-4.84Zm2.61-2.66h2.18c4.41,0,6.52-2.45,6.52-6.65s-2.1-6.65-6.52-6.65h-2.18v13.3Z"/>
    <path class="cls-1" d="m327.48,114.73c0-3.86,2.55-6.84,6.28-6.84,2.15,0,3.7.96,4.6,2.47l.05-1.75c0-.24.13-.4.37-.4h1.94c.24,0,.37.16.37.4v12.23c0,.24-.13.4-.37.4h-1.94c-.24,0-.37-.16-.37-.4l-.05-1.73c-.93,1.52-2.47,2.45-4.6,2.45-3.72,0-6.28-2.95-6.28-6.83Zm10.77.03c0-2.53-1.62-4.23-3.94-4.23s-4.04,1.7-4.04,4.2,1.7,4.2,4.04,4.2,3.94-1.68,3.94-4.18Z"/>
    <path class="cls-1" d="m345.36,121.25c-.24,0-.37-.16-.37-.4v-12.23c0-.24.13-.4.37-.4h2.02c.24,0,.37.11.37.43l.11,1.6c.75-1.33,2.05-2.34,4.1-2.34,2.77,0,4.73,1.92,4.73,5.35v7.61c0,.24-.16.4-.4.4h-2.1c-.24,0-.37-.16-.37-.4v-7.07c0-2.05-1.01-3.22-2.85-3.22s-3.11,1.17-3.11,3.22v7.07c0,.24-.13.4-.37.4h-2.13Z"/>
    <path class="cls-1" d="m360.29,103.75c0-.9.72-1.65,1.68-1.65s1.65.75,1.65,1.65-.72,1.68-1.65,1.68-1.68-.75-1.68-1.68Zm.58,17.5c-.24,0-.37-.16-.37-.4v-12.23c0-.24.13-.4.37-.4h2.15c.24,0,.37.16.37.4v12.23c0,.24-.13.4-.37.4h-2.15Z"/>
    <path class="cls-1" d="m366.54,114.68c0-3.83,2.66-6.78,6.62-6.78s6.17,2.95,6.17,6.2c0,1.14-.24,1.7-1.22,1.7h-8.78c.35,2.07,1.89,3.46,4.47,3.46,1.28,0,2.31-.32,3.35-1.01.16-.11.32-.08.43.08l.75,1.01c.16.21.11.37-.11.58-1.14,1.12-2.82,1.65-4.65,1.65-4.26,0-7.02-3.01-7.02-6.89Zm10.24-.96c-.16-2.13-1.57-3.4-3.62-3.4s-3.56,1.25-3.86,3.4h7.47Z"/>
    <path class="cls-1" d="m382.87,121.25c-.24,0-.37-.16-.37-.4v-18.22c0-.24.13-.4.37-.4h2.13c.24,0,.37.16.37.4v18.22c0,.24-.13.4-.37.4h-2.13Z"/>
    <path class="cls-1" d="m388.56,114.73c0-3.86,2.55-6.84,6.28-6.84,2.15,0,3.7.96,4.6,2.47l.05-1.75c0-.24.13-.4.37-.4h1.94c.24,0,.37.16.37.4v12.23c0,.24-.13.4-.37.4h-1.94c-.24,0-.37-.16-.37-.4l-.05-1.73c-.93,1.52-2.47,2.45-4.6,2.45-3.72,0-6.28-2.95-6.28-6.83Zm10.77.03c0-2.53-1.62-4.23-3.94-4.23s-4.04,1.7-4.04,4.2,1.7,4.2,4.04,4.2,3.94-1.68,3.94-4.18Z"/>
    <path class="cls-1" d="m412.41,121.25c-.24,0-.37-.16-.37-.4v-17.82c0-.24.13-.4.37-.4h2.21c.24,0,.4.16.4.4v7.71h7.71v-7.71c0-.24.16-.4.4-.4h2.21c.24,0,.37.16.37.4v17.82c0,.24-.13.4-.37.4h-2.21c-.24,0-.4-.16-.4-.4v-7.47h-7.71v7.47c0,.24-.16.4-.4.4h-2.21Z"/>
    <path class="cls-1" d="m429.46,114.73c0-3.86,2.55-6.84,6.28-6.84,2.15,0,3.7.96,4.6,2.47l.05-1.75c0-.24.13-.4.37-.4h1.94c.24,0,.37.16.37.4v12.23c0,.24-.13.4-.37.4h-1.94c-.24,0-.37-.16-.37-.4l-.05-1.73c-.93,1.52-2.47,2.45-4.6,2.45-3.72,0-6.28-2.95-6.28-6.83Zm10.77.03c0-2.53-1.62-4.23-3.94-4.23s-4.04,1.7-4.04,4.2,1.7,4.2,4.04,4.2,3.94-1.68,3.94-4.18Z"/>
    <path class="cls-1" d="m446.29,114.68c0-3.83,2.66-6.78,6.62-6.78s6.17,2.95,6.17,6.2c0,1.14-.24,1.7-1.22,1.7h-8.78c.35,2.07,1.89,3.46,4.47,3.46,1.28,0,2.31-.32,3.35-1.01.16-.11.32-.08.43.08l.75,1.01c.16.21.11.37-.11.58-1.14,1.12-2.82,1.65-4.65,1.65-4.26,0-7.02-3.01-7.02-6.89Zm10.24-.96c-.16-2.13-1.57-3.4-3.62-3.4s-3.56,1.25-3.86,3.4h7.47Z"/>
    <path class="cls-1" d="m462.62,121.25c-.24,0-.37-.16-.37-.4v-12.23c0-.24.13-.4.37-.4h2.02c.24,0,.37.11.37.43l.08,1.57c.48-1.3,1.33-2.31,2.9-2.31.58,0,.98.13,1.2.29.19.13.24.27.24.5v1.65c0,.32-.19.37-.5.29-.32-.08-.61-.13-.96-.13-2.05,0-2.85,1.65-2.85,3.33v7.02c0,.24-.13.4-.37.4h-2.13Z"/>
    <path class="cls-1" d="m472.53,121.25c-.24,0-.37-.16-.37-.4v-18.22c0-.24.13-.4.37-.4h2.13c.24,0,.37.16.37.4v18.22c0,.24-.13.4-.37.4h-2.13Z"/>
    <path class="cls-1" d="m478.21,114.68c0-3.83,2.66-6.78,6.62-6.78s6.17,2.95,6.17,6.2c0,1.14-.24,1.7-1.22,1.7h-8.78c.35,2.07,1.89,3.46,4.47,3.46,1.28,0,2.31-.32,3.35-1.01.16-.11.32-.08.43.08l.75,1.01c.16.21.11.37-.11.58-1.14,1.12-2.82,1.65-4.65,1.65-4.26,0-7.02-3.01-7.02-6.89Zm10.24-.96c-.16-2.13-1.57-3.4-3.62-3.4s-3.56,1.25-3.86,3.4h7.47Z"/>
    <path class="cls-1" d="m494.38,115c-.24,0-.37-.13-.37-.37v-1.62c0-.24.13-.37.37-.37h7.98c.24,0,.37.13.37.37v1.62c0,.24-.13.37-.37.37h-7.98Z"/>
    <path class="cls-1" d="m505.22,118.72c-.13-.19-.13-.37.05-.58l1.12-1.28c.21-.24.43-.21.61-.03,1.09,1.25,2.23,2,3.99,2,1.94,0,3.14-.93,3.14-2.55s-1.17-2.23-2.74-2.98l-2.26-1.06c-1.97-.93-3.54-2.34-3.54-4.84,0-3.14,2.45-4.97,5.48-4.97,2.18,0,3.88.88,5.24,2.42.21.21.19.4,0,.61l-1.09,1.3c-.19.24-.4.24-.61.05-1.09-1.09-2.1-1.65-3.43-1.65-1.57,0-2.69.8-2.69,2.23,0,1.22.75,1.83,2.29,2.58l2.05.96c2.1,1.01,4.2,2.29,4.2,5.35,0,3.48-2.77,5.29-6.01,5.29-2.79,0-4.73-1.33-5.8-2.85Z"/>
    <path class="cls-1" d="m519.81,114.71c0-3.88,2.9-6.81,6.78-6.81,2.13,0,3.86.88,4.97,2.26.16.21.16.4,0,.56l-1.2,1.14c-.21.21-.48.16-.64-.03-.77-.77-1.65-1.28-3-1.28-2.45,0-4.15,1.75-4.15,4.15s1.7,4.2,4.2,4.2c1.33,0,2.21-.5,2.95-1.28.19-.19.45-.24.67-.03l1.2,1.14c.16.16.16.35,0,.56-1.12,1.38-2.85,2.26-4.95,2.26-3.91,0-6.83-2.95-6.83-6.86Z"/>
    <path class="cls-1" d="m546.39,113.24v7.61c0,.24-.16.4-.4.4h-2.1c-.24,0-.37-.16-.37-.4v-7.07c0-2.05-1.01-3.22-2.85-3.22s-3.11,1.17-3.11,3.22v7.07c0,.24-.13.4-.37.4h-2.13c-.24,0-.37-.16-.37-.4v-18.22c0-.24.13-.4.37-.4h2.13c.24,0,.37.16.37.4v7.61c.75-1.33,2.05-2.34,4.1-2.34,2.77,0,4.73,1.92,4.73,5.35Z"/>
    <path class="cls-1" d="m549.49,114.68c0-3.83,2.66-6.78,6.62-6.78s6.17,2.95,6.17,6.2c0,1.14-.24,1.7-1.22,1.7h-8.78c.35,2.07,1.89,3.46,4.47,3.46,1.28,0,2.31-.32,3.35-1.01.16-.11.32-.08.43.08l.75,1.01c.16.21.11.37-.11.58-1.14,1.12-2.82,1.65-4.65,1.65-4.26,0-7.02-3.01-7.02-6.89Zm10.24-.96c-.16-2.13-1.57-3.4-3.62-3.4s-3.56,1.25-3.86,3.4h7.47Z"/>
    <path class="cls-1" d="m565.82,121.25c-.24,0-.37-.16-.37-.4v-12.23c0-.24.13-.4.37-.4h2.02c.24,0,.37.11.37.43l.11,1.6c.75-1.33,2.05-2.34,4.1-2.34,2.77,0,4.73,1.92,4.73,5.35v7.61c0,.24-.16.4-.4.4h-2.1c-.24,0-.37-.16-.37-.4v-7.07c0-2.05-1.01-3.22-2.85-3.22s-3.11,1.17-3.11,3.22v7.07c0,.24-.13.4-.37.4h-2.13Z"/>
    <path class="cls-1" d="m581.37,121.25c-.24,0-.37-.16-.37-.4v-18.22c0-.24.13-.4.37-.4h2.13c.24,0,.37.16.37.4v11.6l5.13-5.8c.13-.16.27-.21.45-.21h2.5c.32,0,.37.21.16.45l-4.6,5.08,5.32,7.05c.16.24.08.45-.24.45h-2.29c-.21,0-.35-.05-.48-.24l-4.04-5.29-1.92,2.1v3.03c0,.24-.13.4-.37.4h-2.13Z"/>
  </g>
  <path class="cls-3" d="m108.33,65.88h0c-1.92-7.97-6.29-23.5-7.52-26.37-2.01-4.88-3.88-9.23-6.48-13.2-9.16-14.02-24.72-22.06-42.67-22.06-.62,0-1.24,0-1.84.03C27.87,4.98,4.25,19.35,4.25,49.25c0,11.44,5.78,20.82,10.88,29.09,1.4,2.26,1.9,4.28,1.64,6.58-.19,1.68-.63,5.63-3.57,11.85-.45.96-.5,2.03-.15,3.03,3.67,10.27,27.34,27.04,41.31,27.04.48,0,.96-.02,1.42-.06,1.28-.11,2.43-.82,3.07-1.91,4.81-8.18,8.59-15.39,11.24-21.43,4.07.63,7.84.95,11.22.95,10,0,13.9-2.75,14.86-3.6.8-.71,1.29-1.69,1.37-2.75l1.62-21.63c1.89-.4,5.05-1.05,6.81-1.38,1.93-.36,3.32-2.05,3.32-4.01,0-.73-.32-2.41-.97-5.13Zm-17.04,7.2l-1.6,22.29c-.75.21-3.26.85-5.37.96-2.54.2-5.94,0-10.96-.68l.55-1.34c1.25-3.06,3.58-8.75,4.34-10.54,12.61-29.85,8.31-49.78-12.8-59.25-7.58-3.4-16.02-3.56-23.76-.45-8.02,3.22-14.69,9.8-17.85,17.58-4.28,10.56-1.96,21.87,6.36,31.02,2.79,3.15,5.95,5.46,9.38,6.88,2.42,5.27,5.58,9.76,9.38,13.36l.17.17c2.37,2.22,5.02,4.11,7.88,5.64,1.72.96,3.51,1.77,5.46,2.46-1.96,4.99-6.98,14.49-9.08,17.96-10.49-.94-27.97-12.99-32.24-20.68,2.81-6.49,3.31-10.96,3.5-12.65.47-4.12-.41-7.82-2.77-11.64-4.77-7.73-9.7-15.71-9.7-24.92,0-17.12,9.83-30.28,26.28-35.18,15.96-4.75,37.98-.59,49.21,16.58,2.57,3.93,4.88,8.99,7.06,15.48,1.81,5.76,5.22,19.63,5.79,22-2.87.59-5.85,1.23-6.04,1.27-1.76.37-3.08,1.89-3.21,3.68Zm-41.99.08c-1.28.14-2.56.1-3.8-.12-2.22-6.44-1.78-12.6,1.23-16.93,1.86-2.68,4.48-4.28,7.01-4.28,3.61,0,6.72,2.65,7.09,6.04.97,8.87-5.21,14.5-11.52,15.29Zm.18,7.97c5.16-.45,10.11-2.86,13.65-6.67,4.32-4.64,6.29-10.83,5.57-17.45-.81-7.48-7.25-13.11-14.98-13.11-4.22,0-8.11,1.7-11.25,4.93-4.08,4.2-6.51,10.78-6.34,17.2.04.53.08,1.07.14,1.61-2.16-2.33-4.12-5.8-4.14-5.83-2.93-5.56-3.26-11.5-.96-17.18,2.36-5.83,7.37-10.76,13.39-13.18,5.75-2.31,12.01-2.2,17.62.31,23.67,10.62,15.25,35.33,3.58,61.93-2.15-.7-4.06-1.49-5.69-2.34-1.37-.77-2.66-1.64-3.84-2.59-.01,0-1.03-.82-1.5-1.29-1.94-1.79-3.66-3.86-5.25-6.33Z"/>
</svg>