<svg width="340" height="63" viewBox="0 0 340 63" fill="none" xmlns="http://www.w3.org/2000/svg">
<g clip-path="url(#clip0_1_1524)">
<path d="M69.217 26.6183C68.9087 26.6183 68.7031 26.4128 68.7031 26.0531V1.28474C68.7031 0.976416 68.9087 0.719482 69.217 0.719482H75.9486C84.7358 0.719482 89.1036 6.32062 89.1036 13.6689C89.1036 21.0172 84.7358 26.6183 75.9486 26.6183H69.217ZM72.8654 22.9185H75.8973C82.0123 22.9185 84.9413 19.527 84.9413 13.6689C84.9413 7.81084 82.0123 4.41932 75.8973 4.41932H72.8654V22.9185Z" fill="#0B85A6"/>
<path d="M92.6484 17.5742C92.6484 12.2299 96.1941 8.06763 101.384 8.06763C104.365 8.06763 106.523 9.40368 107.807 11.5105L107.859 9.04397C107.859 8.73565 108.064 8.47872 108.373 8.47872H111.096C111.405 8.47872 111.61 8.68427 111.61 9.04397V26.0529C111.61 26.3613 111.405 26.6182 111.096 26.6182H108.373C108.064 26.6182 107.859 26.4127 107.859 26.0529L107.807 23.6378C106.523 25.7446 104.365 27.0293 101.384 27.0293C96.1941 27.0807 92.6484 22.9697 92.6484 17.5742ZM107.653 17.6255C107.653 14.1312 105.392 11.7675 102.155 11.7675C98.9176 11.7675 96.5538 14.1312 96.5538 17.6255C96.5538 21.1198 98.9176 23.4836 102.155 23.4836C105.392 23.4322 107.653 21.0684 107.653 17.6255Z" fill="#0B85A6"/>
<path d="M117.006 26.6182C116.698 26.6182 116.492 26.4126 116.492 26.0529V9.04397C116.492 8.73565 116.698 8.47872 117.006 8.47872H119.832C120.141 8.47872 120.346 8.63288 120.346 9.09536L120.5 11.305C121.528 9.45507 123.327 8.06763 126.204 8.06763C130.058 8.06763 132.782 10.7397 132.782 15.5187V26.1043C132.782 26.4126 132.576 26.6696 132.216 26.6696H129.287C128.979 26.6696 128.774 26.464 128.774 26.1043V16.2381C128.774 13.4118 127.386 11.7675 124.817 11.7675C122.247 11.7675 120.5 13.4118 120.5 16.2381V26.0529C120.5 26.3613 120.295 26.6182 119.986 26.6182H117.006V26.6182Z" fill="#0B85A6"/>
<path d="M137.305 2.3124C137.305 1.07912 138.281 0 139.617 0C140.902 0 141.929 1.02773 141.929 2.3124C141.929 3.59706 140.953 4.6248 139.617 4.6248C138.281 4.6248 137.305 3.59706 137.305 2.3124ZM138.127 26.6183C137.819 26.6183 137.613 26.4127 137.613 26.053V9.04405C137.613 8.73573 137.819 8.47879 138.127 8.47879H141.107C141.416 8.47879 141.621 8.68434 141.621 9.04405V26.053C141.621 26.3613 141.416 26.6183 141.107 26.6183H138.127V26.6183Z" fill="#0B85A6"/>
<path d="M145.475 17.4715C145.475 12.1273 149.174 8.01636 154.673 8.01636C160.12 8.01636 163.254 12.1273 163.254 16.6493C163.254 18.2423 162.946 19.0131 161.559 19.0131H149.329C149.791 21.8907 151.949 23.8434 155.546 23.8434C157.345 23.8434 158.784 23.381 160.223 22.456C160.428 22.3018 160.685 22.3532 160.839 22.5588L161.867 23.9462C162.072 24.2545 162.021 24.4601 161.713 24.7684C160.12 26.31 157.807 27.0808 155.238 27.0808C149.329 27.0808 145.475 22.9185 145.475 17.4715ZM159.709 16.1868C159.503 13.2064 157.55 11.4593 154.673 11.4593C151.847 11.4593 149.74 13.2064 149.329 16.1868H159.709Z" fill="#0B85A6"/>
<path d="M167.725 26.6182C167.416 26.6182 167.211 26.4126 167.211 26.0529V0.719306C167.211 0.410986 167.416 0.154053 167.725 0.154053H170.705C171.014 0.154053 171.219 0.359599 171.219 0.719306V26.0529C171.219 26.3612 171.014 26.6182 170.705 26.6182H167.725Z" fill="#0B85A6"/>
<path d="M175.125 17.5742C175.125 12.2299 178.671 8.06763 183.861 8.06763C186.841 8.06763 188.999 9.40368 190.284 11.5105L190.335 9.04397C190.335 8.73565 190.541 8.47872 190.849 8.47872H193.573C193.881 8.47872 194.087 8.68427 194.087 9.04397V26.0529C194.087 26.3613 193.881 26.6182 193.573 26.6182H190.849C190.541 26.6182 190.335 26.4127 190.335 26.0529L190.284 23.6378C188.999 25.7446 186.841 27.0293 183.861 27.0293C178.671 27.0807 175.125 22.9697 175.125 17.5742ZM190.079 17.6255C190.079 14.1312 187.818 11.7675 184.58 11.7675C181.343 11.7675 178.979 14.1312 178.979 17.6255C178.979 21.1198 181.343 23.4836 184.58 23.4836C187.818 23.4322 190.079 21.0684 190.079 17.6255Z" fill="#0B85A6"/>
<path d="M69.217 62.5375C68.9087 62.5375 68.7031 62.332 68.7031 61.9723V37.2039C68.7031 36.8956 68.9087 36.6387 69.217 36.6387H72.3002C72.6085 36.6387 72.8654 36.8442 72.8654 37.2039V47.9437H83.6052V37.2039C83.6052 36.8956 83.8108 36.6387 84.1705 36.6387H87.2537C87.562 36.6387 87.7676 36.8442 87.7676 37.2039V61.9723C87.7676 62.2806 87.562 62.5375 87.2537 62.5375H84.1705C83.8622 62.5375 83.6052 62.332 83.6052 61.9723V51.5922H72.8654V61.9723C72.8654 62.2806 72.6599 62.5375 72.3002 62.5375H69.217Z" fill="#0B85A6"/>
<path d="M92.4434 53.4936C92.4434 48.1494 95.989 43.9871 101.179 43.9871C104.16 43.9871 106.318 45.3231 107.602 47.43L107.654 44.9634C107.654 44.6551 107.859 44.3982 108.168 44.3982H110.891C111.199 44.3982 111.405 44.6037 111.405 44.9634V61.9724C111.405 62.2807 111.199 62.5376 110.891 62.5376H108.168C107.859 62.5376 107.654 62.3321 107.654 61.9724L107.602 59.5572C106.318 61.6641 104.16 62.9487 101.179 62.9487C95.989 63.0001 92.4434 58.8892 92.4434 53.4936ZM107.397 53.4936C107.397 49.9993 105.136 47.6355 101.898 47.6355C98.6611 47.6355 96.2974 49.9993 96.2974 53.4936C96.2974 56.9879 98.6611 59.3517 101.898 59.3517C105.136 59.3517 107.397 56.9879 107.397 53.4936Z" fill="#0B85A6"/>
<path d="M115.311 53.3907C115.311 48.0465 119.01 43.9355 124.509 43.9355C129.956 43.9355 133.09 48.0465 133.09 52.5685C133.09 54.1615 132.782 54.9323 131.395 54.9323H119.216C119.678 57.8099 121.837 59.7626 125.434 59.7626C127.232 59.7626 128.671 59.3001 130.11 58.3752C130.315 58.221 130.572 58.2724 130.727 58.478L131.754 59.8654C131.96 60.1737 131.908 60.3793 131.6 60.6876C130.007 62.2292 127.695 63 125.125 63C119.165 63 115.311 58.7863 115.311 53.3907ZM129.596 52.0546C129.39 49.0742 127.438 47.3271 124.56 47.3271C121.734 47.3271 119.627 49.0742 119.216 52.0546H129.596Z" fill="#0B85A6"/>
<path d="M137.561 62.5375C137.252 62.5375 137.047 62.332 137.047 61.9722V44.9633C137.047 44.655 137.252 44.398 137.561 44.398H140.387C140.695 44.398 140.901 44.5522 140.901 45.0147L141.004 47.1729C141.672 45.3744 142.854 43.9355 145.012 43.9355C145.834 43.9355 146.399 44.1411 146.656 44.3466C146.913 44.5522 146.964 44.7063 146.964 45.0661V47.3784C146.964 47.8409 146.708 47.8923 146.245 47.7895C145.783 47.6868 145.372 47.584 144.909 47.584C142.083 47.584 140.952 49.8964 140.952 52.2088V61.9722C140.952 62.2806 140.747 62.5375 140.438 62.5375H137.561Z" fill="#0B85A6"/>
<path d="M150.819 62.5376C150.51 62.5376 150.305 62.332 150.305 61.9723V36.6387C150.305 36.3304 150.51 36.0735 150.819 36.0735H153.799C154.107 36.0735 154.313 36.279 154.313 36.6387V61.9723C154.313 62.2807 154.107 62.5376 153.799 62.5376H150.819V62.5376Z" fill="#0B85A6"/>
<path d="M158.219 53.3907C158.219 48.0465 161.919 43.9355 167.417 43.9355C172.864 43.9355 175.999 48.0465 175.999 52.5685C175.999 54.1615 175.69 54.9323 174.303 54.9323H162.073C162.535 57.8099 164.693 59.7626 168.291 59.7626C170.089 59.7626 171.528 59.3001 172.967 58.3752C173.172 58.221 173.429 58.2724 173.583 58.478L174.611 59.8654C174.817 60.1737 174.765 60.3793 174.457 60.6876C172.864 62.2292 170.552 63 167.982 63C162.073 63 158.219 58.7863 158.219 53.3907ZM172.453 52.0546C172.247 49.0742 170.295 47.3271 167.417 47.3271C164.591 47.3271 162.484 49.0742 162.073 52.0546H172.453Z" fill="#0B85A6"/>
<path d="M53.4935 31.6542C52.5171 27.5432 50.2561 19.5783 49.6395 18.0881C48.6117 15.5701 47.6354 13.3605 46.2993 11.3051C41.5718 4.11093 33.6069 0 24.3573 0C24.0489 0 23.7406 0 23.4323 0C12.1272 0.359706 0 7.75938 0 23.124C0 28.9821 2.98042 33.8124 5.60114 38.0775C6.32055 39.2594 6.57749 40.2871 6.42333 41.469C6.32055 42.3426 6.11501 44.3467 4.57341 47.584C4.31648 48.0979 4.31648 48.6117 4.52202 49.1256C6.42333 54.4184 18.5506 63 25.7447 63C26.0016 63 26.2586 63 26.4641 62.9486C27.1321 62.8972 27.6974 62.5375 28.0571 61.9723C30.5237 57.7586 32.4763 54.0587 33.8124 50.9755C35.9193 51.2838 37.8206 51.4894 39.5677 51.4894C44.7064 51.4894 46.7104 50.0506 47.2243 49.6395C47.6354 49.2798 47.8923 48.7659 47.9437 48.2007L48.7659 37.1011C49.7423 36.8956 51.3352 36.5359 52.2602 36.3817C53.2365 36.1762 53.956 35.354 53.956 34.3263C53.956 33.9152 53.8018 33.0416 53.4935 31.6542ZM44.7064 35.354L43.8842 46.8132C43.4731 46.916 42.1884 47.2243 41.1093 47.3271C39.8246 47.4299 38.0775 47.3271 35.4568 46.9674L35.7651 46.2993C36.4331 44.7064 37.615 41.7773 37.9747 40.9038C44.4494 25.5905 42.2398 15.3132 31.3972 10.4829C27.4918 8.73573 23.1754 8.63295 19.1672 10.2773C15.0563 11.9217 11.6134 15.3132 10.0204 19.3214C7.81077 24.7684 8.99266 30.575 13.3091 35.2512C14.748 36.8442 16.3923 38.0775 18.1395 38.7969C19.3728 41.5204 21.0171 43.8328 22.9698 45.6827L23.0726 45.7855C24.3059 46.916 25.6419 47.8923 27.1321 48.6631C28.0057 49.177 28.9307 49.5881 29.9584 49.9478C28.9307 52.5171 26.3613 57.3989 25.2822 59.1974C19.8866 58.7349 10.894 52.5171 8.73573 48.5604C10.1746 45.2202 10.4315 42.9078 10.5343 42.0343C10.7912 39.9274 10.3287 38.0261 9.09543 36.0734C6.62887 31.9625 4.05954 27.8516 4.05954 23.124C4.05954 14.3369 9.09543 7.55383 17.5742 5.03589C25.7961 2.56933 37.1011 4.72757 42.8564 13.5661C44.1925 15.5701 45.3744 18.1909 46.5049 21.531C47.4299 24.5114 49.177 31.6028 49.4853 32.8361C47.9951 33.1444 46.4535 33.4527 46.4021 33.5041C45.4772 33.6582 44.8091 34.429 44.7064 35.354ZM23.124 35.4054C22.456 35.4568 21.7879 35.4568 21.1713 35.354C20.0408 32.0653 20.2463 28.8793 21.7879 26.6697C22.7643 25.2822 24.1003 24.46 25.385 24.46C27.2349 24.46 28.8279 25.8475 29.0334 27.5432C29.5473 32.1166 26.3613 34.9943 23.124 35.4054ZM23.2268 39.5163C25.8989 39.2594 28.4168 38.0261 30.2667 36.0734C32.4763 33.7096 33.5041 30.5237 33.1444 27.1321C32.7333 23.2781 29.3931 20.4005 25.4364 20.4005C23.2781 20.4005 21.2741 21.2741 19.6811 22.9184C17.5742 25.0767 16.3409 28.4682 16.4437 31.7569C16.4437 32.0139 16.4951 32.3222 16.4951 32.5791C15.3646 31.3972 14.3883 29.5987 14.3883 29.5987C12.8467 26.721 12.6411 23.6378 13.823 20.7602C15.0563 17.7798 17.6256 15.2104 20.7088 13.9772C23.6892 12.7953 26.8752 12.8467 29.7529 14.1313C41.9315 19.5783 37.5636 32.2708 31.6028 45.9396C30.5237 45.5799 29.4959 45.1688 28.6737 44.7577C27.9543 44.3467 27.2863 43.9356 26.721 43.4217C26.721 43.4217 26.2072 43.0106 25.9502 42.7537C24.9225 41.8287 24.0489 40.7496 23.2268 39.5163Z" fill="url(#paint0_linear_1_1524)"/>
<path d="M211.148 16.7008C211.046 16.7008 210.994 16.6494 210.994 16.5466V8.78722C210.994 8.68444 211.046 8.63306 211.148 8.63306H213.255C216.03 8.63306 217.366 10.3802 217.366 12.6926C217.366 15.005 215.979 16.7521 213.255 16.7521H211.148V16.7008ZM212.279 15.5703H213.204C215.105 15.5703 216.03 14.4911 216.03 12.6926C216.03 10.8427 215.105 9.81495 213.204 9.81495H212.279V15.5703Z" fill="#003067"/>
<path d="M219.113 16.7007C219.01 16.7007 218.959 16.6493 218.959 16.5466V11.2024C218.959 11.0996 219.01 11.0482 219.113 11.0482H219.987C220.089 11.0482 220.141 11.0996 220.141 11.2537L220.192 11.9218C220.398 11.3565 220.758 10.894 221.477 10.894C221.734 10.894 221.888 10.9454 221.991 10.9968C222.094 11.0482 222.094 11.0996 222.094 11.2024V11.9218C222.094 12.0759 221.991 12.0759 221.888 12.0245C221.734 11.9732 221.631 11.9732 221.477 11.9732C220.603 11.9732 220.244 12.6926 220.244 13.412V16.4438C220.244 16.5466 220.192 16.598 220.089 16.598H219.113V16.7007Z" fill="#003067"/>
<path d="M221.99 16.0841C221.99 15.6217 222.35 15.262 222.812 15.262C223.223 15.262 223.583 15.6217 223.583 16.0841C223.583 16.5466 223.223 16.8549 222.812 16.8549C222.299 16.8549 221.99 16.4952 221.99 16.0841Z" fill="#003067"/>
<path d="M227.488 16.7009C227.385 16.7009 227.334 16.6495 227.334 16.5467V11.2025C227.334 11.0997 227.385 11.0483 227.488 11.0483H228.362C228.464 11.0483 228.516 11.0997 228.516 11.2539L228.567 11.8705C228.876 11.3567 229.389 10.9456 230.16 10.9456C230.931 10.9456 231.496 11.3053 231.805 11.9733C232.113 11.408 232.678 10.9456 233.552 10.9456C234.734 10.9456 235.453 11.7677 235.453 13.258V16.5981C235.453 16.7009 235.402 16.7522 235.299 16.7522H234.374C234.271 16.7522 234.22 16.7009 234.22 16.5981V13.4635C234.22 12.5899 233.86 12.0761 233.192 12.0761C232.473 12.0761 232.01 12.5899 232.01 13.4635V16.5981C232.01 16.7009 231.959 16.7522 231.856 16.7522H230.931C230.828 16.7522 230.777 16.7009 230.777 16.5981V13.4635C230.777 12.5899 230.417 12.0761 229.698 12.0761C228.978 12.0761 228.567 12.5899 228.567 13.4635V16.5981C228.567 16.7009 228.516 16.7522 228.413 16.7522H227.488V16.7009Z" fill="#003067"/>
<path d="M236.789 13.8746C236.789 12.2302 237.971 10.9456 239.667 10.9456C241.362 10.9456 242.339 12.2302 242.339 13.6177C242.339 14.1315 242.236 14.3371 241.825 14.3371H238.022C238.177 15.262 238.845 15.8273 239.975 15.8273C240.54 15.8273 241.003 15.6731 241.414 15.3648C241.465 15.3134 241.568 15.3134 241.619 15.4162L241.928 15.8787C241.979 15.9814 241.979 16.0328 241.876 16.1356C241.362 16.5981 240.643 16.855 239.872 16.855C238.022 16.855 236.789 15.519 236.789 13.8746ZM241.26 13.4121C241.208 12.4872 240.592 11.9219 239.667 11.9219C238.793 11.9219 238.125 12.4872 237.971 13.4121H241.26Z" fill="#003067"/>
<path d="M243.418 13.8745C243.418 12.1787 244.548 10.894 246.141 10.894C247.015 10.894 247.683 11.2538 248.094 11.8704V8.58165C248.094 8.47888 248.146 8.42749 248.248 8.42749H249.173C249.276 8.42749 249.327 8.47888 249.327 8.58165V16.4952C249.327 16.598 249.276 16.6494 249.173 16.6494H248.351C248.248 16.6494 248.197 16.598 248.197 16.4952V15.7244C247.786 16.3924 247.118 16.8035 246.193 16.8035C244.548 16.8549 243.418 15.5702 243.418 13.8745ZM248.094 13.8745C248.094 12.7954 247.375 12.0246 246.398 12.0246C245.371 12.0246 244.651 12.744 244.651 13.8745C244.651 14.9536 245.371 15.7244 246.398 15.7244C247.375 15.7244 248.094 14.9536 248.094 13.8745Z" fill="#003067"/>
<path d="M250.869 16.0841C250.869 15.6217 251.229 15.262 251.691 15.262C252.102 15.262 252.462 15.6217 252.462 16.0841C252.462 16.5466 252.102 16.8549 251.691 16.8549C251.229 16.8549 250.869 16.4952 250.869 16.0841Z" fill="#003067"/>
<path d="M255.906 13.8745C255.906 12.1787 257.037 10.894 258.63 10.894C259.503 10.894 260.171 11.2538 260.582 11.8704V8.58165C260.582 8.47888 260.634 8.42749 260.737 8.42749H261.662C261.764 8.42749 261.816 8.47888 261.816 8.58165V16.4952C261.816 16.598 261.764 16.6494 261.662 16.6494H260.839C260.737 16.6494 260.685 16.598 260.685 16.4952V15.7244C260.274 16.3924 259.606 16.8035 258.681 16.8035C257.037 16.8549 255.906 15.5702 255.906 13.8745ZM260.582 13.8745C260.582 12.7954 259.863 12.0246 258.887 12.0246C257.859 12.0246 257.14 12.744 257.14 13.8745C257.14 14.9536 257.859 15.7244 258.887 15.7244C259.914 15.7244 260.582 14.9536 260.582 13.8745Z" fill="#003067"/>
<path d="M263.203 13.8746C263.203 12.2302 264.385 10.9456 266.081 10.9456C267.777 10.9456 268.753 12.2302 268.753 13.6177C268.753 14.1315 268.65 14.3371 268.239 14.3371H264.436C264.591 15.262 265.259 15.8273 266.389 15.8273C266.954 15.8273 267.417 15.6731 267.828 15.3648C267.879 15.3134 267.982 15.3134 268.033 15.4162L268.342 15.8787C268.393 15.9814 268.393 16.0328 268.29 16.1356C267.777 16.5981 267.057 16.855 266.286 16.855C264.385 16.855 263.203 15.519 263.203 13.8746ZM267.622 13.4121C267.571 12.4872 266.954 11.9219 266.029 11.9219C265.156 11.9219 264.488 12.4872 264.334 13.4121H267.622Z" fill="#003067"/>
<path d="M270.242 16.7009C270.139 16.7009 270.088 16.6495 270.088 16.5467V11.2025C270.088 11.0997 270.139 11.0483 270.242 11.0483H271.116C271.218 11.0483 271.27 11.0997 271.27 11.2539L271.321 11.9733C271.629 11.408 272.195 10.9456 273.12 10.9456C274.302 10.9456 275.175 11.7677 275.175 13.258V16.5467C275.175 16.6495 275.124 16.7009 275.021 16.7009H274.096C273.993 16.7009 273.942 16.6495 273.942 16.5467V13.4635C273.942 12.5899 273.479 12.0761 272.709 12.0761C271.886 12.0761 271.373 12.5899 271.373 13.4635V16.5467C271.373 16.6495 271.321 16.7009 271.218 16.7009H270.242V16.7009Z" fill="#003067"/>
<path d="M277.127 15.4161V12.0759H276.408C276.305 12.0759 276.254 12.0245 276.254 11.9218V11.2537C276.254 11.151 276.305 11.0996 276.408 11.0996H277.127V9.76353C277.127 9.66076 277.179 9.60938 277.282 9.60938H278.207C278.309 9.60938 278.361 9.66076 278.361 9.76353V11.0996H279.286C279.388 11.0996 279.44 11.151 279.44 11.2537V11.9218C279.44 12.0245 279.388 12.0759 279.286 12.0759H278.361V15.3133C278.361 15.673 278.566 15.8785 278.875 15.8785C278.977 15.8785 279.08 15.8785 279.234 15.8785C279.389 15.8785 279.44 15.9299 279.44 16.0327V16.6493C279.44 16.9063 278.926 16.9577 278.566 16.9577C277.744 16.8549 277.127 16.4438 277.127 15.4161Z" fill="#003067"/>
<path d="M280.674 16.0841C280.674 15.6217 281.034 15.262 281.496 15.262C281.907 15.262 282.267 15.6217 282.267 16.0841C282.267 16.5466 281.907 16.8549 281.496 16.8549C281.034 16.8549 280.674 16.4952 280.674 16.0841Z" fill="#003067"/>
<path d="M210.48 30.8833C210.429 30.7806 210.429 30.7292 210.48 30.6264L210.942 30.0612C211.045 29.9584 211.148 29.9584 211.199 30.0612C211.662 30.6264 212.176 30.9347 212.946 30.9347C213.769 30.9347 214.334 30.5236 214.334 29.8042C214.334 29.0848 213.82 28.8279 213.152 28.5196L212.176 28.0571C211.302 27.646 210.634 27.0293 210.634 25.9502C210.634 24.5628 211.713 23.792 212.998 23.792C213.923 23.792 214.694 24.1517 215.259 24.8197C215.362 24.9225 215.362 24.9739 215.259 25.0767L214.796 25.6419C214.694 25.7447 214.642 25.7447 214.539 25.6419C214.077 25.1794 213.615 24.9225 213.049 24.9225C212.381 24.9225 211.867 25.2822 211.867 25.8988C211.867 26.4127 212.176 26.721 212.844 27.0293L213.717 27.4404C214.642 27.9029 215.567 28.4168 215.567 29.7528C215.567 31.2431 214.385 32.0652 212.946 32.0652C211.765 32.1166 210.942 31.5514 210.48 30.8833Z" fill="#003067"/>
<path d="M216.801 29.1362C216.801 27.4404 218.085 26.1558 219.73 26.1558C220.655 26.1558 221.426 26.5155 221.888 27.1321C221.939 27.2349 221.939 27.2863 221.888 27.389L221.374 27.9029C221.271 28.0057 221.169 27.9543 221.117 27.9029C220.758 27.5432 220.398 27.3377 219.833 27.3377C218.753 27.3377 218.034 28.1085 218.034 29.1362C218.034 30.1639 218.753 30.9861 219.884 30.9861C220.449 30.9861 220.86 30.7806 221.169 30.4208C221.271 30.3181 221.374 30.3181 221.477 30.4208L221.991 30.9347C222.042 30.9861 222.042 31.0889 221.991 31.1916C221.528 31.8083 220.758 32.168 219.833 32.168C218.034 32.1166 216.801 30.8319 216.801 29.1362Z" fill="#003067"/>
<path d="M228.311 28.5197V31.8084C228.311 31.9112 228.26 31.9626 228.157 31.9626H227.232C227.129 31.9626 227.078 31.9112 227.078 31.8084V28.7252C227.078 27.8517 226.616 27.3378 225.845 27.3378C225.023 27.3378 224.509 27.8517 224.509 28.7252V31.8084C224.509 31.9112 224.457 31.9626 224.355 31.9626H223.43C223.327 31.9626 223.275 31.9112 223.275 31.8084V23.8949C223.275 23.7921 223.327 23.7407 223.43 23.7407H224.355C224.457 23.7407 224.509 23.7921 224.509 23.8949V27.1836C224.817 26.6184 225.382 26.1559 226.307 26.1559C227.438 26.2073 228.311 27.0295 228.311 28.5197Z" fill="#003067"/>
<path d="M230.109 32.0138C230.006 32.0138 229.955 31.9625 229.955 31.8597V26.5155C229.955 26.4127 230.006 26.3613 230.109 26.3613H230.983C231.086 26.3613 231.137 26.4127 231.137 26.5669L231.188 27.1835C231.497 26.6696 232.011 26.2585 232.781 26.2585C233.552 26.2585 234.117 26.6183 234.426 27.2863C234.734 26.721 235.299 26.2585 236.173 26.2585C237.355 26.2585 238.074 27.0807 238.074 28.5709V31.9111C238.074 32.0138 238.023 32.0652 237.92 32.0652H236.995C236.892 32.0652 236.841 32.0138 236.841 31.9111V28.7765C236.841 27.9029 236.481 27.3891 235.813 27.3891C235.094 27.3891 234.631 27.9029 234.631 28.7765V31.9111C234.631 32.0138 234.58 32.0652 234.477 32.0652H233.552C233.449 32.0652 233.398 32.0138 233.398 31.9111V28.7765C233.398 27.9029 233.038 27.3891 232.319 27.3891C231.599 27.3891 231.188 27.9029 231.188 28.7765V31.9111C231.188 32.0138 231.137 32.0652 231.034 32.0652H230.109V32.0138Z" fill="#003067"/>
<path d="M239.41 29.1363C239.41 27.4919 240.592 26.2073 242.288 26.2073C243.984 26.2073 244.96 27.4919 244.96 28.8794C244.96 29.3932 244.857 29.5988 244.446 29.5988H240.643C240.798 30.5238 241.466 31.089 242.596 31.089C243.161 31.089 243.624 30.9348 244.035 30.6265C244.086 30.5751 244.189 30.5751 244.24 30.6779L244.549 31.1404C244.6 31.2432 244.6 31.2946 244.497 31.3973C243.984 31.8598 243.264 32.1167 242.493 32.1167C240.592 32.1167 239.41 30.8321 239.41 29.1363ZM243.881 28.7252C243.829 27.8003 243.213 27.235 242.288 27.235C241.414 27.235 240.746 27.8003 240.592 28.7252H243.881Z" fill="#003067"/>
<path d="M246.451 32.014C246.348 32.014 246.297 31.9626 246.297 31.8598V26.5156C246.297 26.4128 246.348 26.3614 246.451 26.3614H247.325C247.427 26.3614 247.479 26.4128 247.479 26.567L247.53 27.235C247.736 26.6698 248.095 26.2073 248.815 26.2073C249.072 26.2073 249.226 26.2587 249.329 26.31C249.431 26.3614 249.431 26.4128 249.431 26.5156V27.235C249.431 27.3892 249.329 27.3892 249.226 27.3378C249.072 27.2864 248.969 27.2864 248.815 27.2864C247.941 27.2864 247.582 28.0058 247.582 28.7252V31.757C247.582 31.8598 247.53 31.9112 247.427 31.9112H246.451V32.014Z" fill="#003067"/>
<path d="M250.613 32.014C250.51 32.014 250.459 31.9626 250.459 31.8598V31.1404C250.459 31.0376 250.459 30.9863 250.562 30.9349L253.491 27.4406H250.716C250.613 27.4406 250.562 27.3892 250.562 27.2864V26.567C250.562 26.4642 250.613 26.4128 250.716 26.4128H254.724C254.827 26.4128 254.878 26.4642 254.878 26.567V27.235C254.878 27.3378 254.827 27.3892 254.775 27.4406L251.846 30.9349H254.673C254.775 30.9349 254.827 30.9863 254.827 31.089V31.8084C254.827 31.9112 254.775 31.9626 254.673 31.9626H250.613V32.014Z" fill="#003067"/>
<path d="M256.009 31.2431C255.958 31.1403 255.958 31.0375 256.009 30.9347L256.318 30.5236C256.42 30.4209 256.523 30.4209 256.574 30.5236C256.986 30.8833 257.397 31.1403 257.911 31.1403C258.424 31.1403 258.784 30.9347 258.784 30.4723C258.784 30.0612 258.527 29.907 258.065 29.7015L257.345 29.4445C256.626 29.1362 256.061 28.7251 256.061 27.9029C256.061 26.8752 256.934 26.2585 257.911 26.2585C258.63 26.2585 259.247 26.5669 259.709 27.0807C259.76 27.1835 259.76 27.2349 259.709 27.3377L259.349 27.7488C259.247 27.8515 259.195 27.8515 259.092 27.7488C258.733 27.3891 258.373 27.2349 258.013 27.2349C257.551 27.2349 257.294 27.4404 257.294 27.8515C257.294 28.2626 257.602 28.4168 258.013 28.6223L258.681 28.8793C259.401 29.1876 259.966 29.6501 259.966 30.5236C259.966 31.6541 258.99 32.2194 257.911 32.2194C257.088 32.1166 256.42 31.7055 256.009 31.2431Z" fill="#003067"/>
<path d="M261.558 34.1722C261.456 34.1722 261.404 34.1208 261.404 34.018V26.5156C261.404 26.4128 261.456 26.3614 261.558 26.3614H262.381C262.483 26.3614 262.535 26.4128 262.535 26.5156V27.2864C262.946 26.6184 263.614 26.2073 264.539 26.2073C266.183 26.2073 267.262 27.4919 267.262 29.1877C267.262 30.8835 266.132 32.1681 264.539 32.1681C263.665 32.1681 262.997 31.8084 262.586 31.1918V34.0694C262.586 34.1722 262.535 34.2236 262.432 34.2236H261.558V34.1722ZM266.08 29.1363C266.08 28.0572 265.361 27.2864 264.333 27.2864C263.306 27.2864 262.638 28.0058 262.638 29.1363C262.638 30.2154 263.357 30.9348 264.333 30.9348C265.361 30.9862 266.08 30.2668 266.08 29.1363Z" fill="#003067"/>
<path d="M268.342 29.1363C268.342 27.4919 269.524 26.2073 271.219 26.2073C272.915 26.2073 273.892 27.4919 273.892 28.8794C273.892 29.3932 273.789 29.5988 273.378 29.5988H269.575C269.729 30.5238 270.397 31.089 271.528 31.089C272.093 31.089 272.555 30.9348 272.967 30.6265C273.018 30.5751 273.121 30.5751 273.172 30.6779L273.48 31.1404C273.532 31.2432 273.532 31.2946 273.429 31.3973C272.915 31.8598 272.196 32.1167 271.425 32.1167C269.575 32.1167 268.342 30.8321 268.342 29.1363ZM272.812 28.7252C272.761 27.8003 272.144 27.235 271.219 27.235C270.346 27.235 269.678 27.8003 269.524 28.7252H272.812Z" fill="#003067"/>
<path d="M274.971 32.014C274.868 32.014 274.816 31.9626 274.816 31.8598V31.1404C274.816 31.0376 274.816 30.9863 274.919 30.9349L277.848 27.4406H275.073C274.971 27.4406 274.919 27.3892 274.919 27.2864V26.567C274.919 26.4642 274.971 26.4128 275.073 26.4128H279.082C279.184 26.4128 279.236 26.4642 279.236 26.567V27.235C279.236 27.3378 279.184 27.3892 279.133 27.4406L276.204 30.9349H279.03C279.133 30.9349 279.184 30.9863 279.184 31.089V31.8084C279.184 31.9112 279.133 31.9626 279.03 31.9626H274.971V32.014Z" fill="#003067"/>
<path d="M280.365 24.3574C280.365 23.9463 280.674 23.6379 281.085 23.6379C281.496 23.6379 281.804 23.9463 281.804 24.3574C281.804 24.7684 281.496 25.0768 281.085 25.0768C280.674 25.1282 280.365 24.7684 280.365 24.3574ZM280.622 32.014C280.519 32.014 280.468 31.9626 280.468 31.8598V26.5156C280.468 26.4128 280.519 26.3614 280.622 26.3614H281.547C281.65 26.3614 281.701 26.4128 281.701 26.5156V31.8598C281.701 31.9626 281.65 32.014 281.547 32.014H280.622Z" fill="#003067"/>
<path d="M283.037 29.1362C283.037 27.4404 284.168 26.1558 285.761 26.1558C286.686 26.1558 287.354 26.5669 287.765 27.2349V26.4641C287.765 26.3613 287.816 26.3099 287.919 26.3099H288.741C288.844 26.3099 288.895 26.3613 288.895 26.4641V31.8083C288.895 31.9111 288.844 31.9624 288.741 31.9624H287.919C287.816 31.9624 287.765 31.9111 287.765 31.8083V31.0375C287.354 31.7055 286.686 32.1166 285.761 32.1166C284.116 32.1166 283.037 30.8319 283.037 29.1362ZM287.713 29.1876C287.713 28.1085 286.994 27.3377 286.018 27.3377C284.99 27.3377 284.27 28.0571 284.27 29.1876C284.27 30.2667 284.99 31.0375 286.018 31.0375C286.994 30.9861 287.713 30.2667 287.713 29.1876Z" fill="#003067"/>
<path d="M290.746 32.014C290.643 32.014 290.592 31.9626 290.592 31.8598V23.8949C290.592 23.7921 290.643 23.7407 290.746 23.7407H291.671C291.774 23.7407 291.825 23.7921 291.825 23.8949V31.8084C291.825 31.9112 291.774 31.9626 291.671 31.9626H290.746V32.014Z" fill="#003067"/>
<path d="M293.367 24.3574C293.367 23.9463 293.675 23.6379 294.087 23.6379C294.498 23.6379 294.806 23.9463 294.806 24.3574C294.806 24.7684 294.498 25.0768 294.087 25.0768C293.675 25.1282 293.367 24.7684 293.367 24.3574ZM293.624 32.014C293.521 32.014 293.47 31.9626 293.47 31.8598V26.5156C293.47 26.4128 293.521 26.3614 293.624 26.3614H294.549C294.652 26.3614 294.703 26.4128 294.703 26.5156V31.8598C294.703 31.9626 294.652 32.014 294.549 32.014H293.624Z" fill="#003067"/>
<path d="M296.089 31.2431C296.038 31.1403 296.038 31.0375 296.089 30.9347L296.398 30.5236C296.5 30.4209 296.603 30.4209 296.655 30.5236C297.066 30.8833 297.477 31.1403 297.991 31.1403C298.505 31.1403 298.864 30.9347 298.864 30.4723C298.864 30.0612 298.607 29.907 298.145 29.7015L297.425 29.4445C296.706 29.1362 296.141 28.7251 296.141 27.9029C296.141 26.8752 297.014 26.2585 297.991 26.2585C298.71 26.2585 299.327 26.5669 299.789 27.0807C299.841 27.1835 299.841 27.2349 299.789 27.3377L299.429 27.7488C299.327 27.8515 299.275 27.8515 299.173 27.7488C298.813 27.3891 298.453 27.2349 298.093 27.2349C297.631 27.2349 297.374 27.4404 297.374 27.8515C297.374 28.2626 297.682 28.4168 298.093 28.6223L298.761 28.8793C299.481 29.1876 300.046 29.6501 300.046 30.5236C300.046 31.6541 299.07 32.2194 297.991 32.2194C297.168 32.1166 296.5 31.7055 296.089 31.2431Z" fill="#003067"/>
<path d="M301.948 30.6778V27.3377H301.228C301.126 27.3377 301.074 27.2863 301.074 27.1835V26.5155C301.074 26.4127 301.126 26.3613 301.228 26.3613H301.948V25.0253C301.948 24.9225 301.999 24.8711 302.102 24.8711H303.027C303.13 24.8711 303.181 24.9225 303.181 25.0253V26.3613H304.106C304.209 26.3613 304.26 26.4127 304.26 26.5155V27.1835C304.26 27.2863 304.209 27.3377 304.106 27.3377H303.181V30.575C303.181 30.9347 303.387 31.1403 303.695 31.1403C303.798 31.1403 303.9 31.1403 304.055 31.1403C304.209 31.1403 304.26 31.1917 304.26 31.2944V31.9111C304.26 32.168 303.746 32.2194 303.387 32.2194C302.564 32.1166 301.948 31.7055 301.948 30.6778Z" fill="#003067"/>
<path d="M305.391 24.3574C305.391 23.9463 305.699 23.6379 306.11 23.6379C306.521 23.6379 306.829 23.9463 306.829 24.3574C306.829 24.7684 306.521 25.0768 306.11 25.0768C305.699 25.1282 305.391 24.7684 305.391 24.3574ZM305.648 32.014C305.545 32.014 305.493 31.9626 305.493 31.8598V26.5156C305.493 26.4128 305.545 26.3614 305.648 26.3614H306.573C306.675 26.3614 306.727 26.4128 306.727 26.5156V31.8598C306.727 31.9626 306.675 32.014 306.573 32.014H305.648Z" fill="#003067"/>
<path d="M308.576 32.0138C308.473 32.0138 308.422 31.9625 308.422 31.8597V26.5155C308.422 26.4127 308.473 26.3613 308.576 26.3613H309.45C309.552 26.3613 309.604 26.4127 309.604 26.5669L309.655 27.2863C309.963 26.721 310.529 26.2585 311.454 26.2585C312.636 26.2585 313.509 27.0807 313.509 28.5709V31.8597C313.509 31.9625 313.458 32.0138 313.355 32.0138H312.43C312.327 32.0138 312.276 31.9625 312.276 31.8597V28.7765C312.276 27.9029 311.813 27.3891 311.043 27.3891C310.22 27.3891 309.707 27.9029 309.707 28.7765V31.8597C309.707 31.9625 309.655 32.0138 309.552 32.0138H308.576Z" fill="#003067"/>
<path d="M317.365 30.8833C317.313 30.7806 317.313 30.7292 317.365 30.6264L317.827 30.0612C317.93 29.9584 318.033 29.9584 318.084 30.0612C318.547 30.6264 319.061 30.9347 319.831 30.9347C320.653 30.9347 321.219 30.5236 321.219 29.8042C321.219 29.0848 320.705 28.8279 320.037 28.5196L319.061 28.0571C318.187 27.646 317.519 27.0293 317.519 25.9502C317.519 24.5628 318.598 23.792 319.883 23.792C320.808 23.792 321.578 24.1517 322.144 24.8197C322.246 24.9225 322.246 24.9739 322.144 25.0767L321.681 25.6419C321.578 25.7447 321.527 25.7447 321.424 25.6419C320.962 25.1794 320.499 24.9225 319.934 24.9225C319.266 24.9225 318.752 25.2822 318.752 25.8988C318.752 26.4127 319.06 26.721 319.729 27.0293L320.602 27.4404C321.527 27.9029 322.452 28.4168 322.452 29.7528C322.452 31.2431 321.27 32.0652 319.831 32.0652C318.701 32.1166 317.827 31.5514 317.365 30.8833Z" fill="#003067"/>
<path d="M324.353 32.0139C324.251 32.0139 324.199 31.9625 324.199 31.8597V24.0489C324.199 23.9462 324.251 23.8948 324.353 23.8948H326.666C328.516 23.8948 329.441 24.9739 329.441 26.4641C329.441 27.9543 328.516 29.0334 326.666 29.0334H325.484V31.8083C325.484 31.9111 325.432 31.9625 325.33 31.9625H324.353V32.0139ZM325.484 27.9029H326.614C327.488 27.9029 328.207 27.5432 328.207 26.4641C328.207 25.385 327.488 25.0253 326.614 25.0253H325.484V27.9029Z" fill="#003067"/>
<path d="M330.673 30.8833C330.622 30.7806 330.622 30.7292 330.673 30.6264L331.136 30.0612C331.239 29.9584 331.341 29.9584 331.393 30.0612C331.855 30.6264 332.369 30.9347 333.14 30.9347C333.962 30.9347 334.527 30.5236 334.527 29.8042C334.527 29.0848 334.013 28.8279 333.345 28.5196L332.369 28.0571C331.495 27.646 330.827 27.0293 330.827 25.9502C330.827 24.5628 331.907 23.792 333.191 23.792C334.116 23.792 334.887 24.1517 335.452 24.8197C335.555 24.9225 335.555 24.9739 335.452 25.0767L335.041 25.6933C334.938 25.7961 334.887 25.7961 334.784 25.6933C334.322 25.2308 333.859 24.9739 333.294 24.9739C332.626 24.9739 332.112 25.3336 332.112 25.9502C332.112 26.4641 332.42 26.7724 333.088 27.0807L333.962 27.4918C334.887 27.9543 335.812 28.4682 335.812 29.8042C335.812 31.2944 334.63 32.1166 333.191 32.1166C332.009 32.1166 331.136 31.5514 330.673 30.8833Z" fill="#003067"/>
<path d="M210.48 46.1453C210.429 46.0425 210.429 45.9911 210.48 45.8884L210.942 45.3231C211.045 45.2203 211.148 45.2203 211.199 45.3231C211.662 45.8884 212.176 46.1967 212.946 46.1967C213.769 46.1967 214.334 45.7856 214.334 45.0662C214.334 44.3468 213.82 44.0898 213.152 43.7815L212.176 43.319C211.302 42.908 210.634 42.2913 210.634 41.2122C210.634 39.8248 211.713 39.054 212.998 39.054C213.923 39.054 214.694 39.4137 215.259 40.0817C215.362 40.1845 215.362 40.2358 215.259 40.3386L214.796 40.9039C214.694 41.0066 214.642 41.0066 214.539 40.9039C214.077 40.4414 213.615 40.1845 213.049 40.1845C212.381 40.1845 211.867 40.5442 211.867 41.1608C211.867 41.6747 212.176 41.983 212.844 42.2913L213.717 42.7024C214.642 43.1649 215.567 43.6787 215.567 45.0148C215.567 46.505 214.385 47.3272 212.946 47.3272C211.765 47.43 210.942 46.8133 210.48 46.1453Z" fill="#003067"/>
<path d="M217.264 49.4853C217.161 49.4853 217.109 49.4339 217.109 49.3312V41.7773C217.109 41.6745 217.161 41.6232 217.264 41.6232H218.086C218.188 41.6232 218.24 41.6745 218.24 41.7773V42.5481C218.651 41.8801 219.319 41.469 220.244 41.469C221.888 41.469 222.967 42.7537 222.967 44.4494C222.967 46.1452 221.837 47.4298 220.244 47.4298C219.37 47.4298 218.702 47.0701 218.291 46.4535V49.3312C218.291 49.4339 218.24 49.4853 218.137 49.4853H217.264V49.4853ZM221.837 44.4494C221.837 43.3703 221.118 42.5995 220.09 42.5995C219.062 42.5995 218.394 43.3189 218.394 44.4494C218.394 45.5285 219.113 46.248 220.09 46.248C221.066 46.248 221.837 45.5285 221.837 44.4494Z" fill="#003067"/>
<path d="M224.56 47.2757C224.458 47.2757 224.406 47.2243 224.406 47.1215V41.7773C224.406 41.6745 224.458 41.6232 224.56 41.6232H225.434C225.537 41.6232 225.588 41.6745 225.588 41.8287L225.64 42.4967C225.845 41.9315 226.205 41.469 226.924 41.469C227.181 41.469 227.335 41.5204 227.438 41.5718C227.541 41.6232 227.541 41.6745 227.541 41.7773V42.4967C227.541 42.6509 227.438 42.6509 227.335 42.5995C227.181 42.5481 227.078 42.5481 226.924 42.5481C226.051 42.5481 225.691 43.2675 225.691 43.9869V47.0187C225.691 47.1215 225.64 47.1729 225.537 47.1729H224.56V47.2757Z" fill="#003067"/>
<path d="M228.311 44.398C228.311 42.7537 229.492 41.469 231.188 41.469C232.884 41.469 233.86 42.7537 233.86 44.1411C233.86 44.655 233.758 44.8605 233.346 44.8605H229.544C229.698 45.7855 230.366 46.3507 231.497 46.3507C232.062 46.3507 232.524 46.1966 232.935 45.8882C232.987 45.8369 233.09 45.8369 233.141 45.9396L233.449 46.4021C233.501 46.5049 233.501 46.5563 233.398 46.659C232.884 47.1215 232.165 47.3785 231.394 47.3785C229.492 47.4298 228.311 46.0938 228.311 44.398ZM232.781 43.9869C232.73 43.062 232.113 42.4967 231.188 42.4967C230.315 42.4967 229.647 43.062 229.492 43.9869H232.781Z" fill="#003067"/>
<path d="M234.939 44.4494C234.939 42.7537 236.224 41.469 237.868 41.469C238.793 41.469 239.564 41.8287 240.027 42.4453C240.078 42.5481 240.078 42.5995 240.027 42.7023L239.513 43.2161C239.41 43.3189 239.307 43.2675 239.256 43.2161C238.896 42.8564 238.536 42.6509 237.971 42.6509C236.892 42.6509 236.173 43.4217 236.173 44.4494C236.173 45.4772 236.892 46.2993 238.023 46.2993C238.588 46.2993 238.999 46.0938 239.307 45.7341C239.41 45.6313 239.513 45.6313 239.616 45.7341L240.129 46.248C240.181 46.2993 240.181 46.4021 240.129 46.5049C239.667 47.1215 238.896 47.4812 237.971 47.4812C236.173 47.4298 234.939 46.1452 234.939 44.4494Z" fill="#003067"/>
<path d="M246.451 43.7814V47.0701C246.451 47.1729 246.399 47.2243 246.296 47.2243H245.371C245.269 47.2243 245.217 47.1729 245.217 47.0701V43.9869C245.217 43.1134 244.755 42.5995 243.984 42.5995C243.162 42.5995 242.648 43.1134 242.648 43.9869V47.0701C242.648 47.1729 242.597 47.2243 242.494 47.2243H241.517C241.415 47.2243 241.363 47.1729 241.363 47.0701V39.1566C241.363 39.0538 241.415 39.0024 241.517 39.0024H242.442C242.545 39.0024 242.597 39.0538 242.597 39.1566V42.4453C242.905 41.8801 243.47 41.4176 244.395 41.4176C245.577 41.469 246.451 42.2912 246.451 43.7814Z" fill="#003067"/>
<path d="M247.787 46.505C247.735 46.4022 247.735 46.2995 247.787 46.1967L248.095 45.7856C248.198 45.6828 248.3 45.6828 248.352 45.7856C248.763 46.1453 249.174 46.4022 249.688 46.4022C250.202 46.4022 250.561 46.1967 250.561 45.7342C250.561 45.3231 250.305 45.169 249.842 44.9634L249.123 44.7065C248.403 44.3982 247.838 43.9871 247.838 43.1649C247.838 42.1371 248.712 41.5205 249.688 41.5205C250.407 41.5205 251.024 41.8288 251.486 42.3427C251.538 42.4455 251.538 42.4969 251.486 42.5996L251.127 43.0107C251.024 43.1135 250.973 43.1135 250.87 43.0107C250.51 42.651 250.15 42.4969 249.791 42.4969C249.328 42.4969 249.071 42.7024 249.071 43.1135C249.071 43.5246 249.38 43.6787 249.791 43.8843L250.459 44.1412C251.178 44.4495 251.743 44.912 251.743 45.7856C251.743 46.9161 250.767 47.4814 249.688 47.4814C248.866 47.43 248.146 46.9675 247.787 46.505Z" fill="#003067"/>
<path d="M253.645 45.9398V42.5996H252.926C252.823 42.5996 252.771 42.5482 252.771 42.4455V41.7774C252.771 41.6747 252.823 41.6233 252.926 41.6233H253.645V40.2872C253.645 40.1844 253.696 40.1331 253.799 40.1331H254.724C254.827 40.1331 254.878 40.1844 254.878 40.2872V41.6233H255.803C255.906 41.6233 255.957 41.6747 255.957 41.7774V42.4455C255.957 42.5482 255.906 42.5996 255.803 42.5996H254.878V45.837C254.878 46.1967 255.084 46.4022 255.392 46.4022C255.495 46.4022 255.598 46.4022 255.752 46.4022C255.906 46.4022 255.957 46.4536 255.957 46.5564V47.173C255.957 47.43 255.444 47.4814 255.084 47.4814C254.262 47.43 253.645 47.0189 253.645 45.9398Z" fill="#003067"/>
<path d="M257.139 45.0662V41.7775C257.139 41.6747 257.19 41.6233 257.293 41.6233H258.218C258.321 41.6233 258.372 41.6747 258.372 41.7775V44.8607C258.372 45.7342 258.834 46.2481 259.605 46.2481C260.376 46.2481 260.941 45.7342 260.941 44.8607V41.7775C260.941 41.6747 260.993 41.6233 261.095 41.6233H262.02C262.123 41.6233 262.175 41.6747 262.175 41.7775V47.1217C262.175 47.2244 262.123 47.2758 262.02 47.2758H261.147C261.044 47.2758 260.993 47.2244 260.993 47.0703L260.941 46.3509C260.633 46.9161 260.016 47.3786 259.143 47.3786C257.961 47.43 257.139 46.5564 257.139 45.0662Z" fill="#003067"/>
<path d="M264.025 47.2758C263.922 47.2758 263.871 47.2244 263.871 47.1216V41.7774C263.871 41.6747 263.922 41.6233 264.025 41.6233H264.899C265.002 41.6233 265.053 41.6747 265.053 41.8288L265.104 42.5482C265.413 41.983 265.978 41.5205 266.903 41.5205C268.085 41.5205 268.958 42.3427 268.958 43.8329V47.1216C268.958 47.2244 268.907 47.2758 268.804 47.2758H267.879C267.776 47.2758 267.725 47.2244 267.725 47.1216V44.0384C267.725 43.1649 267.263 42.651 266.492 42.651C265.67 42.651 265.156 43.1649 265.156 44.0384V47.1216C265.156 47.2244 265.104 47.2758 265.002 47.2758H264.025V47.2758Z" fill="#003067"/>
<path d="M270.295 44.4494C270.295 42.7537 271.425 41.469 273.018 41.469C273.892 41.469 274.56 41.8287 274.971 42.4453V39.1566C274.971 39.0538 275.023 39.0024 275.125 39.0024H276.05C276.153 39.0024 276.204 39.0538 276.204 39.1566V47.0701C276.204 47.1729 276.153 47.2243 276.05 47.2243H275.228C275.125 47.2243 275.074 47.1729 275.074 47.0701V46.2993C274.663 46.9674 273.995 47.3785 273.07 47.3785C271.374 47.4298 270.295 46.1452 270.295 44.4494ZM274.971 44.4494C274.971 43.3703 274.252 42.5995 273.275 42.5995C272.248 42.5995 271.528 43.3189 271.528 44.4494C271.528 45.5285 272.248 46.2993 273.275 46.2993C274.252 46.248 274.971 45.5285 274.971 44.4494Z" fill="#003067"/>
<path d="M277.539 44.398C277.539 42.7537 278.721 41.469 280.417 41.469C282.112 41.469 283.089 42.7537 283.089 44.1411C283.089 44.655 282.986 44.8605 282.575 44.8605H278.772C278.927 45.7855 279.595 46.3507 280.725 46.3507C281.29 46.3507 281.753 46.1966 282.164 45.8882C282.215 45.8369 282.318 45.8369 282.369 45.9396L282.678 46.4021C282.729 46.5049 282.729 46.5563 282.626 46.659C282.112 47.1215 281.393 47.3785 280.622 47.3785C278.721 47.4298 277.539 46.0938 277.539 44.398ZM282.01 43.9869C281.958 43.062 281.342 42.4967 280.417 42.4967C279.543 42.4967 278.875 43.062 278.721 43.9869H282.01Z" fill="#003067"/>
<path d="M287.508 47.2757C287.405 47.2757 287.353 47.2243 287.353 47.1215V42.5995H286.685C286.583 42.5995 286.531 42.5481 286.531 42.4453V41.7773C286.531 41.6745 286.583 41.6231 286.685 41.6231H287.353V40.544C287.353 39.3621 287.97 38.7969 289.101 38.7969C289.358 38.7969 289.563 38.7969 289.82 38.951C289.923 39.0024 289.923 39.0538 289.923 39.1052V39.876C289.923 39.9788 289.871 39.9788 289.769 39.9788C289.614 39.9788 289.46 39.9274 289.306 39.9274C288.69 39.9274 288.587 40.2871 288.587 40.7496V41.6231H289.717C289.82 41.6231 289.871 41.6745 289.871 41.7773V42.4453C289.871 42.5481 289.82 42.5995 289.717 42.5995H288.587V47.1215C288.587 47.2243 288.535 47.2757 288.433 47.2757H287.508V47.2757Z" fill="#003067"/>
<path d="M291.105 45.0661V41.7773C291.105 41.6746 291.157 41.6232 291.26 41.6232H292.185C292.287 41.6232 292.339 41.6746 292.339 41.7773V44.8605C292.339 45.7341 292.801 46.248 293.572 46.248C294.343 46.248 294.908 45.7341 294.908 44.8605V41.7773C294.908 41.6746 294.959 41.6232 295.062 41.6232H295.987C296.09 41.6232 296.141 41.6746 296.141 41.7773V47.1215C296.141 47.2243 296.09 47.2757 295.987 47.2757H295.114C295.011 47.2757 294.959 47.2243 294.959 47.0701L294.908 46.3507C294.6 46.916 293.983 47.3785 293.11 47.3785C291.928 47.4299 291.105 46.5563 291.105 45.0661ZM291.825 39.7733C291.825 39.4135 292.133 39.1052 292.493 39.1052C292.853 39.1052 293.161 39.4135 293.161 39.7733C293.161 40.133 292.853 40.4413 292.493 40.4413C292.133 40.4413 291.825 40.133 291.825 39.7733ZM294.137 39.7733C294.137 39.4135 294.446 39.1052 294.805 39.1052C295.165 39.1052 295.473 39.4135 295.473 39.7733C295.473 40.133 295.165 40.4413 294.805 40.4413C294.446 40.4413 294.137 40.133 294.137 39.7733Z" fill="#003067"/>
<path d="M297.992 47.2757C297.889 47.2757 297.838 47.2243 297.838 47.1215V41.7773C297.838 41.6745 297.889 41.6232 297.992 41.6232H298.866C298.968 41.6232 299.02 41.6745 299.02 41.8287L299.071 42.4967C299.277 41.9315 299.636 41.469 300.356 41.469C300.613 41.469 300.767 41.5204 300.87 41.5718C300.972 41.6232 300.973 41.6745 300.973 41.7773V42.4967C300.973 42.6509 300.87 42.6509 300.767 42.5995C300.613 42.5481 300.51 42.5481 300.356 42.5481C299.482 42.5481 299.123 43.2675 299.123 43.9869V47.0187C299.123 47.1215 299.071 47.1729 298.968 47.1729H297.992V47.2757Z" fill="#003067"/>
<path d="M304.877 47.2757C304.774 47.2757 304.723 47.2243 304.723 47.1215V39.3622C304.723 39.2594 304.774 39.208 304.877 39.208H305.853C305.956 39.208 306.007 39.2594 306.007 39.3622V43.3189L308.988 39.3108C309.039 39.2594 309.091 39.208 309.193 39.208H310.375C310.529 39.208 310.529 39.3108 310.478 39.4136L307.754 42.9078L310.786 47.1215C310.889 47.2243 310.838 47.3271 310.683 47.3271H309.553C309.45 47.3271 309.399 47.3271 309.347 47.2243L306.932 43.9356L306.007 45.1175V47.1729C306.007 47.2757 305.956 47.3271 305.853 47.3271H304.877V47.2757Z" fill="#003067"/>
<path d="M312.02 39.6706C312.02 39.2595 312.328 38.9512 312.739 38.9512C313.15 38.9512 313.458 39.2595 313.458 39.6706C313.458 40.0817 313.15 40.39 312.739 40.39C312.328 40.39 312.02 40.0817 312.02 39.6706ZM312.276 47.2758C312.174 47.2758 312.122 47.2244 312.122 47.1216V41.7774C312.122 41.6747 312.174 41.6233 312.276 41.6233H313.201C313.304 41.6233 313.356 41.6747 313.356 41.7774V47.1216C313.356 47.2244 313.304 47.2758 313.201 47.2758H312.276Z" fill="#003067"/>
<path d="M314.691 44.398C314.691 42.7537 315.873 41.469 317.569 41.469C319.265 41.469 320.241 42.7537 320.241 44.1411C320.241 44.655 320.138 44.8605 319.727 44.8605H315.925C316.079 45.7855 316.747 46.3507 317.877 46.3507C318.443 46.3507 318.905 46.1966 319.316 45.8882C319.368 45.8369 319.47 45.8369 319.522 45.9396L319.83 46.4021C319.881 46.5049 319.881 46.5563 319.779 46.659C319.265 47.1215 318.545 47.3785 317.775 47.3785C315.873 47.4298 314.691 46.0938 314.691 44.398ZM319.111 43.9869C319.059 43.062 318.443 42.4967 317.518 42.4967C316.644 42.4967 315.976 43.062 315.822 43.9869H319.111Z" fill="#003067"/>
<path d="M322.092 47.2757C321.989 47.2757 321.937 47.2243 321.937 47.1215V42.5995H321.269C321.167 42.5995 321.115 42.5481 321.115 42.4453V41.7773C321.115 41.6745 321.167 41.6231 321.269 41.6231H321.937V40.544C321.937 39.3621 322.554 38.7969 323.685 38.7969C323.941 38.7969 324.147 38.7969 324.404 38.951C324.507 39.0024 324.507 39.0538 324.507 39.1052V39.876C324.507 39.9788 324.455 39.9788 324.353 39.9788C324.198 39.9788 324.044 39.9274 323.89 39.9274C323.273 39.9274 323.171 40.2871 323.171 40.7496V41.6231H324.301C324.404 41.6231 324.455 41.6745 324.455 41.7773V42.4453C324.455 42.5481 324.404 42.5995 324.301 42.5995H323.171V47.1215C323.171 47.2243 323.119 47.2757 323.017 47.2757H322.092V47.2757Z" fill="#003067"/>
<path d="M325.227 44.398C325.227 42.7537 326.408 41.469 328.104 41.469C329.8 41.469 330.776 42.7537 330.776 44.1411C330.776 44.655 330.674 44.8605 330.262 44.8605H326.46C326.614 45.7855 327.282 46.3507 328.413 46.3507C328.978 46.3507 329.44 46.1966 329.851 45.8882C329.903 45.8369 330.005 45.8369 330.057 45.9396L330.365 46.4021C330.417 46.5049 330.417 46.5563 330.314 46.659C329.8 47.1215 329.081 47.3785 328.31 47.3785C326.46 47.4298 325.227 46.0938 325.227 44.398ZM329.697 43.9869C329.646 43.062 329.029 42.4967 328.104 42.4967C327.231 42.4967 326.563 43.062 326.408 43.9869H329.697Z" fill="#003067"/>
<path d="M332.265 47.2757C332.163 47.2757 332.111 47.2243 332.111 47.1215V41.7773C332.111 41.6745 332.163 41.6232 332.265 41.6232H333.139C333.242 41.6232 333.293 41.6745 333.293 41.8287L333.345 42.4967C333.55 41.9315 333.91 41.469 334.629 41.469C334.886 41.469 335.04 41.5204 335.143 41.5718C335.246 41.6232 335.246 41.6745 335.246 41.7773V42.4967C335.246 42.6509 335.143 42.6509 335.04 42.5995C334.886 42.5481 334.783 42.5481 334.629 42.5481C333.756 42.5481 333.396 43.2675 333.396 43.9869V47.0187C333.396 47.1215 333.345 47.1729 333.242 47.1729H332.265V47.2757Z" fill="#003067"/>
<path d="M335.76 44.5524C335.657 44.5524 335.605 44.501 335.605 44.3982V43.6788C335.605 43.576 335.657 43.5247 335.76 43.5247H339.254C339.357 43.5247 339.408 43.576 339.408 43.6788V44.3982C339.408 44.501 339.357 44.5524 339.254 44.5524H335.76Z" fill="#003067"/>
<path d="M210.635 60.3793V57.0392C210.635 56.9364 210.686 56.885 210.789 56.885H211.714C211.817 56.885 211.868 56.9364 211.868 57.0392V60.1224C211.868 60.9959 212.331 61.5098 213.101 61.5098C213.872 61.5098 214.437 60.9959 214.437 60.1224V57.0392C214.437 56.9364 214.489 56.885 214.592 56.885H215.516C215.619 56.885 215.671 56.9364 215.671 57.0392V62.3834C215.671 62.4862 215.619 62.5375 215.516 62.5375H214.643C214.54 62.5375 214.489 62.4862 214.489 62.332L214.437 61.6126C214.129 62.1778 213.512 62.6403 212.639 62.6403C211.457 62.6917 210.635 61.8695 210.635 60.3793Z" fill="#003067"/>
<path d="M217.519 62.5375C217.417 62.5375 217.365 62.4861 217.365 62.3834V57.0392C217.365 56.9364 217.417 56.885 217.519 56.885H218.393C218.496 56.885 218.547 56.9364 218.547 57.0905L218.599 57.81C218.907 57.2447 219.472 56.7822 220.397 56.7822C221.579 56.7822 222.452 57.6044 222.452 59.0946V62.3834C222.452 62.4861 222.401 62.5375 222.298 62.5375H221.373C221.271 62.5375 221.219 62.4861 221.219 62.3834V59.3002C221.219 58.4266 220.757 57.9127 219.986 57.9127C219.164 57.9127 218.65 58.4266 218.65 59.3002V62.3834C218.65 62.4861 218.599 62.5375 218.496 62.5375H217.519V62.5375Z" fill="#003067"/>
<path d="M223.789 59.7113C223.789 58.0155 224.92 56.7308 226.513 56.7308C227.386 56.7308 228.054 57.0906 228.465 57.7072V54.4698C228.465 54.3671 228.517 54.3157 228.619 54.3157H229.544C229.647 54.3157 229.699 54.3671 229.699 54.4698V62.3834C229.699 62.4862 229.647 62.5375 229.544 62.5375H228.671C228.568 62.5375 228.517 62.4862 228.517 62.3834V61.6126C228.106 62.2806 227.438 62.6917 226.513 62.6917C224.868 62.6917 223.789 61.407 223.789 59.7113ZM228.465 59.7113C228.465 58.6322 227.746 57.8614 226.769 57.8614C225.742 57.8614 225.022 58.5808 225.022 59.7113C225.022 60.7904 225.742 61.5612 226.769 61.5612C227.746 61.5612 228.465 60.7904 228.465 59.7113Z" fill="#003067"/>
<path d="M233.656 58.5295C233.656 56.1657 235.455 54.3672 237.819 54.3672C238.949 54.3672 239.874 54.7783 240.593 55.4977C240.696 55.6005 240.696 55.6519 240.593 55.7546L240.028 56.3713C239.977 56.474 239.874 56.474 239.823 56.3713C239.257 55.9088 238.641 55.6005 237.87 55.6005C236.226 55.6005 235.044 56.8337 235.044 58.4781C235.044 60.1225 236.277 61.3558 237.921 61.3558C239.412 61.3558 240.337 60.4308 240.388 59.1975H237.973C237.87 59.1975 237.819 59.1461 237.819 59.0434V58.2212C237.819 58.1184 237.87 58.067 237.973 58.067H241.467C241.57 58.067 241.621 58.1184 241.621 58.2212V58.7864C241.621 60.9447 240.234 62.6404 237.921 62.6404C235.455 62.6918 233.656 60.8933 233.656 58.5295Z" fill="#003067"/>
<path d="M242.75 59.7113C242.75 58.0669 243.932 56.7822 245.628 56.7822C247.323 56.7822 248.3 58.0669 248.3 59.4543C248.3 59.9682 248.197 60.1737 247.786 60.1737H243.983C244.137 61.0987 244.805 61.664 245.936 61.664C246.501 61.664 246.964 61.5098 247.375 61.2015C247.426 61.1501 247.529 61.1501 247.58 61.2529L247.889 61.7153C247.94 61.8181 247.94 61.8695 247.837 61.9723C247.323 62.4348 246.604 62.6917 245.833 62.6917C243.932 62.6917 242.75 61.407 242.75 59.7113ZM247.169 59.3002C247.118 58.3752 246.501 57.81 245.576 57.81C244.703 57.81 244.035 58.3752 243.881 59.3002H247.169Z" fill="#003067"/>
<path d="M249.328 61.7667C249.276 61.664 249.276 61.5612 249.328 61.4584L249.636 61.0473C249.739 60.9445 249.841 60.9445 249.893 61.0473C250.304 61.407 250.715 61.664 251.229 61.664C251.743 61.664 252.102 61.4584 252.102 60.9959C252.102 60.5848 251.846 60.4307 251.383 60.2251L250.664 59.9682C249.944 59.6599 249.379 59.2488 249.379 58.4266C249.379 57.3989 250.253 56.7822 251.229 56.7822C251.948 56.7822 252.565 57.0905 253.027 57.6044C253.079 57.7072 253.079 57.7586 253.027 57.8613L252.668 58.2724C252.565 58.3752 252.514 58.3752 252.411 58.2724C252.051 57.9127 251.691 57.7586 251.332 57.7586C250.869 57.7586 250.612 57.9641 250.612 58.3752C250.612 58.7863 250.921 58.9405 251.332 59.146L252 59.4029C252.719 59.7113 253.284 60.1737 253.284 61.0473C253.284 62.1778 252.308 62.7431 251.229 62.7431C250.355 62.6917 249.687 62.2806 249.328 61.7667Z" fill="#003067"/>
<path d="M254.57 54.9323C254.57 54.5212 254.879 54.2129 255.29 54.2129C255.701 54.2129 256.009 54.5212 256.009 54.9323C256.009 55.3434 255.701 55.6517 255.29 55.6517C254.879 55.6517 254.57 55.3434 254.57 54.9323ZM254.827 62.5375C254.724 62.5375 254.673 62.4861 254.673 62.3834V57.0392C254.673 56.9364 254.724 56.885 254.827 56.885H255.752C255.855 56.885 255.906 56.9364 255.906 57.0392V62.3834C255.906 62.4861 255.855 62.5375 255.752 62.5375H254.827Z" fill="#003067"/>
<path d="M257.242 59.7114C257.242 58.0156 258.527 56.731 260.171 56.731C261.096 56.731 261.867 57.0907 262.329 57.7073C262.381 57.8101 262.381 57.8615 262.329 57.9642L261.816 58.4781C261.713 58.5809 261.61 58.5295 261.559 58.4781C261.199 58.1184 260.839 57.9128 260.274 57.9128C259.195 57.9128 258.475 58.6836 258.475 59.7114C258.475 60.7391 259.195 61.5613 260.325 61.5613C260.891 61.5613 261.302 61.3557 261.61 60.996C261.713 60.8933 261.816 60.8933 261.918 60.996L262.432 61.5099C262.484 61.5613 262.484 61.6641 262.432 61.7668C261.97 62.3835 261.199 62.7432 260.274 62.7432C258.527 62.6918 257.242 61.4071 257.242 59.7114Z" fill="#003067"/>
<path d="M268.753 59.0432V62.332C268.753 62.4348 268.701 62.4861 268.599 62.4861H267.674C267.571 62.4861 267.519 62.4348 267.519 62.332V59.2488C267.519 58.3752 267.057 57.8614 266.286 57.8614C265.464 57.8614 264.95 58.3752 264.95 59.2488V62.332C264.95 62.4348 264.899 62.4861 264.796 62.4861H263.871C263.768 62.4861 263.717 62.4348 263.717 62.332V54.4698C263.717 54.3671 263.768 54.3157 263.871 54.3157H264.796C264.899 54.3157 264.95 54.3671 264.95 54.4698V57.7586C265.258 57.1933 265.824 56.7308 266.749 56.7308C267.879 56.7308 268.753 57.553 268.753 59.0432Z" fill="#003067"/>
<path d="M270.706 61.2529V57.9127H269.986C269.883 57.9127 269.832 57.8613 269.832 57.7586V57.0391C269.832 56.9364 269.883 56.885 269.986 56.885H270.706V55.5489C270.706 55.4462 270.757 55.3948 270.86 55.3948H271.785C271.888 55.3948 271.939 55.4462 271.939 55.5489V56.885H272.864C272.967 56.885 273.018 56.9364 273.018 57.0391V57.7072C273.018 57.8099 272.967 57.8613 272.864 57.8613H271.939V61.0987C271.939 61.4584 272.144 61.6639 272.453 61.6639C272.556 61.6639 272.658 61.6639 272.812 61.6639C272.967 61.6639 273.018 61.7153 273.018 61.8181V62.4347C273.018 62.6917 272.504 62.7431 272.144 62.7431C271.322 62.6917 270.706 62.2806 270.706 61.2529Z" fill="#003067"/>
<path d="M274.148 61.7667C274.097 61.664 274.097 61.5612 274.148 61.4584L274.456 61.0473C274.559 60.9445 274.662 60.9445 274.713 61.0473C275.124 61.407 275.535 61.664 276.049 61.664C276.563 61.664 276.923 61.4584 276.923 60.9959C276.923 60.5848 276.666 60.4307 276.203 60.2251L275.484 59.9682C274.765 59.6599 274.199 59.2488 274.199 58.4266C274.199 57.3989 275.073 56.7822 276.049 56.7822C276.769 56.7822 277.385 57.0905 277.848 57.6044C277.899 57.7072 277.899 57.7586 277.848 57.8613L277.488 58.2724C277.385 58.3752 277.334 58.3752 277.231 58.2724C276.871 57.9127 276.512 57.7586 276.152 57.7586C275.69 57.7586 275.433 57.9641 275.433 58.3752C275.433 58.7863 275.741 58.9405 276.152 59.146L276.82 59.4029C277.539 59.7113 278.105 60.1737 278.105 61.0473C278.105 62.1778 277.128 62.7431 276.049 62.7431C275.227 62.6917 274.508 62.2806 274.148 61.7667Z" fill="#003067"/>
<path d="M279.287 61.7667C279.235 61.664 279.235 61.5612 279.287 61.4584L279.595 61.0473C279.698 60.9445 279.8 60.9445 279.852 61.0473C280.263 61.407 280.674 61.664 281.188 61.664C281.702 61.664 282.061 61.4584 282.061 60.9959C282.061 60.5848 281.805 60.4307 281.342 60.2251L280.623 59.9682C279.903 59.6599 279.338 59.2488 279.338 58.4266C279.338 57.3989 280.212 56.7822 281.188 56.7822C281.907 56.7822 282.524 57.0905 282.986 57.6044C283.038 57.7072 283.038 57.7586 282.986 57.8613L282.627 58.2724C282.524 58.3752 282.473 58.3752 282.37 58.2724C282.01 57.9127 281.65 57.7586 281.291 57.7586C280.828 57.7586 280.571 57.9641 280.571 58.3752C280.571 58.7863 280.88 58.9405 281.291 59.146L281.959 59.4029C282.678 59.7113 283.243 60.1737 283.243 61.0473C283.243 62.1778 282.267 62.7431 281.188 62.7431C280.366 62.6917 279.698 62.2806 279.287 61.7667Z" fill="#003067"/>
<path d="M284.322 59.7114C284.322 58.0156 285.607 56.731 287.251 56.731C288.176 56.731 288.947 57.0907 289.41 57.7073C289.461 57.8101 289.461 57.8615 289.41 57.9642L288.896 58.4781C288.793 58.5809 288.69 58.5295 288.639 58.4781C288.279 58.1184 287.919 57.9128 287.354 57.9128C286.275 57.9128 285.556 58.6836 285.556 59.7114C285.556 60.7391 286.275 61.5613 287.405 61.5613C287.971 61.5613 288.382 61.3557 288.69 60.996C288.793 60.8933 288.896 60.8933 288.998 60.996L289.512 61.5099C289.564 61.5613 289.564 61.6641 289.512 61.7668C289.05 62.3835 288.279 62.7432 287.354 62.7432C285.607 62.6918 284.322 61.4071 284.322 59.7114Z" fill="#003067"/>
<path d="M295.833 59.0432V62.332C295.833 62.4348 295.781 62.4861 295.679 62.4861H294.754C294.651 62.4861 294.599 62.4348 294.599 62.332V59.2488C294.599 58.3752 294.137 57.8614 293.366 57.8614C292.544 57.8614 292.03 58.3752 292.03 59.2488V62.332C292.03 62.4348 291.979 62.4861 291.876 62.4861H290.951C290.848 62.4861 290.797 62.4348 290.797 62.332V54.4698C290.797 54.3671 290.848 54.3157 290.951 54.3157H291.876C291.979 54.3157 292.03 54.3671 292.03 54.4698V57.7586C292.338 57.1933 292.904 56.7308 293.829 56.7308C295.011 56.7308 295.833 57.553 295.833 59.0432Z" fill="#003067"/>
<path d="M297.631 62.5375C297.528 62.5375 297.477 62.4861 297.477 62.3834V57.0392C297.477 56.9364 297.528 56.885 297.631 56.885H298.504C298.607 56.885 298.658 56.9364 298.658 57.0905L298.71 57.7072C299.018 57.1933 299.532 56.7822 300.303 56.7822C301.074 56.7822 301.639 57.1419 301.947 57.81C302.255 57.2447 302.821 56.7822 303.694 56.7822C304.876 56.7822 305.596 57.6044 305.596 59.0946V62.4348C305.596 62.5375 305.544 62.5889 305.441 62.5889H304.517C304.414 62.5889 304.362 62.5375 304.362 62.4348V59.3002C304.362 58.4266 304.003 57.9127 303.335 57.9127C302.615 57.9127 302.153 58.4266 302.153 59.3002V62.4348C302.153 62.5375 302.101 62.5889 301.999 62.5889H301.074C300.971 62.5889 300.919 62.5375 300.919 62.4348V59.3002C300.919 58.4266 300.56 57.9127 299.84 57.9127C299.121 57.9127 298.71 58.4266 298.71 59.3002V62.4348C298.71 62.5375 298.658 62.5889 298.556 62.5889H297.631V62.5375Z" fill="#003067"/>
<path d="M306.984 59.7113C306.984 58.0669 308.166 56.7822 309.862 56.7822C311.558 56.7822 312.534 58.0669 312.534 59.4543C312.534 59.9682 312.431 60.1737 312.02 60.1737H308.218C308.372 61.0987 309.04 61.664 310.17 61.664C310.736 61.664 311.198 61.5098 311.609 61.2015C311.661 61.1501 311.763 61.1501 311.815 61.2529L312.123 61.7153C312.174 61.8181 312.174 61.8695 312.072 61.9723C311.558 62.4348 310.838 62.6917 310.068 62.6917C308.166 62.6917 306.984 61.407 306.984 59.7113ZM311.404 59.3002C311.352 58.3752 310.736 57.81 309.811 57.81C308.937 57.81 308.269 58.3752 308.115 59.3002H311.404Z" fill="#003067"/>
<path d="M314.023 62.5376C313.921 62.5376 313.869 62.4863 313.869 62.3835V57.0393C313.869 56.9365 313.921 56.8851 314.023 56.8851H314.897C315 56.8851 315.051 56.9365 315.051 57.0907L315.102 57.7587C315.308 57.1934 315.668 56.731 316.387 56.731C316.644 56.731 316.798 56.7823 316.901 56.8337C317.004 56.8851 317.004 56.9365 317.004 57.0393V57.7587C317.004 57.9128 316.901 57.9128 316.798 57.8615C316.644 57.8101 316.541 57.8101 316.387 57.8101C315.514 57.8101 315.154 58.5295 315.154 59.2489V62.2807C315.154 62.3835 315.102 62.4349 315 62.4349H314.023V62.5376Z" fill="#003067"/>
<path d="M318.135 62.5375C318.032 62.5375 317.98 62.4862 317.98 62.3834V61.664C317.98 61.5612 317.98 61.5098 318.083 61.4584L321.012 57.9641H318.237C318.135 57.9641 318.083 57.9127 318.083 57.81V57.0392C318.083 56.9364 318.135 56.885 318.237 56.885H322.246C322.348 56.885 322.4 56.9364 322.4 57.0392V57.7586C322.4 57.8614 322.348 57.9127 322.297 57.9641L319.368 61.4584H322.194C322.297 61.4584 322.348 61.5098 322.348 61.6126V62.332C322.348 62.4348 322.297 62.4862 322.194 62.4862H318.135V62.5375Z" fill="#003067"/>
<path d="M323.273 59.7113C323.273 58.0669 324.455 56.7822 326.151 56.7822C327.847 56.7822 328.823 58.0669 328.823 59.4543C328.823 59.9682 328.72 60.1737 328.309 60.1737H324.507C324.661 61.0987 325.329 61.664 326.459 61.664C327.025 61.664 327.487 61.5098 327.898 61.2015C327.95 61.1501 328.052 61.1501 328.104 61.2529L328.412 61.7153C328.463 61.8181 328.463 61.8695 328.361 61.9723C327.847 62.4348 327.127 62.6917 326.357 62.6917C324.455 62.6917 323.273 61.407 323.273 59.7113ZM327.693 59.3002C327.641 58.3752 327.025 57.81 326.1 57.81C325.226 57.81 324.558 58.3752 324.404 59.3002H327.693Z" fill="#003067"/>
<path d="M330.314 62.5375C330.212 62.5375 330.16 62.4861 330.16 62.3834V57.0392C330.16 56.9364 330.212 56.885 330.314 56.885H331.188C331.291 56.885 331.342 56.9364 331.342 57.0905L331.393 57.81C331.702 57.2447 332.267 56.7822 333.192 56.7822C334.374 56.7822 335.247 57.6044 335.247 59.0946V62.3834C335.247 62.4861 335.196 62.5375 335.093 62.5375H334.168C334.066 62.5375 334.014 62.4861 334.014 62.3834V59.3002C334.014 58.4266 333.552 57.9127 332.781 57.9127C331.959 57.9127 331.445 58.4266 331.445 59.3002V62.3834C331.445 62.4861 331.393 62.5375 331.291 62.5375H330.314V62.5375Z" fill="#003067"/>
</g>
<defs>
<linearGradient id="paint0_linear_1_1524" x1="0" y1="31.5053" x2="53.9444" y2="31.5053" gradientUnits="userSpaceOnUse">
<stop stop-color="#003067"/>
<stop offset="0.0983319" stop-color="#023C70"/>
<stop offset="0.4492" stop-color="#07648D"/>
<stop offset="0.7286" stop-color="#0A7C9F"/>
<stop offset="0.9" stop-color="#0B85A6"/>
</linearGradient>
<clipPath id="clip0_1_1524">
<rect width="339.409" height="63" fill="white"/>
</clipPath>
</defs>
</svg>
