<svg width="195" height="63" viewBox="0 0 195 63" fill="none" xmlns="http://www.w3.org/2000/svg">
<path d="M69.338 26.6098C69.0292 26.6098 68.8232 26.4039 68.8232 26.0436V1.23205C68.8232 0.923184 69.0292 0.665802 69.338 0.665802H76.0814C84.8839 0.665802 89.2593 6.27671 89.2593 13.6378C89.2593 20.9989 84.8839 26.6098 76.0814 26.6098H69.338ZM72.9928 22.9035H76.03C82.1557 22.9035 85.0898 19.5061 85.0898 13.6378C85.0898 7.76953 82.1557 4.37209 76.03 4.37209H72.9928V22.9035Z" fill="#0B85A6"/>
<path d="M92.8096 17.5499C92.8096 12.1963 96.3615 8.02676 101.56 8.02676C104.547 8.02676 106.708 9.36514 107.995 11.4756L108.047 9.00481C108.047 8.69595 108.252 8.43857 108.562 8.43857H111.289C111.599 8.43857 111.804 8.64448 111.804 9.00481V26.0434C111.804 26.3523 111.599 26.6097 111.289 26.6097H108.562C108.252 26.6097 108.047 26.4038 108.047 26.0434L107.995 23.6241C106.708 25.7346 104.547 27.0215 101.56 27.0215C96.3615 27.073 92.8096 22.9548 92.8096 17.5499ZM107.84 17.6013C107.84 14.1009 105.575 11.7331 102.333 11.7331C99.0897 11.7331 96.7218 14.1009 96.7218 17.6013C96.7218 21.1017 99.0897 23.4696 102.333 23.4696C105.575 23.4181 107.84 21.0502 107.84 17.6013Z" fill="#0B85A6"/>
<path d="M117.21 26.6097C116.902 26.6097 116.695 26.4037 116.695 26.0434V9.00481C116.695 8.69595 116.902 8.43857 117.21 8.43857H120.041C120.351 8.43857 120.556 8.593 120.556 9.05629L120.71 11.2698C121.74 9.41662 123.542 8.02676 126.424 8.02676C130.285 8.02676 133.014 10.7035 133.014 15.4908V26.0949C133.014 26.4037 132.807 26.6612 132.447 26.6612H129.513C129.204 26.6612 128.999 26.4552 128.999 26.0949V16.2115C128.999 13.3803 127.608 11.7331 125.035 11.7331C122.46 11.7331 120.71 13.3803 120.71 16.2115V26.0434C120.71 26.3523 120.505 26.6097 120.195 26.6097H117.21Z" fill="#0B85A6"/>
<path d="M137.544 2.2615C137.544 1.02607 138.522 -0.0549316 139.86 -0.0549316C141.147 -0.0549316 142.176 0.974591 142.176 2.2615C142.176 3.5484 141.198 4.57794 139.86 4.57794C138.522 4.57794 137.544 3.5484 137.544 2.2615ZM138.367 26.6098C138.059 26.6098 137.852 26.4038 137.852 26.0435V9.00489C137.852 8.69604 138.059 8.43865 138.367 8.43865H141.353C141.662 8.43865 141.867 8.64456 141.867 9.00489V26.0435C141.867 26.3523 141.662 26.6098 141.353 26.6098H138.367Z" fill="#0B85A6"/>
<path d="M145.729 17.447C145.729 12.0935 149.434 7.9754 154.943 7.9754C160.399 7.9754 163.539 12.0935 163.539 16.6234C163.539 18.2192 163.23 18.9913 161.841 18.9913H149.589C150.052 21.8739 152.214 23.83 155.817 23.83C157.619 23.83 159.061 23.3668 160.502 22.4402C160.708 22.2858 160.965 22.3372 161.119 22.5432L162.149 23.933C162.354 24.2419 162.303 24.4478 161.995 24.7567C160.399 26.301 158.082 27.0731 155.509 27.0731C149.589 27.0731 145.729 22.9035 145.729 17.447ZM159.987 16.1601C159.781 13.1745 157.825 11.4243 154.943 11.4243C152.112 11.4243 150.001 13.1745 149.589 16.1601H159.987Z" fill="#0B85A6"/>
<path d="M168.018 26.6097C167.708 26.6097 167.503 26.4037 167.503 26.0434V0.665604C167.503 0.356746 167.708 0.0993652 168.018 0.0993652H171.003C171.313 0.0993652 171.518 0.30527 171.518 0.665604V26.0434C171.518 26.3522 171.313 26.6097 171.003 26.6097H168.018Z" fill="#0B85A6"/>
<path d="M175.431 17.5499C175.431 12.1963 178.983 8.02676 184.182 8.02676C187.167 8.02676 189.329 9.36514 190.616 11.4756L190.667 9.00481C190.667 8.69595 190.874 8.43857 191.182 8.43857H193.911C194.219 8.43857 194.426 8.64448 194.426 9.00481V26.0434C194.426 26.3523 194.219 26.6097 193.911 26.6097H191.182C190.874 26.6097 190.667 26.4038 190.667 26.0434L190.616 23.6241C189.329 25.7346 187.167 27.0215 184.182 27.0215C178.983 27.073 175.431 22.9548 175.431 17.5499ZM190.411 17.6013C190.411 14.1009 188.146 11.7331 184.902 11.7331C181.66 11.7331 179.291 14.1009 179.291 17.6013C179.291 21.1017 181.66 23.4696 184.902 23.4696C188.146 23.4181 190.411 21.0502 190.411 17.6013Z" fill="#0B85A6"/>
<path d="M69.338 62.5916C69.0292 62.5916 68.8232 62.3858 68.8232 62.0255V37.2139C68.8232 36.905 69.0292 36.6477 69.338 36.6477H72.4266C72.7355 36.6477 72.9928 36.8535 72.9928 37.2139V47.9724H83.7513V37.2139C83.7513 36.905 83.9573 36.6477 84.3176 36.6477H87.4062C87.715 36.6477 87.921 36.8535 87.921 37.2139V62.0255C87.921 62.3343 87.715 62.5916 87.4062 62.5916H84.3176C84.0088 62.5916 83.7513 62.3858 83.7513 62.0255V51.6273H72.9928V62.0255C72.9928 62.3343 72.7869 62.5916 72.4266 62.5916H69.338Z" fill="#0B85A6"/>
<path d="M92.6045 53.532C92.6045 48.1784 96.1563 44.0089 101.355 44.0089C104.342 44.0089 106.503 45.3472 107.79 47.4578L107.842 44.9869C107.842 44.678 108.047 44.4207 108.357 44.4207H111.084C111.393 44.4207 111.599 44.6266 111.599 44.9869V62.0256C111.599 62.3344 111.393 62.5917 111.084 62.5917H108.357C108.047 62.5917 107.842 62.3859 107.842 62.0256L107.79 59.6061C106.503 61.7167 104.342 63.0036 101.355 63.0036C96.1563 63.055 92.6045 58.937 92.6045 53.532ZM107.584 53.532C107.584 50.0316 105.319 47.6636 102.076 47.6636C98.833 47.6636 96.4652 50.0316 96.4652 53.532C96.4652 57.0324 98.833 59.4003 102.076 59.4003C105.319 59.4003 107.584 57.0324 107.584 53.532Z" fill="#0B85A6"/>
<path d="M115.512 53.4289C115.512 48.0754 119.217 43.9572 124.726 43.9572C130.182 43.9572 133.322 48.0754 133.322 52.6052C133.322 54.201 133.013 54.9732 131.624 54.9732H119.424C119.886 57.8558 122.049 59.8119 125.652 59.8119C127.454 59.8119 128.895 59.3486 130.337 58.4221C130.542 58.2676 130.799 58.3191 130.955 58.525L131.983 59.9149C132.19 60.2237 132.138 60.4297 131.829 60.7385C130.233 62.2828 127.917 63.0549 125.343 63.0549C119.372 63.0549 115.512 58.8339 115.512 53.4289ZM129.822 52.0904C129.615 49.1048 127.66 47.3547 124.777 47.3547C121.946 47.3547 119.835 49.1048 119.424 52.0904H129.822Z" fill="#0B85A6"/>
<path d="M137.801 62.5916C137.491 62.5916 137.286 62.3858 137.286 62.0253V44.9868C137.286 44.6779 137.491 44.4205 137.801 44.4205H140.632C140.94 44.4205 141.147 44.575 141.147 45.0383L141.25 47.2002C141.919 45.3986 143.103 43.9572 145.265 43.9572C146.088 43.9572 146.654 44.1631 146.912 44.369C147.169 44.575 147.22 44.7293 147.22 45.0898V47.4061C147.22 47.8694 146.964 47.9209 146.5 47.8179C146.037 47.715 145.626 47.612 145.162 47.612C142.331 47.612 141.198 49.9285 141.198 52.2449V62.0253C141.198 62.3343 140.993 62.5916 140.683 62.5916H137.801Z" fill="#0B85A6"/>
<path d="M151.081 62.5917C150.772 62.5917 150.566 62.3858 150.566 62.0254V36.6476C150.566 36.3388 150.772 36.0815 151.081 36.0815H154.067C154.375 36.0815 154.581 36.2873 154.581 36.6476V62.0254C154.581 62.3344 154.375 62.5917 154.067 62.5917H151.081Z" fill="#0B85A6"/>
<path d="M158.495 53.4289C158.495 48.0754 162.202 43.9572 167.709 43.9572C173.166 43.9572 176.306 48.0754 176.306 52.6052C176.306 54.201 175.997 54.9732 174.607 54.9732H162.356C162.819 57.8558 164.98 59.8119 168.585 59.8119C170.386 59.8119 171.827 59.3486 173.269 58.4221C173.474 58.2676 173.732 58.3191 173.886 58.525L174.916 59.9149C175.122 60.2237 175.07 60.4297 174.761 60.7385C173.166 62.2828 170.85 63.0549 168.275 63.0549C162.356 63.0549 158.495 58.8339 158.495 53.4289ZM172.754 52.0904C172.548 49.1048 170.592 47.3547 167.709 47.3547C164.878 47.3547 162.768 49.1048 162.356 52.0904H172.754Z" fill="#0B85A6"/>
<path d="M53.5868 31.6545C52.6087 27.5363 50.3438 19.5575 49.7261 18.0647C48.6965 15.5423 47.7185 13.3289 46.3801 11.2699C41.6443 4.06317 33.6655 -0.0549316 24.3998 -0.0549316C24.0908 -0.0549316 23.782 -0.0549316 23.4732 -0.0549316C12.1484 0.305402 0 7.71798 0 23.1094C0 28.9777 2.98562 33.8164 5.61091 38.089C6.33157 39.2729 6.58896 40.3024 6.43453 41.4864C6.33157 42.3615 6.12568 44.3691 4.58139 47.6121C4.32401 48.1269 4.32401 48.6416 4.52991 49.1564C6.43453 54.4584 18.583 63.055 25.7896 63.055C26.047 63.055 26.3044 63.055 26.5103 63.0035C27.1794 62.952 27.7457 62.5917 28.106 62.0255C30.5769 57.8044 32.5329 54.0981 33.8714 51.0095C35.982 51.3183 37.8866 51.5243 39.6367 51.5243C44.7844 51.5243 46.7919 50.083 47.3067 49.6712C47.7185 49.3108 47.9758 48.796 48.0273 48.2298L48.851 37.1109C49.8291 36.905 51.4247 36.5447 52.3514 36.3902C53.3294 36.1844 54.0501 35.3607 54.0501 34.3312C54.0501 33.9194 53.8956 33.0443 53.5868 31.6545ZM44.7844 35.3607L43.9607 46.8399C43.5489 46.9429 42.262 47.2517 41.181 47.3547C39.8941 47.4577 38.1439 47.3547 35.5186 46.9944L35.8275 46.3251C36.4966 44.7294 37.6806 41.7952 38.0409 40.9202C44.5269 25.5802 42.3135 15.285 31.452 10.4463C27.5398 8.69604 23.2158 8.59308 19.2006 10.2403C15.0826 11.8876 11.6337 15.285 10.0379 19.3002C7.82439 24.7567 9.00835 30.5734 13.3323 35.2578C14.7737 36.8535 16.4209 38.089 18.1711 38.8096C19.4066 41.5379 21.0538 43.8543 23.0099 45.7075L23.1128 45.8104C24.3483 46.9429 25.6866 47.9209 27.1794 48.6931C28.0545 49.2078 28.9812 49.6197 30.0107 49.98C28.9812 52.5538 26.4073 57.4441 25.3263 59.2457C19.9213 58.7824 10.913 52.5538 8.75097 48.5902C10.1923 45.2441 10.4497 42.9277 10.5527 42.0527C10.81 39.9421 10.3467 38.0375 9.1113 36.0814C6.64043 31.9633 4.06662 27.8452 4.06662 23.1094C4.06662 14.307 9.11129 7.51207 17.6049 4.98974C25.8411 2.51888 37.1658 4.68089 42.9312 13.5348C44.2696 15.5423 45.4535 18.1677 46.586 21.5136C47.5126 24.4992 49.2628 31.603 49.5716 32.8384C48.0788 33.1473 46.5345 33.4561 46.483 33.5076C45.5565 33.662 44.8873 34.4341 44.7844 35.3607ZM23.1643 35.4122C22.4952 35.4637 21.8259 35.4637 21.2082 35.3607C20.0758 32.0663 20.2816 28.8747 21.8259 26.6613C22.804 25.2714 24.1423 24.4477 25.4293 24.4477C27.2824 24.4477 28.8782 25.8377 29.084 27.5363C29.5988 32.1177 26.4073 35.0004 23.1643 35.4122ZM23.2673 39.5303C25.9441 39.2729 28.4664 38.0375 30.3195 36.0814C32.5329 33.7135 33.5625 30.522 33.2022 27.1245C32.7904 23.2638 29.4444 20.3812 25.4808 20.3812C23.3187 20.3812 21.3112 21.2563 19.7154 22.9034C17.6049 25.0655 16.3694 28.4629 16.4724 31.7574C16.4724 32.0148 16.5239 32.3236 16.5239 32.581C15.3914 31.397 14.4134 29.5954 14.4134 29.5954C12.8691 26.7127 12.6631 23.6241 13.8471 20.7415C15.0826 17.7559 17.6563 15.182 20.7449 13.9466C23.7305 12.7627 26.9221 12.8142 29.8048 14.101C42.0046 19.5575 37.6291 32.2722 31.6579 45.9648C30.5769 45.6045 29.5473 45.1927 28.7237 44.7808C28.0031 44.3691 27.3339 43.9573 26.7676 43.4425C26.7676 43.4425 26.2529 43.0307 25.9955 42.7733C24.966 41.8467 24.0908 40.7657 23.2673 39.5303Z" fill="url(#paint0_linear_432_95)"/>
<defs>
<linearGradient id="paint0_linear_432_95" x1="0" y1="31.5053" x2="54.0385" y2="31.5053" gradientUnits="userSpaceOnUse">
<stop stop-color="#003067"/>
<stop offset="0.0983319" stop-color="#023C70"/>
<stop offset="0.4492" stop-color="#07648D"/>
<stop offset="0.7286" stop-color="#0A7C9F"/>
<stop offset="0.9" stop-color="#0B85A6"/>
</linearGradient>
</defs>
</svg>
